<svg width="138" height="138" viewBox="0 0 138 138" fill="none" xmlns="http://www.w3.org/2000/svg">
<g filter="url(#filter0_i_134_23003)">
<circle cx="69" cy="67" r="30" fill="white"/>
</g>
<g filter="url(#filter1_d_134_23003)">
<circle cx="69" cy="66.84" r="18.8" fill="white"/>
</g>
<ellipse cx="90.04" cy="57.4797" rx="0.799999" ry="0.8" fill="#D7D7D7"/>
<circle cx="90.04" cy="77.4797" r="0.799999" fill="#D7D7D7"/>
<ellipse cx="91.64" cy="67.7199" rx="0.799999" ry="0.8" fill="#D7D7D7"/>
<ellipse cx="82.68" cy="87.7199" rx="0.799999" ry="0.800001" fill="#D7D7D7"/>
<ellipse cx="69.88" cy="91.0803" rx="0.8" ry="0.800001" fill="#D7D7D7"/>
<ellipse cx="57.72" cy="88.5197" rx="0.8" ry="0.799999" fill="#D7D7D7"/>
<ellipse cx="49.4" cy="79.0803" rx="0.8" ry="0.800001" fill="#D7D7D7"/>
<ellipse cx="46.3601" cy="67.7199" rx="0.8" ry="0.8" fill="#D7D7D7"/>
<circle cx="47.96" cy="55.8801" r="0.8" fill="#D7D7D7"/>
<circle cx="56.44" cy="45.8" r="0.8" fill="#D7D7D7"/>
<ellipse cx="83.32" cy="46.9201" rx="0.799999" ry="0.8" fill="#D7D7D7"/>
<ellipse cx="69.08" cy="43.0803" rx="0.799999" ry="0.8" fill="#D7D7D7"/>
<path d="M68.92 42.584C72.1158 42.584 75.2804 43.2135 78.233 44.4365C81.1855 45.6595 83.8683 47.452 86.1281 49.7118C88.3879 51.9716 90.1805 54.6544 91.4035 57.607C92.6265 60.5596 93.256 63.7241 93.256 66.92C93.256 70.1158 92.6265 73.2804 91.4035 76.233C90.1805 79.1856 88.3879 81.8683 86.1281 84.1281C83.8683 86.3879 81.1855 88.1805 78.233 89.4035C75.2804 90.6265 72.1158 91.256 68.92 91.256" stroke="#062726" stroke-width="10" stroke-linecap="round" stroke-linejoin="round"/>
<g filter="url(#filter2_i_134_23003)">
<ellipse cx="68.92" cy="91.2402" rx="4" ry="4" fill="white"/>
</g>
<path d="M66.525 72V70.695L70.695 66.735C71.045 66.405 71.305 66.115 71.475 65.865C71.645 65.615 71.755 65.385 71.805 65.175C71.865 64.955 71.895 64.75 71.895 64.56C71.895 64.08 71.73 63.71 71.4 63.45C71.07 63.18 70.585 63.045 69.945 63.045C69.435 63.045 68.97 63.135 68.55 63.315C68.14 63.495 67.785 63.77 67.485 64.14L66.12 63.09C66.53 62.54 67.08 62.115 67.77 61.815C68.47 61.505 69.25 61.35 70.11 61.35C70.87 61.35 71.53 61.475 72.09 61.725C72.66 61.965 73.095 62.31 73.395 62.76C73.705 63.21 73.86 63.745 73.86 64.365C73.86 64.705 73.815 65.045 73.725 65.385C73.635 65.715 73.465 66.065 73.215 66.435C72.965 66.805 72.6 67.22 72.12 67.68L68.535 71.085L68.13 70.35H74.265V72H66.525Z" fill="#062726"/>
<g filter="url(#filter3_i_134_23003)">
<circle cx="69" cy="67" r="30" fill="white"/>
</g>
<g filter="url(#filter4_d_134_23003)">
<circle cx="69" cy="66.84" r="18.8" fill="white"/>
</g>
<ellipse cx="90.04" cy="57.4797" rx="0.799999" ry="0.8" fill="#D7D7D7"/>
<circle cx="90.04" cy="77.4797" r="0.799999" fill="#D7D7D7"/>
<ellipse cx="91.64" cy="67.7199" rx="0.799999" ry="0.8" fill="#D7D7D7"/>
<ellipse cx="82.68" cy="87.7199" rx="0.799999" ry="0.800001" fill="#D7D7D7"/>
<ellipse cx="69.88" cy="91.0803" rx="0.8" ry="0.800001" fill="#D7D7D7"/>
<ellipse cx="57.72" cy="88.5197" rx="0.8" ry="0.799999" fill="#D7D7D7"/>
<ellipse cx="49.4" cy="79.0803" rx="0.8" ry="0.800001" fill="#D7D7D7"/>
<ellipse cx="46.3601" cy="67.7199" rx="0.8" ry="0.8" fill="#D7D7D7"/>
<circle cx="47.96" cy="55.8801" r="0.8" fill="#D7D7D7"/>
<circle cx="56.44" cy="45.8" r="0.8" fill="#D7D7D7"/>
<ellipse cx="83.32" cy="46.9201" rx="0.799999" ry="0.8" fill="#D7D7D7"/>
<ellipse cx="69.08" cy="43.0803" rx="0.799999" ry="0.8" fill="#D7D7D7"/>
<path d="M68.92 42.584C72.1158 42.584 75.2804 43.2135 78.233 44.4365C81.1855 45.6595 83.8683 47.452 86.1281 49.7118C88.3879 51.9716 90.1805 54.6544 91.4035 57.607C92.6265 60.5596 93.256 63.7241 93.256 66.92C93.256 70.1158 92.6265 73.2804 91.4035 76.233C90.1805 79.1856 88.3879 81.8683 86.1281 84.1281C83.8683 86.3879 81.1855 88.1805 78.233 89.4035C75.2804 90.6265 72.1158 91.256 68.92 91.256" stroke="#062726" stroke-width="10" stroke-linecap="round" stroke-linejoin="round"/>
<g filter="url(#filter5_i_134_23003)">
<ellipse cx="68.92" cy="91.2402" rx="4" ry="4" fill="white"/>
</g>
<path d="M66.525 72V70.695L70.695 66.735C71.045 66.405 71.305 66.115 71.475 65.865C71.645 65.615 71.755 65.385 71.805 65.175C71.865 64.955 71.895 64.75 71.895 64.56C71.895 64.08 71.73 63.71 71.4 63.45C71.07 63.18 70.585 63.045 69.945 63.045C69.435 63.045 68.97 63.135 68.55 63.315C68.14 63.495 67.785 63.77 67.485 64.14L66.12 63.09C66.53 62.54 67.08 62.115 67.77 61.815C68.47 61.505 69.25 61.35 70.11 61.35C70.87 61.35 71.53 61.475 72.09 61.725C72.66 61.965 73.095 62.31 73.395 62.76C73.705 63.21 73.86 63.745 73.86 64.365C73.86 64.705 73.815 65.045 73.725 65.385C73.635 65.715 73.465 66.065 73.215 66.435C72.965 66.805 72.6 67.22 72.12 67.68L68.535 71.085L68.13 70.35H74.265V72H66.525Z" fill="#062726"/>
<defs>
<filter id="filter0_i_134_23003" x="39" y="37" width="60" height="84" filterUnits="userSpaceOnUse" color-interpolation-filters="sRGB">
<feFlood flood-opacity="0" result="BackgroundImageFix"/>
<feBlend mode="normal" in="SourceGraphic" in2="BackgroundImageFix" result="shape"/>
<feColorMatrix in="SourceAlpha" type="matrix" values="0 0 0 0 0 0 0 0 0 0 0 0 0 0 0 0 0 0 127 0" result="hardAlpha"/>
<feOffset dy="24"/>
<feGaussianBlur stdDeviation="47"/>
<feComposite in2="hardAlpha" operator="arithmetic" k2="-1" k3="1"/>
<feColorMatrix type="matrix" values="0 0 0 0 0.05 0 0 0 0 0.05 0 0 0 0 0.05 0 0 0 0.17 0"/>
<feBlend mode="normal" in2="shape" result="effect1_innerShadow_134_23003"/>
</filter>
<filter id="filter1_d_134_23003" x="0.199951" y="0.0400391" width="137.6" height="137.6" filterUnits="userSpaceOnUse" color-interpolation-filters="sRGB">
<feFlood flood-opacity="0" result="BackgroundImageFix"/>
<feColorMatrix in="SourceAlpha" type="matrix" values="0 0 0 0 0 0 0 0 0 0 0 0 0 0 0 0 0 0 127 0" result="hardAlpha"/>
<feMorphology radius="10" operator="dilate" in="SourceAlpha" result="effect1_dropShadow_134_23003"/>
<feOffset dy="2"/>
<feGaussianBlur stdDeviation="20"/>
<feComposite in2="hardAlpha" operator="out"/>
<feColorMatrix type="matrix" values="0 0 0 0 0.620833 0 0 0 0 0.620833 0 0 0 0 0.620833 0 0 0 0.35 0"/>
<feBlend mode="normal" in2="BackgroundImageFix" result="effect1_dropShadow_134_23003"/>
<feBlend mode="normal" in="SourceGraphic" in2="effect1_dropShadow_134_23003" result="shape"/>
</filter>
<filter id="filter2_i_134_23003" x="62.92" y="87.2402" width="10" height="12" filterUnits="userSpaceOnUse" color-interpolation-filters="sRGB">
<feFlood flood-opacity="0" result="BackgroundImageFix"/>
<feBlend mode="normal" in="SourceGraphic" in2="BackgroundImageFix" result="shape"/>
<feColorMatrix in="SourceAlpha" type="matrix" values="0 0 0 0 0 0 0 0 0 0 0 0 0 0 0 0 0 0 127 0" result="hardAlpha"/>
<feOffset dx="-2" dy="4"/>
<feGaussianBlur stdDeviation="2"/>
<feComposite in2="hardAlpha" operator="arithmetic" k2="-1" k3="1"/>
<feColorMatrix type="matrix" values="0 0 0 0 0.654167 0 0 0 0 0.58875 0 0 0 0 0.58875 0 0 0 0.25 0"/>
<feBlend mode="normal" in2="shape" result="effect1_innerShadow_134_23003"/>
</filter>
<filter id="filter3_i_134_23003" x="39" y="37" width="60" height="84" filterUnits="userSpaceOnUse" color-interpolation-filters="sRGB">
<feFlood flood-opacity="0" result="BackgroundImageFix"/>
<feBlend mode="normal" in="SourceGraphic" in2="BackgroundImageFix" result="shape"/>
<feColorMatrix in="SourceAlpha" type="matrix" values="0 0 0 0 0 0 0 0 0 0 0 0 0 0 0 0 0 0 127 0" result="hardAlpha"/>
<feOffset dy="24"/>
<feGaussianBlur stdDeviation="47"/>
<feComposite in2="hardAlpha" operator="arithmetic" k2="-1" k3="1"/>
<feColorMatrix type="matrix" values="0 0 0 0 0.05 0 0 0 0 0.05 0 0 0 0 0.05 0 0 0 0.17 0"/>
<feBlend mode="normal" in2="shape" result="effect1_innerShadow_134_23003"/>
</filter>
<filter id="filter4_d_134_23003" x="0.199951" y="0.0400391" width="137.6" height="137.6" filterUnits="userSpaceOnUse" color-interpolation-filters="sRGB">
<feFlood flood-opacity="0" result="BackgroundImageFix"/>
<feColorMatrix in="SourceAlpha" type="matrix" values="0 0 0 0 0 0 0 0 0 0 0 0 0 0 0 0 0 0 127 0" result="hardAlpha"/>
<feMorphology radius="10" operator="dilate" in="SourceAlpha" result="effect1_dropShadow_134_23003"/>
<feOffset dy="2"/>
<feGaussianBlur stdDeviation="20"/>
<feComposite in2="hardAlpha" operator="out"/>
<feColorMatrix type="matrix" values="0 0 0 0 0.620833 0 0 0 0 0.620833 0 0 0 0 0.620833 0 0 0 0.35 0"/>
<feBlend mode="normal" in2="BackgroundImageFix" result="effect1_dropShadow_134_23003"/>
<feBlend mode="normal" in="SourceGraphic" in2="effect1_dropShadow_134_23003" result="shape"/>
</filter>
<filter id="filter5_i_134_23003" x="62.92" y="87.2402" width="10" height="12" filterUnits="userSpaceOnUse" color-interpolation-filters="sRGB">
<feFlood flood-opacity="0" result="BackgroundImageFix"/>
<feBlend mode="normal" in="SourceGraphic" in2="BackgroundImageFix" result="shape"/>
<feColorMatrix in="SourceAlpha" type="matrix" values="0 0 0 0 0 0 0 0 0 0 0 0 0 0 0 0 0 0 127 0" result="hardAlpha"/>
<feOffset dx="-2" dy="4"/>
<feGaussianBlur stdDeviation="2"/>
<feComposite in2="hardAlpha" operator="arithmetic" k2="-1" k3="1"/>
<feColorMatrix type="matrix" values="0 0 0 0 0.654167 0 0 0 0 0.58875 0 0 0 0 0.58875 0 0 0 0.25 0"/>
<feBlend mode="normal" in2="shape" result="effect1_innerShadow_134_23003"/>
</filter>
</defs>
</svg>
