<svg width="138" height="138" viewBox="0 0 138 138" fill="none" xmlns="http://www.w3.org/2000/svg">
<g filter="url(#filter0_i_134_23004)">
<circle cx="69" cy="67" r="30" fill="white"/>
</g>
<g filter="url(#filter1_d_134_23004)">
<circle cx="69" cy="66.84" r="18.8" fill="white"/>
</g>
<ellipse cx="90.04" cy="57.4797" rx="0.799999" ry="0.8" fill="#D7D7D7"/>
<circle cx="90.04" cy="77.4797" r="0.799999" fill="#D7D7D7"/>
<ellipse cx="91.64" cy="67.7199" rx="0.799999" ry="0.8" fill="#D7D7D7"/>
<ellipse cx="82.68" cy="87.7199" rx="0.799999" ry="0.800001" fill="#D7D7D7"/>
<ellipse cx="69.88" cy="91.0803" rx="0.8" ry="0.800001" fill="#D7D7D7"/>
<ellipse cx="57.72" cy="88.5197" rx="0.8" ry="0.799999" fill="#D7D7D7"/>
<ellipse cx="49.4" cy="79.0803" rx="0.8" ry="0.800001" fill="#D7D7D7"/>
<ellipse cx="46.3601" cy="67.7199" rx="0.8" ry="0.8" fill="#D7D7D7"/>
<circle cx="47.96" cy="55.8801" r="0.8" fill="#D7D7D7"/>
<circle cx="56.44" cy="45.8" r="0.8" fill="#D7D7D7"/>
<ellipse cx="83.32" cy="46.9201" rx="0.799999" ry="0.8" fill="#D7D7D7"/>
<ellipse cx="69.08" cy="43.0803" rx="0.799999" ry="0.8" fill="#D7D7D7"/>
<path d="M68.92 42.584C73.7332 42.584 78.4383 44.0113 82.4403 46.6853C86.4424 49.3594 89.5616 53.1602 91.4035 57.607C93.2454 62.0538 93.7274 66.947 92.7884 71.6677C91.8494 76.3884 89.5316 80.7247 86.1281 84.1281C82.7247 87.5316 78.3884 89.8494 73.6677 90.7884C68.947 91.7274 64.0538 91.2454 59.607 89.4035C55.1602 87.5616 51.3594 84.4424 48.6853 80.4403C46.0113 76.4383 44.584 71.7332 44.584 66.92" stroke="#062726" stroke-width="10" stroke-linecap="round" stroke-linejoin="round"/>
<g filter="url(#filter2_i_134_23004)">
<ellipse cx="44.6" cy="66.7598" rx="4" ry="4" fill="white"/>
</g>
<path d="M69.96 73.15C69.22 73.15 68.495 73.045 67.785 72.835C67.085 72.615 66.495 72.315 66.015 71.935L66.855 70.42C67.235 70.73 67.695 70.98 68.235 71.17C68.775 71.36 69.34 71.455 69.93 71.455C70.63 71.455 71.175 71.315 71.565 71.035C71.955 70.745 72.15 70.355 72.15 69.865C72.15 69.385 71.97 69.005 71.61 68.725C71.25 68.445 70.67 68.305 69.87 68.305H68.91V66.97L71.91 63.4L72.165 64.135H66.525V62.5H73.68V63.805L70.68 67.375L69.66 66.775H70.245C71.535 66.775 72.5 67.065 73.14 67.645C73.79 68.215 74.115 68.95 74.115 69.85C74.115 70.44 73.965 70.985 73.665 71.485C73.365 71.985 72.905 72.39 72.285 72.7C71.675 73 70.9 73.15 69.96 73.15Z" fill="#062726"/>
<g filter="url(#filter3_i_134_23004)">
<circle cx="69" cy="67" r="30" fill="white"/>
</g>
<g filter="url(#filter4_d_134_23004)">
<circle cx="69" cy="66.84" r="18.8" fill="white"/>
</g>
<ellipse cx="90.04" cy="57.4797" rx="0.799999" ry="0.8" fill="#D7D7D7"/>
<circle cx="90.04" cy="77.4797" r="0.799999" fill="#D7D7D7"/>
<ellipse cx="91.64" cy="67.7199" rx="0.799999" ry="0.8" fill="#D7D7D7"/>
<ellipse cx="82.68" cy="87.7199" rx="0.799999" ry="0.800001" fill="#D7D7D7"/>
<ellipse cx="69.88" cy="91.0803" rx="0.8" ry="0.800001" fill="#D7D7D7"/>
<ellipse cx="57.72" cy="88.5197" rx="0.8" ry="0.799999" fill="#D7D7D7"/>
<ellipse cx="49.4" cy="79.0803" rx="0.8" ry="0.800001" fill="#D7D7D7"/>
<ellipse cx="46.3601" cy="67.7199" rx="0.8" ry="0.8" fill="#D7D7D7"/>
<circle cx="47.96" cy="55.8801" r="0.8" fill="#D7D7D7"/>
<circle cx="56.44" cy="45.8" r="0.8" fill="#D7D7D7"/>
<ellipse cx="83.32" cy="46.9201" rx="0.799999" ry="0.8" fill="#D7D7D7"/>
<ellipse cx="69.08" cy="43.0803" rx="0.799999" ry="0.8" fill="#D7D7D7"/>
<path d="M68.92 42.584C73.7332 42.584 78.4383 44.0113 82.4403 46.6853C86.4424 49.3594 89.5616 53.1602 91.4035 57.607C93.2454 62.0538 93.7274 66.947 92.7884 71.6677C91.8494 76.3884 89.5316 80.7247 86.1281 84.1281C82.7247 87.5316 78.3884 89.8494 73.6677 90.7884C68.947 91.7274 64.0538 91.2454 59.607 89.4035C55.1602 87.5616 51.3594 84.4424 48.6853 80.4403C46.0113 76.4383 44.584 71.7332 44.584 66.92" stroke="#062726" stroke-width="10" stroke-linecap="round" stroke-linejoin="round"/>
<g filter="url(#filter5_i_134_23004)">
<ellipse cx="44.6" cy="66.7598" rx="4" ry="4" fill="white"/>
</g>
<path d="M69.96 73.15C69.22 73.15 68.495 73.045 67.785 72.835C67.085 72.615 66.495 72.315 66.015 71.935L66.855 70.42C67.235 70.73 67.695 70.98 68.235 71.17C68.775 71.36 69.34 71.455 69.93 71.455C70.63 71.455 71.175 71.315 71.565 71.035C71.955 70.745 72.15 70.355 72.15 69.865C72.15 69.385 71.97 69.005 71.61 68.725C71.25 68.445 70.67 68.305 69.87 68.305H68.91V66.97L71.91 63.4L72.165 64.135H66.525V62.5H73.68V63.805L70.68 67.375L69.66 66.775H70.245C71.535 66.775 72.5 67.065 73.14 67.645C73.79 68.215 74.115 68.95 74.115 69.85C74.115 70.44 73.965 70.985 73.665 71.485C73.365 71.985 72.905 72.39 72.285 72.7C71.675 73 70.9 73.15 69.96 73.15Z" fill="#062726"/>
<defs>
<filter id="filter0_i_134_23004" x="39" y="37" width="60" height="84" filterUnits="userSpaceOnUse" color-interpolation-filters="sRGB">
<feFlood flood-opacity="0" result="BackgroundImageFix"/>
<feBlend mode="normal" in="SourceGraphic" in2="BackgroundImageFix" result="shape"/>
<feColorMatrix in="SourceAlpha" type="matrix" values="0 0 0 0 0 0 0 0 0 0 0 0 0 0 0 0 0 0 127 0" result="hardAlpha"/>
<feOffset dy="24"/>
<feGaussianBlur stdDeviation="47"/>
<feComposite in2="hardAlpha" operator="arithmetic" k2="-1" k3="1"/>
<feColorMatrix type="matrix" values="0 0 0 0 0.05 0 0 0 0 0.05 0 0 0 0 0.05 0 0 0 0.17 0"/>
<feBlend mode="normal" in2="shape" result="effect1_innerShadow_134_23004"/>
</filter>
<filter id="filter1_d_134_23004" x="0.199951" y="0.0400391" width="137.6" height="137.6" filterUnits="userSpaceOnUse" color-interpolation-filters="sRGB">
<feFlood flood-opacity="0" result="BackgroundImageFix"/>
<feColorMatrix in="SourceAlpha" type="matrix" values="0 0 0 0 0 0 0 0 0 0 0 0 0 0 0 0 0 0 127 0" result="hardAlpha"/>
<feMorphology radius="10" operator="dilate" in="SourceAlpha" result="effect1_dropShadow_134_23004"/>
<feOffset dy="2"/>
<feGaussianBlur stdDeviation="20"/>
<feComposite in2="hardAlpha" operator="out"/>
<feColorMatrix type="matrix" values="0 0 0 0 0.620833 0 0 0 0 0.620833 0 0 0 0 0.620833 0 0 0 0.35 0"/>
<feBlend mode="normal" in2="BackgroundImageFix" result="effect1_dropShadow_134_23004"/>
<feBlend mode="normal" in="SourceGraphic" in2="effect1_dropShadow_134_23004" result="shape"/>
</filter>
<filter id="filter2_i_134_23004" x="38.6" y="62.7598" width="10" height="12" filterUnits="userSpaceOnUse" color-interpolation-filters="sRGB">
<feFlood flood-opacity="0" result="BackgroundImageFix"/>
<feBlend mode="normal" in="SourceGraphic" in2="BackgroundImageFix" result="shape"/>
<feColorMatrix in="SourceAlpha" type="matrix" values="0 0 0 0 0 0 0 0 0 0 0 0 0 0 0 0 0 0 127 0" result="hardAlpha"/>
<feOffset dx="-2" dy="4"/>
<feGaussianBlur stdDeviation="2"/>
<feComposite in2="hardAlpha" operator="arithmetic" k2="-1" k3="1"/>
<feColorMatrix type="matrix" values="0 0 0 0 0.654167 0 0 0 0 0.58875 0 0 0 0 0.58875 0 0 0 0.25 0"/>
<feBlend mode="normal" in2="shape" result="effect1_innerShadow_134_23004"/>
</filter>
<filter id="filter3_i_134_23004" x="39" y="37" width="60" height="84" filterUnits="userSpaceOnUse" color-interpolation-filters="sRGB">
<feFlood flood-opacity="0" result="BackgroundImageFix"/>
<feBlend mode="normal" in="SourceGraphic" in2="BackgroundImageFix" result="shape"/>
<feColorMatrix in="SourceAlpha" type="matrix" values="0 0 0 0 0 0 0 0 0 0 0 0 0 0 0 0 0 0 127 0" result="hardAlpha"/>
<feOffset dy="24"/>
<feGaussianBlur stdDeviation="47"/>
<feComposite in2="hardAlpha" operator="arithmetic" k2="-1" k3="1"/>
<feColorMatrix type="matrix" values="0 0 0 0 0.05 0 0 0 0 0.05 0 0 0 0 0.05 0 0 0 0.17 0"/>
<feBlend mode="normal" in2="shape" result="effect1_innerShadow_134_23004"/>
</filter>
<filter id="filter4_d_134_23004" x="0.199951" y="0.0400391" width="137.6" height="137.6" filterUnits="userSpaceOnUse" color-interpolation-filters="sRGB">
<feFlood flood-opacity="0" result="BackgroundImageFix"/>
<feColorMatrix in="SourceAlpha" type="matrix" values="0 0 0 0 0 0 0 0 0 0 0 0 0 0 0 0 0 0 127 0" result="hardAlpha"/>
<feMorphology radius="10" operator="dilate" in="SourceAlpha" result="effect1_dropShadow_134_23004"/>
<feOffset dy="2"/>
<feGaussianBlur stdDeviation="20"/>
<feComposite in2="hardAlpha" operator="out"/>
<feColorMatrix type="matrix" values="0 0 0 0 0.620833 0 0 0 0 0.620833 0 0 0 0 0.620833 0 0 0 0.35 0"/>
<feBlend mode="normal" in2="BackgroundImageFix" result="effect1_dropShadow_134_23004"/>
<feBlend mode="normal" in="SourceGraphic" in2="effect1_dropShadow_134_23004" result="shape"/>
</filter>
<filter id="filter5_i_134_23004" x="38.6" y="62.7598" width="10" height="12" filterUnits="userSpaceOnUse" color-interpolation-filters="sRGB">
<feFlood flood-opacity="0" result="BackgroundImageFix"/>
<feBlend mode="normal" in="SourceGraphic" in2="BackgroundImageFix" result="shape"/>
<feColorMatrix in="SourceAlpha" type="matrix" values="0 0 0 0 0 0 0 0 0 0 0 0 0 0 0 0 0 0 127 0" result="hardAlpha"/>
<feOffset dx="-2" dy="4"/>
<feGaussianBlur stdDeviation="2"/>
<feComposite in2="hardAlpha" operator="arithmetic" k2="-1" k3="1"/>
<feColorMatrix type="matrix" values="0 0 0 0 0.654167 0 0 0 0 0.58875 0 0 0 0 0.58875 0 0 0 0.25 0"/>
<feBlend mode="normal" in2="shape" result="effect1_innerShadow_134_23004"/>
</filter>
</defs>
</svg>
