<svg width="121" height="138" viewBox="0 0 121 138" fill="none" xmlns="http://www.w3.org/2000/svg">
<g filter="url(#filter0_i_134_23005)">
<circle cx="69" cy="67" r="30" fill="white"/>
</g>
<g filter="url(#filter1_d_134_23005)">
<circle cx="69" cy="66.84" r="18.8" fill="white"/>
</g>
<ellipse cx="90.04" cy="57.4797" rx="0.799999" ry="0.8" fill="#D7D7D7"/>
<circle cx="90.04" cy="77.4797" r="0.799999" fill="#D7D7D7"/>
<ellipse cx="91.64" cy="67.7199" rx="0.799999" ry="0.8" fill="#D7D7D7"/>
<ellipse cx="82.68" cy="87.7199" rx="0.799999" ry="0.800001" fill="#D7D7D7"/>
<ellipse cx="69.88" cy="91.0803" rx="0.8" ry="0.800001" fill="#D7D7D7"/>
<ellipse cx="57.72" cy="88.5197" rx="0.8" ry="0.799999" fill="#D7D7D7"/>
<ellipse cx="49.4" cy="79.0803" rx="0.8" ry="0.800001" fill="#D7D7D7"/>
<ellipse cx="46.3601" cy="67.7199" rx="0.8" ry="0.8" fill="#D7D7D7"/>
<circle cx="47.96" cy="55.8801" r="0.8" fill="#D7D7D7"/>
<circle cx="56.44" cy="45.8" r="0.8" fill="#D7D7D7"/>
<ellipse cx="83.32" cy="46.9201" rx="0.799999" ry="0.8" fill="#D7D7D7"/>
<ellipse cx="69.08" cy="43.0803" rx="0.799999" ry="0.8" fill="#D7D7D7"/>
<path d="M68.92 42.584C72.1158 42.584 75.2804 43.2135 78.233 44.4365C81.1855 45.6595 83.8683 47.452 86.1281 49.7118C88.3879 51.9716 90.1805 54.6544 91.4035 57.607C92.6265 60.5596 93.256 63.7241 93.256 66.92C93.256 70.1158 92.6265 73.2804 91.4035 76.233C90.1805 79.1856 88.3879 81.8683 86.1281 84.1281C83.8683 86.3879 81.1855 88.1805 78.233 89.4035C75.2804 90.6265 72.1158 91.256 68.92 91.256C65.7241 91.256 62.5596 90.6265 59.607 89.4035C56.6544 88.1805 53.9716 86.3879 51.7118 84.1281C49.452 81.8683 47.6594 79.1855 46.4364 76.233C45.2135 73.2804 44.584 70.1158 44.584 66.92C44.584 63.7241 45.2135 60.5596 46.4365 57.607C47.6595 54.6544 49.452 51.9716 51.7118 49.7118C53.9717 47.452 56.6544 45.6594 59.607 44.4364C62.5596 43.2134 65.7241 42.584 68.92 42.584L68.92 42.584Z" stroke="#062726" stroke-width="10" stroke-linecap="round" stroke-linejoin="round"/>
<g filter="url(#filter2_i_134_23005)">
<ellipse cx="68.28" cy="42.5996" rx="4" ry="4" fill="white"/>
</g>
<g clip-path="url(#clip0_134_23005)">
<path d="M63.452 114.378V105.558L97.262 61.36H110.884L77.564 105.558L71.194 103.598H125.584V114.378H63.452ZM101.084 129.96V114.378L101.476 103.598V89.78H113.432V129.96H101.084Z" fill="black"/>
</g>
<path d="M63.51 69.615V68.265L68.685 61.5H70.77L65.67 68.265L64.695 67.965H73.02V69.615H63.51ZM69.27 72V69.615L69.33 67.965V65.85H71.16V72H69.27Z" fill="#062726"/>
<g filter="url(#filter3_i_134_23005)">
<circle cx="69" cy="67" r="30" fill="white"/>
</g>
<g filter="url(#filter4_d_134_23005)">
<circle cx="69" cy="66.84" r="18.8" fill="white"/>
</g>
<ellipse cx="90.04" cy="57.4797" rx="0.799999" ry="0.8" fill="#D7D7D7"/>
<circle cx="90.04" cy="77.4797" r="0.799999" fill="#D7D7D7"/>
<ellipse cx="91.64" cy="67.7199" rx="0.799999" ry="0.8" fill="#D7D7D7"/>
<ellipse cx="82.68" cy="87.7199" rx="0.799999" ry="0.800001" fill="#D7D7D7"/>
<ellipse cx="69.88" cy="91.0803" rx="0.8" ry="0.800001" fill="#D7D7D7"/>
<ellipse cx="57.72" cy="88.5197" rx="0.8" ry="0.799999" fill="#D7D7D7"/>
<ellipse cx="49.4" cy="79.0803" rx="0.8" ry="0.800001" fill="#D7D7D7"/>
<ellipse cx="46.3601" cy="67.7199" rx="0.8" ry="0.8" fill="#D7D7D7"/>
<circle cx="47.96" cy="55.8801" r="0.8" fill="#D7D7D7"/>
<circle cx="56.44" cy="45.8" r="0.8" fill="#D7D7D7"/>
<ellipse cx="83.32" cy="46.9201" rx="0.799999" ry="0.8" fill="#D7D7D7"/>
<ellipse cx="69.08" cy="43.0803" rx="0.799999" ry="0.8" fill="#D7D7D7"/>
<path d="M68.92 42.584C72.1158 42.584 75.2804 43.2135 78.233 44.4365C81.1855 45.6595 83.8683 47.452 86.1281 49.7118C88.3879 51.9716 90.1805 54.6544 91.4035 57.607C92.6265 60.5596 93.256 63.7241 93.256 66.92C93.256 70.1158 92.6265 73.2804 91.4035 76.233C90.1805 79.1856 88.3879 81.8683 86.1281 84.1281C83.8683 86.3879 81.1855 88.1805 78.233 89.4035C75.2804 90.6265 72.1158 91.256 68.92 91.256C65.7241 91.256 62.5596 90.6265 59.607 89.4035C56.6544 88.1805 53.9716 86.3879 51.7118 84.1281C49.452 81.8683 47.6594 79.1855 46.4364 76.233C45.2135 73.2804 44.584 70.1158 44.584 66.92C44.584 63.7241 45.2135 60.5596 46.4365 57.607C47.6595 54.6544 49.452 51.9716 51.7118 49.7118C53.9717 47.452 56.6544 45.6594 59.607 44.4364C62.5596 43.2134 65.7241 42.584 68.92 42.584L68.92 42.584Z" stroke="#062726" stroke-width="10" stroke-linecap="round" stroke-linejoin="round"/>
<g filter="url(#filter5_i_134_23005)">
<ellipse cx="68.28" cy="42.5996" rx="4" ry="4" fill="white"/>
</g>
<g clip-path="url(#clip1_134_23005)">
<path d="M63.452 114.378V105.558L97.262 61.36H110.884L77.564 105.558L71.194 103.598H125.584V114.378H63.452ZM101.084 129.96V114.378L101.476 103.598V89.78H113.432V129.96H101.084Z" fill="black"/>
</g>
<path d="M63.51 69.615V68.265L68.685 61.5H70.77L65.67 68.265L64.695 67.965H73.02V69.615H63.51ZM69.27 72V69.615L69.33 67.965V65.85H71.16V72H69.27Z" fill="#062726"/>
<defs>
<filter id="filter0_i_134_23005" x="39" y="37" width="60" height="84" filterUnits="userSpaceOnUse" color-interpolation-filters="sRGB">
<feFlood flood-opacity="0" result="BackgroundImageFix"/>
<feBlend mode="normal" in="SourceGraphic" in2="BackgroundImageFix" result="shape"/>
<feColorMatrix in="SourceAlpha" type="matrix" values="0 0 0 0 0 0 0 0 0 0 0 0 0 0 0 0 0 0 127 0" result="hardAlpha"/>
<feOffset dy="24"/>
<feGaussianBlur stdDeviation="47"/>
<feComposite in2="hardAlpha" operator="arithmetic" k2="-1" k3="1"/>
<feColorMatrix type="matrix" values="0 0 0 0 0.05 0 0 0 0 0.05 0 0 0 0 0.05 0 0 0 0.17 0"/>
<feBlend mode="normal" in2="shape" result="effect1_innerShadow_134_23005"/>
</filter>
<filter id="filter1_d_134_23005" x="0.199951" y="0.0400391" width="137.6" height="137.6" filterUnits="userSpaceOnUse" color-interpolation-filters="sRGB">
<feFlood flood-opacity="0" result="BackgroundImageFix"/>
<feColorMatrix in="SourceAlpha" type="matrix" values="0 0 0 0 0 0 0 0 0 0 0 0 0 0 0 0 0 0 127 0" result="hardAlpha"/>
<feMorphology radius="10" operator="dilate" in="SourceAlpha" result="effect1_dropShadow_134_23005"/>
<feOffset dy="2"/>
<feGaussianBlur stdDeviation="20"/>
<feComposite in2="hardAlpha" operator="out"/>
<feColorMatrix type="matrix" values="0 0 0 0 0.620833 0 0 0 0 0.620833 0 0 0 0 0.620833 0 0 0 0.35 0"/>
<feBlend mode="normal" in2="BackgroundImageFix" result="effect1_dropShadow_134_23005"/>
<feBlend mode="normal" in="SourceGraphic" in2="effect1_dropShadow_134_23005" result="shape"/>
</filter>
<filter id="filter2_i_134_23005" x="62.28" y="38.5996" width="10" height="12" filterUnits="userSpaceOnUse" color-interpolation-filters="sRGB">
<feFlood flood-opacity="0" result="BackgroundImageFix"/>
<feBlend mode="normal" in="SourceGraphic" in2="BackgroundImageFix" result="shape"/>
<feColorMatrix in="SourceAlpha" type="matrix" values="0 0 0 0 0 0 0 0 0 0 0 0 0 0 0 0 0 0 127 0" result="hardAlpha"/>
<feOffset dx="-2" dy="4"/>
<feGaussianBlur stdDeviation="2"/>
<feComposite in2="hardAlpha" operator="arithmetic" k2="-1" k3="1"/>
<feColorMatrix type="matrix" values="0 0 0 0 0.654167 0 0 0 0 0.58875 0 0 0 0 0.58875 0 0 0 0.25 0"/>
<feBlend mode="normal" in2="shape" result="effect1_innerShadow_134_23005"/>
</filter>
<filter id="filter3_i_134_23005" x="39" y="37" width="60" height="84" filterUnits="userSpaceOnUse" color-interpolation-filters="sRGB">
<feFlood flood-opacity="0" result="BackgroundImageFix"/>
<feBlend mode="normal" in="SourceGraphic" in2="BackgroundImageFix" result="shape"/>
<feColorMatrix in="SourceAlpha" type="matrix" values="0 0 0 0 0 0 0 0 0 0 0 0 0 0 0 0 0 0 127 0" result="hardAlpha"/>
<feOffset dy="24"/>
<feGaussianBlur stdDeviation="47"/>
<feComposite in2="hardAlpha" operator="arithmetic" k2="-1" k3="1"/>
<feColorMatrix type="matrix" values="0 0 0 0 0.05 0 0 0 0 0.05 0 0 0 0 0.05 0 0 0 0.17 0"/>
<feBlend mode="normal" in2="shape" result="effect1_innerShadow_134_23005"/>
</filter>
<filter id="filter4_d_134_23005" x="0.199951" y="0.0400391" width="137.6" height="137.6" filterUnits="userSpaceOnUse" color-interpolation-filters="sRGB">
<feFlood flood-opacity="0" result="BackgroundImageFix"/>
<feColorMatrix in="SourceAlpha" type="matrix" values="0 0 0 0 0 0 0 0 0 0 0 0 0 0 0 0 0 0 127 0" result="hardAlpha"/>
<feMorphology radius="10" operator="dilate" in="SourceAlpha" result="effect1_dropShadow_134_23005"/>
<feOffset dy="2"/>
<feGaussianBlur stdDeviation="20"/>
<feComposite in2="hardAlpha" operator="out"/>
<feColorMatrix type="matrix" values="0 0 0 0 0.620833 0 0 0 0 0.620833 0 0 0 0 0.620833 0 0 0 0.35 0"/>
<feBlend mode="normal" in2="BackgroundImageFix" result="effect1_dropShadow_134_23005"/>
<feBlend mode="normal" in="SourceGraphic" in2="effect1_dropShadow_134_23005" result="shape"/>
</filter>
<filter id="filter5_i_134_23005" x="62.28" y="38.5996" width="10" height="12" filterUnits="userSpaceOnUse" color-interpolation-filters="sRGB">
<feFlood flood-opacity="0" result="BackgroundImageFix"/>
<feBlend mode="normal" in="SourceGraphic" in2="BackgroundImageFix" result="shape"/>
<feColorMatrix in="SourceAlpha" type="matrix" values="0 0 0 0 0 0 0 0 0 0 0 0 0 0 0 0 0 0 127 0" result="hardAlpha"/>
<feOffset dx="-2" dy="4"/>
<feGaussianBlur stdDeviation="2"/>
<feComposite in2="hardAlpha" operator="arithmetic" k2="-1" k3="1"/>
<feColorMatrix type="matrix" values="0 0 0 0 0.654167 0 0 0 0 0.58875 0 0 0 0 0.58875 0 0 0 0.25 0"/>
<feBlend mode="normal" in2="shape" result="effect1_innerShadow_134_23005"/>
</filter>
<clipPath id="clip0_134_23005">
<rect width="19.52" height="15.04" fill="white" transform="translate(60.12 57.96)"/>
</clipPath>
<clipPath id="clip1_134_23005">
<rect width="19.52" height="15.04" fill="white" transform="translate(60.12 57.96)"/>
</clipPath>
</defs>
</svg>
