<svg width="234" height="48" viewBox="0 0 234 48" fill="none" xmlns="http://www.w3.org/2000/svg">
<path d="M7.308 37.6V38.92H2.556V41.104H6.768V42.424H2.556V44.68H7.368V46H1.08V37.6H7.308ZM14.2191 40.648C14.4751 40.312 14.7751 40.044 15.1191 39.844C15.4711 39.636 15.8871 39.532 16.3671 39.532C17.0631 39.532 17.6071 39.744 17.9991 40.168C18.3911 40.584 18.5871 41.18 18.5871 41.956V46H17.1351V42.4C17.1351 41.896 17.0231 41.512 16.7991 41.248C16.5751 40.984 16.2591 40.852 15.8511 40.852C15.4511 40.852 15.1231 40.988 14.8671 41.26C14.6191 41.524 14.4951 41.912 14.4951 42.424V46H13.0431V42.388C13.0431 41.892 12.9311 41.512 12.7071 41.248C12.4831 40.984 12.1671 40.852 11.7591 40.852C11.3511 40.852 11.0231 40.992 10.7751 41.272C10.5271 41.552 10.4031 41.94 10.4031 42.436V46H8.95106V39.664H10.4031V40.624C10.5071 40.48 10.6191 40.344 10.7391 40.216C10.8591 40.088 10.9951 39.972 11.1471 39.868C11.3071 39.764 11.4831 39.684 11.6751 39.628C11.8751 39.564 12.0951 39.532 12.3351 39.532C12.7911 39.532 13.1751 39.636 13.4871 39.844C13.8071 40.044 14.0511 40.312 14.2191 40.648ZM26.9054 42.832C26.9054 43.36 26.8214 43.828 26.6534 44.236C26.4934 44.644 26.2734 44.992 25.9934 45.28C25.7214 45.56 25.4054 45.772 25.0454 45.916C24.6934 46.06 24.3294 46.132 23.9534 46.132C23.4334 46.132 23.0014 46.02 22.6574 45.796C22.3134 45.572 22.0294 45.312 21.8054 45.016V47.92H20.3534V39.664H21.8054V40.72C22.0374 40.384 22.3254 40.104 22.6694 39.88C23.0134 39.648 23.4414 39.532 23.9534 39.532C24.3294 39.532 24.6934 39.604 25.0454 39.748C25.3974 39.892 25.7094 40.108 25.9814 40.396C26.2614 40.676 26.4854 41.02 26.6534 41.428C26.8214 41.836 26.9054 42.304 26.9054 42.832ZM25.4294 42.832C25.4294 42.52 25.3814 42.24 25.2854 41.992C25.1894 41.736 25.0574 41.52 24.8894 41.344C24.7294 41.168 24.5374 41.032 24.3134 40.936C24.0974 40.84 23.8654 40.792 23.6174 40.792C23.3694 40.792 23.1334 40.84 22.9094 40.936C22.6854 41.032 22.4894 41.172 22.3214 41.356C22.1534 41.532 22.0174 41.744 21.9134 41.992C21.8174 42.24 21.7694 42.52 21.7694 42.832C21.7694 43.144 21.8174 43.424 21.9134 43.672C22.0174 43.92 22.1534 44.136 22.3214 44.32C22.4894 44.496 22.6854 44.632 22.9094 44.728C23.1334 44.824 23.3694 44.872 23.6174 44.872C23.8654 44.872 24.0974 44.824 24.3134 44.728C24.5374 44.632 24.7294 44.496 24.8894 44.32C25.0574 44.144 25.1894 43.932 25.2854 43.684C25.3814 43.428 25.4294 43.144 25.4294 42.832ZM34.8005 42.832C34.8005 43.288 34.7125 43.716 34.5365 44.116C34.3685 44.516 34.1325 44.868 33.8285 45.172C33.5325 45.468 33.1765 45.704 32.7605 45.88C32.3445 46.056 31.8925 46.144 31.4045 46.144C30.9245 46.144 30.4765 46.06 30.0605 45.892C29.6525 45.716 29.2965 45.48 28.9925 45.184C28.6965 44.88 28.4645 44.532 28.2965 44.14C28.1285 43.74 28.0445 43.312 28.0445 42.856C28.0445 42.4 28.1285 41.972 28.2965 41.572C28.4725 41.164 28.7085 40.812 29.0045 40.516C29.3085 40.212 29.6645 39.972 30.0725 39.796C30.4885 39.62 30.9405 39.532 31.4285 39.532C31.9165 39.532 32.3645 39.62 32.7725 39.796C33.1885 39.964 33.5445 40.2 33.8405 40.504C34.1445 40.8 34.3805 41.148 34.5485 41.548C34.7165 41.948 34.8005 42.376 34.8005 42.832ZM33.3485 42.856C33.3485 42.576 33.3005 42.312 33.2045 42.064C33.1085 41.816 32.9725 41.6 32.7965 41.416C32.6285 41.224 32.4245 41.076 32.1845 40.972C31.9525 40.86 31.6925 40.804 31.4045 40.804C31.1165 40.804 30.8525 40.86 30.6125 40.972C30.3805 41.076 30.1805 41.22 30.0125 41.404C29.8445 41.588 29.7165 41.804 29.6285 42.052C29.5405 42.292 29.4965 42.552 29.4965 42.832C29.4965 43.112 29.5445 43.38 29.6405 43.636C29.7365 43.884 29.8685 44.1 30.0365 44.284C30.2125 44.468 30.4165 44.616 30.6485 44.728C30.8885 44.832 31.1485 44.884 31.4285 44.884C31.7245 44.884 31.9885 44.832 32.2205 44.728C32.4605 44.616 32.6645 44.468 32.8325 44.284C33.0005 44.1 33.1285 43.888 33.2165 43.648C33.3045 43.4 33.3485 43.136 33.3485 42.856ZM40.8465 39.64L42.2625 44.008L43.5585 39.664H45.0105L42.9345 46.048H41.6385L40.2225 41.716L38.7945 46.048H37.4985L35.4465 39.664H36.9345L38.2065 44.008L39.6105 39.64H40.8465ZM47.1098 43.348C47.1978 43.868 47.4058 44.268 47.7338 44.548C48.0618 44.82 48.4618 44.956 48.9338 44.956C49.2938 44.956 49.6058 44.892 49.8698 44.764C50.1338 44.636 50.3938 44.448 50.6498 44.2L51.5018 44.956C51.1978 45.316 50.8338 45.604 50.4098 45.82C49.9938 46.036 49.4938 46.144 48.9098 46.144C48.4538 46.144 48.0258 46.064 47.6258 45.904C47.2338 45.744 46.8898 45.52 46.5938 45.232C46.3058 44.944 46.0778 44.6 45.9098 44.2C45.7418 43.792 45.6578 43.34 45.6578 42.844C45.6578 42.388 45.7338 41.96 45.8857 41.56C46.0378 41.16 46.2498 40.812 46.5218 40.516C46.8018 40.212 47.1298 39.972 47.5058 39.796C47.8818 39.62 48.2978 39.532 48.7538 39.532C49.2578 39.532 49.6978 39.624 50.0738 39.808C50.4578 39.992 50.7738 40.24 51.0218 40.552C51.2778 40.864 51.4698 41.228 51.5978 41.644C51.7258 42.06 51.7898 42.496 51.7898 42.952C51.7898 43.016 51.7858 43.08 51.7778 43.144C51.7778 43.208 51.7738 43.276 51.7658 43.348H47.1098ZM47.0978 42.388H50.3498C50.3258 42.156 50.2738 41.94 50.1938 41.74C50.1138 41.532 50.0058 41.356 49.8698 41.212C49.7338 41.06 49.5698 40.94 49.3778 40.852C49.1938 40.764 48.9818 40.72 48.7418 40.72C48.2938 40.72 47.9218 40.876 47.6258 41.188C47.3378 41.492 47.1618 41.892 47.0978 42.388ZM54.6999 43.588V46H53.2479V39.664H54.6999V41.092C54.8999 40.612 55.1839 40.228 55.5519 39.94C55.9199 39.652 56.3839 39.52 56.9439 39.544V41.08H56.8599C56.5399 41.08 56.2479 41.132 55.9839 41.236C55.7199 41.34 55.4919 41.496 55.2999 41.704C55.1079 41.912 54.9599 42.176 54.8559 42.496C54.7519 42.808 54.6999 43.172 54.6999 43.588ZM59.789 38.692H58.229V37.312H59.789V38.692ZM59.741 46H58.289V39.664H59.741V46ZM63.0906 42.424V46H61.6386V39.664H63.0906V40.648C63.1946 40.496 63.3066 40.356 63.4266 40.228C63.5546 40.092 63.6986 39.972 63.8586 39.868C64.0266 39.764 64.2066 39.684 64.3986 39.628C64.5986 39.564 64.8226 39.532 65.0706 39.532C65.7906 39.532 66.3466 39.752 66.7386 40.192C67.1306 40.632 67.3266 41.224 67.3266 41.968V46H65.8746V42.4C65.8746 41.904 65.7546 41.524 65.5146 41.26C65.2826 40.988 64.9506 40.852 64.5186 40.852C64.0946 40.852 63.7506 40.992 63.4866 41.272C63.2226 41.544 63.0906 41.928 63.0906 42.424ZM75.308 44.704C75.308 45.824 75.012 46.644 74.42 47.164C73.828 47.684 72.988 47.944 71.9 47.944C70.844 47.944 69.9 47.692 69.068 47.188L69.608 46.096C69.944 46.304 70.296 46.468 70.664 46.588C71.032 46.708 71.432 46.768 71.864 46.768C72.512 46.768 73.008 46.604 73.352 46.276C73.696 45.948 73.868 45.464 73.868 44.824V44.332C73.604 44.676 73.296 44.956 72.944 45.172C72.592 45.388 72.156 45.496 71.636 45.496C71.26 45.496 70.9 45.432 70.556 45.304C70.212 45.168 69.904 44.972 69.632 44.716C69.368 44.46 69.156 44.148 68.996 43.78C68.836 43.412 68.756 42.992 68.756 42.52C68.756 42.048 68.836 41.628 68.996 41.26C69.156 40.892 69.368 40.58 69.632 40.324C69.904 40.068 70.212 39.872 70.556 39.736C70.908 39.6 71.268 39.532 71.636 39.532C72.172 39.532 72.612 39.64 72.956 39.856C73.308 40.064 73.608 40.316 73.856 40.612V39.664H75.308V44.704ZM73.88 42.52C73.88 42.256 73.828 42.016 73.724 41.8C73.628 41.576 73.496 41.388 73.328 41.236C73.16 41.084 72.96 40.968 72.728 40.888C72.504 40.8 72.268 40.756 72.02 40.756C71.764 40.756 71.528 40.8 71.312 40.888C71.096 40.968 70.904 41.084 70.736 41.236C70.576 41.388 70.448 41.572 70.352 41.788C70.264 42.004 70.22 42.244 70.22 42.508C70.22 42.772 70.268 43.012 70.364 43.228C70.46 43.444 70.588 43.632 70.748 43.792C70.908 43.944 71.096 44.064 71.312 44.152C71.536 44.232 71.772 44.272 72.02 44.272C72.268 44.272 72.504 44.232 72.728 44.152C72.96 44.064 73.16 43.944 73.328 43.792C73.496 43.632 73.628 43.448 73.724 43.24C73.828 43.024 73.88 42.784 73.88 42.52ZM85.9847 40.648C86.2407 40.312 86.5407 40.044 86.8847 39.844C87.2367 39.636 87.6527 39.532 88.1327 39.532C88.8287 39.532 89.3727 39.744 89.7647 40.168C90.1567 40.584 90.3527 41.18 90.3527 41.956V46H88.9007V42.4C88.9007 41.896 88.7887 41.512 88.5647 41.248C88.3407 40.984 88.0247 40.852 87.6167 40.852C87.2167 40.852 86.8887 40.988 86.6327 41.26C86.3847 41.524 86.2607 41.912 86.2607 42.424V46H84.8087V42.388C84.8087 41.892 84.6967 41.512 84.4727 41.248C84.2487 40.984 83.9327 40.852 83.5247 40.852C83.1167 40.852 82.7887 40.992 82.5407 41.272C82.2927 41.552 82.1687 41.94 82.1687 42.436V46H80.7167V39.664H82.1687V40.624C82.2727 40.48 82.3847 40.344 82.5047 40.216C82.6247 40.088 82.7607 39.972 82.9127 39.868C83.0727 39.764 83.2487 39.684 83.4407 39.628C83.6407 39.564 83.8607 39.532 84.1007 39.532C84.5567 39.532 84.9407 39.636 85.2527 39.844C85.5727 40.044 85.8167 40.312 85.9847 40.648ZM93.703 38.692H92.143V37.312H93.703V38.692ZM93.655 46H92.203V39.664H93.655V46ZM97.0046 42.424V46H95.5526V39.664H97.0046V40.648C97.1086 40.496 97.2206 40.356 97.3406 40.228C97.4686 40.092 97.6126 39.972 97.7726 39.868C97.9406 39.764 98.1206 39.684 98.3126 39.628C98.5126 39.564 98.7366 39.532 98.9846 39.532C99.7046 39.532 100.261 39.752 100.653 40.192C101.045 40.632 101.241 41.224 101.241 41.968V46H99.7886V42.4C99.7886 41.904 99.6686 41.524 99.4286 41.26C99.1966 40.988 98.8646 40.852 98.4326 40.852C98.0086 40.852 97.6646 40.992 97.4006 41.272C97.1366 41.544 97.0046 41.928 97.0046 42.424ZM109.222 46H107.77V44.944C107.538 45.272 107.246 45.552 106.894 45.784C106.55 46.016 106.122 46.132 105.61 46.132C105.234 46.132 104.87 46.06 104.518 45.916C104.166 45.772 103.854 45.56 103.582 45.28C103.31 44.992 103.09 44.644 102.922 44.236C102.754 43.828 102.67 43.36 102.67 42.832C102.67 42.304 102.75 41.836 102.91 41.428C103.078 41.02 103.298 40.676 103.57 40.396C103.842 40.108 104.154 39.892 104.506 39.748C104.866 39.604 105.234 39.532 105.61 39.532C106.13 39.532 106.562 39.644 106.906 39.868C107.25 40.092 107.538 40.352 107.77 40.648V37.24H109.222V46ZM107.794 42.832C107.794 42.52 107.742 42.24 107.638 41.992C107.542 41.744 107.41 41.532 107.242 41.356C107.074 41.172 106.878 41.032 106.654 40.936C106.43 40.84 106.198 40.792 105.958 40.792C105.71 40.792 105.474 40.84 105.25 40.936C105.034 41.024 104.842 41.156 104.674 41.332C104.506 41.508 104.374 41.724 104.278 41.98C104.182 42.228 104.134 42.512 104.134 42.832C104.134 43.144 104.182 43.428 104.278 43.684C104.374 43.932 104.506 44.144 104.674 44.32C104.842 44.496 105.034 44.632 105.25 44.728C105.474 44.824 105.71 44.872 105.958 44.872C106.198 44.872 106.43 44.824 106.654 44.728C106.878 44.632 107.074 44.496 107.242 44.32C107.41 44.136 107.542 43.92 107.638 43.672C107.742 43.424 107.794 43.144 107.794 42.832ZM115.557 44.128C115.557 44.464 115.497 44.756 115.377 45.004C115.257 45.252 115.089 45.46 114.873 45.628C114.665 45.788 114.417 45.912 114.129 46C113.841 46.08 113.533 46.12 113.205 46.12C112.749 46.12 112.285 46.04 111.813 45.88C111.349 45.72 110.917 45.484 110.517 45.172L111.165 44.188C111.509 44.444 111.857 44.64 112.209 44.776C112.569 44.904 112.913 44.968 113.241 44.968C113.553 44.968 113.793 44.908 113.961 44.788C114.137 44.66 114.225 44.492 114.225 44.284V44.26C114.225 44.14 114.185 44.036 114.105 43.948C114.033 43.86 113.929 43.784 113.793 43.72C113.665 43.648 113.513 43.588 113.337 43.54C113.169 43.484 112.993 43.428 112.809 43.372C112.577 43.3 112.341 43.22 112.101 43.132C111.869 43.044 111.657 42.932 111.465 42.796C111.281 42.652 111.129 42.48 111.009 42.28C110.889 42.072 110.829 41.816 110.829 41.512V41.488C110.829 41.192 110.885 40.924 110.997 40.684C111.117 40.444 111.277 40.24 111.477 40.072C111.685 39.904 111.925 39.776 112.197 39.688C112.477 39.6 112.773 39.556 113.085 39.556C113.485 39.556 113.889 39.62 114.297 39.748C114.705 39.876 115.077 40.052 115.413 40.276L114.837 41.308C114.533 41.124 114.225 40.98 113.913 40.876C113.601 40.764 113.313 40.708 113.049 40.708C112.769 40.708 112.549 40.768 112.389 40.888C112.237 41.008 112.161 41.16 112.161 41.344V41.368C112.161 41.48 112.201 41.58 112.281 41.668C112.361 41.748 112.465 41.824 112.593 41.896C112.729 41.96 112.881 42.024 113.049 42.088C113.225 42.144 113.405 42.2 113.589 42.256C113.821 42.328 114.053 42.412 114.285 42.508C114.517 42.604 114.725 42.724 114.909 42.868C115.101 43.004 115.257 43.172 115.377 43.372C115.497 43.572 115.557 43.816 115.557 44.104V44.128ZM116.529 47.128C117.265 46.984 117.605 46.608 117.549 46H116.937V44.356H118.533V45.748C118.533 46.42 118.377 46.908 118.065 47.212C117.753 47.516 117.293 47.692 116.685 47.74L116.529 47.128ZM127.573 38.968V46H126.085V38.968H123.421V37.6H130.237V38.968H127.573ZM132.219 43.588V46H130.767V39.664H132.219V41.092C132.419 40.612 132.703 40.228 133.071 39.94C133.439 39.652 133.903 39.52 134.463 39.544V41.08H134.379C134.059 41.08 133.767 41.132 133.503 41.236C133.239 41.34 133.011 41.496 132.819 41.704C132.627 41.912 132.479 42.176 132.375 42.496C132.271 42.808 132.219 43.172 132.219 43.588ZM140.736 46H139.296V45.22C139.08 45.476 138.804 45.692 138.468 45.868C138.132 46.044 137.724 46.132 137.244 46.132C136.94 46.132 136.652 46.088 136.38 46C136.108 45.92 135.868 45.8 135.66 45.64C135.46 45.472 135.296 45.268 135.168 45.028C135.048 44.78 134.988 44.496 134.988 44.176V44.152C134.988 43.808 135.052 43.508 135.18 43.252C135.308 42.996 135.484 42.784 135.708 42.616C135.94 42.448 136.212 42.324 136.524 42.244C136.844 42.156 137.188 42.112 137.556 42.112C137.94 42.112 138.264 42.136 138.528 42.184C138.8 42.232 139.06 42.296 139.308 42.376V42.22C139.308 41.78 139.172 41.444 138.9 41.212C138.636 40.98 138.252 40.864 137.748 40.864C137.388 40.864 137.068 40.9 136.788 40.972C136.508 41.044 136.224 41.14 135.936 41.26L135.54 40.096C135.892 39.936 136.252 39.808 136.62 39.712C136.988 39.616 137.432 39.568 137.952 39.568C138.896 39.568 139.596 39.804 140.052 40.276C140.508 40.74 140.736 41.396 140.736 42.244V46ZM139.332 43.708V43.312C139.148 43.24 138.928 43.18 138.672 43.132C138.424 43.084 138.16 43.06 137.88 43.06C137.424 43.06 137.068 43.148 136.812 43.324C136.556 43.5 136.428 43.752 136.428 44.08V44.104C136.428 44.408 136.544 44.64 136.776 44.8C137.016 44.96 137.308 45.04 137.652 45.04C137.892 45.04 138.112 45.008 138.312 44.944C138.52 44.88 138.7 44.792 138.852 44.68C139.004 44.56 139.12 44.42 139.2 44.26C139.288 44.092 139.332 43.908 139.332 43.708ZM143.915 42.424V46H142.463V39.664H143.915V40.648C144.019 40.496 144.131 40.356 144.251 40.228C144.379 40.092 144.523 39.972 144.683 39.868C144.851 39.764 145.031 39.684 145.223 39.628C145.423 39.564 145.647 39.532 145.895 39.532C146.615 39.532 147.171 39.752 147.563 40.192C147.955 40.632 148.151 41.224 148.151 41.968V46H146.699V42.4C146.699 41.904 146.579 41.524 146.339 41.26C146.107 40.988 145.775 40.852 145.343 40.852C144.919 40.852 144.575 40.992 144.311 41.272C144.047 41.544 143.915 41.928 143.915 42.424ZM154.428 44.128C154.428 44.464 154.368 44.756 154.248 45.004C154.128 45.252 153.96 45.46 153.744 45.628C153.536 45.788 153.288 45.912 153 46C152.712 46.08 152.404 46.12 152.076 46.12C151.62 46.12 151.156 46.04 150.684 45.88C150.22 45.72 149.788 45.484 149.388 45.172L150.036 44.188C150.38 44.444 150.728 44.64 151.08 44.776C151.44 44.904 151.784 44.968 152.112 44.968C152.424 44.968 152.664 44.908 152.832 44.788C153.008 44.66 153.096 44.492 153.096 44.284V44.26C153.096 44.14 153.056 44.036 152.976 43.948C152.904 43.86 152.8 43.784 152.664 43.72C152.536 43.648 152.384 43.588 152.208 43.54C152.04 43.484 151.864 43.428 151.68 43.372C151.448 43.3 151.212 43.22 150.972 43.132C150.74 43.044 150.528 42.932 150.336 42.796C150.152 42.652 150 42.48 149.88 42.28C149.76 42.072 149.7 41.816 149.7 41.512V41.488C149.7 41.192 149.756 40.924 149.868 40.684C149.988 40.444 150.148 40.24 150.348 40.072C150.556 39.904 150.796 39.776 151.068 39.688C151.348 39.6 151.644 39.556 151.956 39.556C152.356 39.556 152.76 39.62 153.168 39.748C153.576 39.876 153.948 40.052 154.284 40.276L153.708 41.308C153.404 41.124 153.096 40.98 152.784 40.876C152.472 40.764 152.184 40.708 151.92 40.708C151.64 40.708 151.42 40.768 151.26 40.888C151.108 41.008 151.032 41.16 151.032 41.344V41.368C151.032 41.48 151.072 41.58 151.152 41.668C151.232 41.748 151.336 41.824 151.464 41.896C151.6 41.96 151.752 42.024 151.92 42.088C152.096 42.144 152.276 42.2 152.46 42.256C152.692 42.328 152.924 42.412 153.156 42.508C153.388 42.604 153.596 42.724 153.78 42.868C153.972 43.004 154.128 43.172 154.248 43.372C154.368 43.572 154.428 43.816 154.428 44.104V44.128ZM157.656 39.712H159.336V40.912H157.68V46H156.228V40.912H155.424V39.7H156.228V39.244C156.228 38.54 156.396 38.02 156.732 37.684C157.068 37.34 157.548 37.168 158.172 37.168C158.428 37.168 158.648 37.184 158.832 37.216C159.016 37.248 159.188 37.288 159.348 37.336V38.56C159.204 38.512 159.064 38.476 158.928 38.452C158.8 38.42 158.656 38.404 158.496 38.404C157.936 38.404 157.656 38.724 157.656 39.364V39.712ZM166.707 42.832C166.707 43.288 166.619 43.716 166.443 44.116C166.275 44.516 166.039 44.868 165.735 45.172C165.439 45.468 165.083 45.704 164.667 45.88C164.251 46.056 163.799 46.144 163.311 46.144C162.831 46.144 162.383 46.06 161.967 45.892C161.559 45.716 161.203 45.48 160.899 45.184C160.603 44.88 160.371 44.532 160.203 44.14C160.035 43.74 159.951 43.312 159.951 42.856C159.951 42.4 160.035 41.972 160.203 41.572C160.379 41.164 160.615 40.812 160.911 40.516C161.215 40.212 161.571 39.972 161.979 39.796C162.395 39.62 162.847 39.532 163.335 39.532C163.823 39.532 164.271 39.62 164.679 39.796C165.095 39.964 165.451 40.2 165.747 40.504C166.051 40.8 166.287 41.148 166.455 41.548C166.623 41.948 166.707 42.376 166.707 42.832ZM165.255 42.856C165.255 42.576 165.207 42.312 165.111 42.064C165.015 41.816 164.879 41.6 164.703 41.416C164.535 41.224 164.331 41.076 164.091 40.972C163.859 40.86 163.599 40.804 163.311 40.804C163.023 40.804 162.759 40.86 162.519 40.972C162.287 41.076 162.087 41.22 161.919 41.404C161.751 41.588 161.623 41.804 161.535 42.052C161.447 42.292 161.403 42.552 161.403 42.832C161.403 43.112 161.451 43.38 161.547 43.636C161.643 43.884 161.775 44.1 161.943 44.284C162.119 44.468 162.323 44.616 162.555 44.728C162.795 44.832 163.055 44.884 163.335 44.884C163.631 44.884 163.895 44.832 164.127 44.728C164.367 44.616 164.571 44.468 164.739 44.284C164.907 44.1 165.035 43.888 165.123 43.648C165.211 43.4 165.255 43.136 165.255 42.856ZM169.637 43.588V46H168.185V39.664H169.637V41.092C169.837 40.612 170.121 40.228 170.489 39.94C170.857 39.652 171.321 39.52 171.881 39.544V41.08H171.797C171.477 41.08 171.185 41.132 170.921 41.236C170.657 41.34 170.429 41.496 170.237 41.704C170.045 41.912 169.897 42.176 169.793 42.496C169.689 42.808 169.637 43.172 169.637 43.588ZM178.41 40.648C178.666 40.312 178.966 40.044 179.31 39.844C179.662 39.636 180.078 39.532 180.558 39.532C181.254 39.532 181.798 39.744 182.19 40.168C182.582 40.584 182.778 41.18 182.778 41.956V46H181.326V42.4C181.326 41.896 181.214 41.512 180.99 41.248C180.766 40.984 180.45 40.852 180.042 40.852C179.642 40.852 179.314 40.988 179.058 41.26C178.81 41.524 178.686 41.912 178.686 42.424V46H177.234V42.388C177.234 41.892 177.122 41.512 176.898 41.248C176.674 40.984 176.358 40.852 175.95 40.852C175.542 40.852 175.214 40.992 174.966 41.272C174.718 41.552 174.594 41.94 174.594 42.436V46H173.142V39.664H174.594V40.624C174.698 40.48 174.81 40.344 174.93 40.216C175.05 40.088 175.186 39.972 175.338 39.868C175.498 39.764 175.674 39.684 175.866 39.628C176.066 39.564 176.286 39.532 176.526 39.532C176.982 39.532 177.366 39.636 177.678 39.844C177.998 40.044 178.242 40.312 178.41 40.648ZM186.129 38.692H184.569V37.312H186.129V38.692ZM186.081 46H184.629V39.664H186.081V46ZM189.43 42.424V46H187.978V39.664H189.43V40.648C189.534 40.496 189.646 40.356 189.766 40.228C189.894 40.092 190.038 39.972 190.198 39.868C190.366 39.764 190.546 39.684 190.738 39.628C190.938 39.564 191.162 39.532 191.41 39.532C192.13 39.532 192.686 39.752 193.078 40.192C193.47 40.632 193.666 41.224 193.666 41.968V46H192.214V42.4C192.214 41.904 192.094 41.524 191.854 41.26C191.622 40.988 191.29 40.852 190.858 40.852C190.434 40.852 190.09 40.992 189.826 41.272C189.562 41.544 189.43 41.928 189.43 42.424ZM201.648 44.704C201.648 45.824 201.352 46.644 200.76 47.164C200.168 47.684 199.328 47.944 198.24 47.944C197.184 47.944 196.24 47.692 195.408 47.188L195.948 46.096C196.284 46.304 196.636 46.468 197.004 46.588C197.372 46.708 197.772 46.768 198.204 46.768C198.852 46.768 199.348 46.604 199.692 46.276C200.036 45.948 200.208 45.464 200.208 44.824V44.332C199.944 44.676 199.636 44.956 199.284 45.172C198.932 45.388 198.496 45.496 197.976 45.496C197.6 45.496 197.24 45.432 196.896 45.304C196.552 45.168 196.244 44.972 195.972 44.716C195.708 44.46 195.496 44.148 195.336 43.78C195.176 43.412 195.096 42.992 195.096 42.52C195.096 42.048 195.176 41.628 195.336 41.26C195.496 40.892 195.708 40.58 195.972 40.324C196.244 40.068 196.552 39.872 196.896 39.736C197.248 39.6 197.608 39.532 197.976 39.532C198.512 39.532 198.952 39.64 199.296 39.856C199.648 40.064 199.948 40.316 200.196 40.612V39.664H201.648V44.704ZM200.22 42.52C200.22 42.256 200.168 42.016 200.064 41.8C199.968 41.576 199.836 41.388 199.668 41.236C199.5 41.084 199.3 40.968 199.068 40.888C198.844 40.8 198.608 40.756 198.36 40.756C198.104 40.756 197.868 40.8 197.652 40.888C197.436 40.968 197.244 41.084 197.076 41.236C196.916 41.388 196.788 41.572 196.692 41.788C196.604 42.004 196.56 42.244 196.56 42.508C196.56 42.772 196.608 43.012 196.704 43.228C196.8 43.444 196.928 43.632 197.088 43.792C197.248 43.944 197.436 44.064 197.652 44.152C197.876 44.232 198.112 44.272 198.36 44.272C198.608 44.272 198.844 44.232 199.068 44.152C199.3 44.064 199.5 43.944 199.668 43.792C199.836 43.632 199.968 43.448 200.064 43.24C200.168 43.024 200.22 42.784 200.22 42.52ZM208.593 46H207.141V37.24H208.593V46ZM212.074 38.692H210.514V37.312H212.074V38.692ZM212.026 46H210.574V39.664H212.026V46ZM216.588 44.32L218.304 39.664H219.828L217.236 46.048H215.928L213.324 39.664H214.884L216.588 44.32ZM221.801 43.348C221.889 43.868 222.097 44.268 222.425 44.548C222.753 44.82 223.153 44.956 223.625 44.956C223.985 44.956 224.297 44.892 224.561 44.764C224.825 44.636 225.085 44.448 225.341 44.2L226.193 44.956C225.889 45.316 225.525 45.604 225.101 45.82C224.685 46.036 224.185 46.144 223.601 46.144C223.145 46.144 222.717 46.064 222.317 45.904C221.925 45.744 221.581 45.52 221.285 45.232C220.997 44.944 220.769 44.6 220.601 44.2C220.433 43.792 220.349 43.34 220.349 42.844C220.349 42.388 220.425 41.96 220.577 41.56C220.729 41.16 220.941 40.812 221.213 40.516C221.493 40.212 221.821 39.972 222.197 39.796C222.573 39.62 222.989 39.532 223.445 39.532C223.949 39.532 224.389 39.624 224.765 39.808C225.149 39.992 225.465 40.24 225.713 40.552C225.969 40.864 226.161 41.228 226.289 41.644C226.417 42.06 226.481 42.496 226.481 42.952C226.481 43.016 226.477 43.08 226.469 43.144C226.469 43.208 226.465 43.276 226.457 43.348H221.801ZM221.789 42.388H225.041C225.017 42.156 224.965 41.94 224.885 41.74C224.805 41.532 224.697 41.356 224.561 41.212C224.425 41.06 224.261 40.94 224.069 40.852C223.885 40.764 223.673 40.72 223.433 40.72C222.985 40.72 222.613 40.876 222.317 41.188C222.029 41.492 221.853 41.892 221.789 42.388ZM232.463 44.128C232.463 44.464 232.403 44.756 232.283 45.004C232.163 45.252 231.995 45.46 231.779 45.628C231.571 45.788 231.323 45.912 231.035 46C230.747 46.08 230.439 46.12 230.111 46.12C229.655 46.12 229.191 46.04 228.719 45.88C228.255 45.72 227.823 45.484 227.423 45.172L228.071 44.188C228.415 44.444 228.763 44.64 229.115 44.776C229.475 44.904 229.819 44.968 230.147 44.968C230.459 44.968 230.699 44.908 230.867 44.788C231.043 44.66 231.131 44.492 231.131 44.284V44.26C231.131 44.14 231.091 44.036 231.011 43.948C230.939 43.86 230.835 43.784 230.699 43.72C230.571 43.648 230.419 43.588 230.243 43.54C230.075 43.484 229.899 43.428 229.715 43.372C229.483 43.3 229.247 43.22 229.007 43.132C228.775 43.044 228.563 42.932 228.371 42.796C228.187 42.652 228.035 42.48 227.915 42.28C227.795 42.072 227.735 41.816 227.735 41.512V41.488C227.735 41.192 227.791 40.924 227.903 40.684C228.023 40.444 228.183 40.24 228.383 40.072C228.591 39.904 228.831 39.776 229.103 39.688C229.383 39.6 229.679 39.556 229.991 39.556C230.391 39.556 230.795 39.62 231.203 39.748C231.611 39.876 231.983 40.052 232.319 40.276L231.743 41.308C231.439 41.124 231.131 40.98 230.819 40.876C230.507 40.764 230.219 40.708 229.955 40.708C229.675 40.708 229.455 40.768 229.295 40.888C229.143 41.008 229.067 41.16 229.067 41.344V41.368C229.067 41.48 229.107 41.58 229.187 41.668C229.267 41.748 229.371 41.824 229.499 41.896C229.635 41.96 229.787 42.024 229.955 42.088C230.131 42.144 230.311 42.2 230.495 42.256C230.727 42.328 230.959 42.412 231.191 42.508C231.423 42.604 231.631 42.724 231.815 42.868C232.007 43.004 232.163 43.172 232.283 43.372C232.403 43.572 232.463 43.816 232.463 44.104V44.128Z" fill="#0E3845" fill-opacity="0.8"/>
<path d="M24.512 30H19.36L17.312 24.976H7.84L5.792 30H0.768L10.368 7.44H14.912L24.512 30ZM15.552 20.624L12.576 13.36L9.6 20.624H15.552ZM47.8733 30H43.6813L32.8333 15.76V30H27.9693V7.6H32.5133L43.0093 21.392V7.6H47.8733V30ZM72.4185 20.24C72.4185 27.024 68.6105 30.352 62.5945 30.352C56.5785 30.352 52.8985 26.992 52.8985 20.4V7.6H57.8265V20.272C57.8265 23.92 59.6505 25.808 62.6585 25.808C65.6665 25.808 67.4905 23.984 67.4905 20.432V7.6H72.4185V20.24ZM93.63 23.376C93.63 27.824 90.238 30.32 85.406 30.32C82.014 30.32 78.59 29.136 75.902 26.736L78.814 23.248C80.83 24.912 82.942 25.968 85.502 25.968C87.518 25.968 88.734 25.168 88.734 23.856V23.792C88.734 22.544 87.966 21.904 84.222 20.944C79.71 19.792 76.798 18.544 76.798 14.096V14.032C76.798 9.968 80.062 7.28 84.638 7.28C87.902 7.28 90.686 8.304 92.958 10.128L90.398 13.84C88.414 12.464 86.462 11.632 84.574 11.632C82.686 11.632 81.694 12.496 81.694 13.584V13.648C81.694 15.12 82.654 15.6 86.526 16.592C91.07 17.776 93.63 19.408 93.63 23.312V23.376ZM116.851 30H111.923V21.008H102.835V30H97.9068V7.6H102.835V16.464H111.923V7.6H116.851V30ZM141.579 30H135.819L131.019 22.832H127.147V30H122.219V7.6H132.459C137.739 7.6 140.907 10.384 140.907 14.992V15.056C140.907 18.672 138.955 20.944 136.107 22L141.579 30ZM135.915 15.312V15.248C135.915 13.136 134.443 12.048 132.043 12.048H127.147V18.48H132.139C134.539 18.48 135.915 17.2 135.915 15.312ZM164.512 20.24C164.512 27.024 160.704 30.352 154.688 30.352C148.672 30.352 144.992 26.992 144.992 20.4V7.6H149.92V20.272C149.92 23.92 151.744 25.808 154.752 25.808C157.76 25.808 159.584 23.984 159.584 20.432V7.6H164.512V20.24ZM186.492 12.144H179.676V30H174.748V12.144H167.932V7.6H186.492V12.144ZM195.434 30H190.506V7.6H195.434V30Z" fill="#0E3845"/>
</svg>
