<svg width="1080" height="400" viewBox="0 0 1080 400" fill="none" xmlns="http://www.w3.org/2000/svg">
<path d="M22.2363 241.367V245.382H7.77721V252.025H20.5932V256.04H7.77721V262.902H22.4189V266.917H3.28613V241.367H22.2363ZM43.2649 250.638C44.0439 249.616 44.9567 248.801 46.0034 248.192C47.0744 247.56 48.3402 247.243 49.8007 247.243C51.9185 247.243 53.5737 247.888 54.7665 249.178C55.9592 250.443 56.5556 252.256 56.5556 254.616V266.917H52.1375V255.967C52.1375 254.434 51.7968 253.266 51.1152 252.463C50.4336 251.66 49.4721 251.258 48.2307 251.258C47.0136 251.258 46.0156 251.672 45.2366 252.499C44.482 253.302 44.1047 254.482 44.1047 256.04V266.917H39.6867V255.93C39.6867 254.422 39.3459 253.266 38.6643 252.463C37.9827 251.66 37.0212 251.258 35.7798 251.258C34.5384 251.258 33.5404 251.684 32.7858 252.536C32.0312 253.387 31.6539 254.568 31.6539 256.076V266.917H27.2357V247.645H31.6539V250.565C31.9703 250.127 32.3111 249.713 32.6762 249.324C33.0413 248.934 33.4552 248.582 33.9177 248.265C34.4045 247.949 34.94 247.706 35.5242 247.535C36.1328 247.341 36.8022 247.243 37.5324 247.243C38.9199 247.243 40.0883 247.56 41.0377 248.192C42.0113 248.801 42.7538 249.616 43.2649 250.638ZM81.866 257.281C81.866 258.887 81.6104 260.31 81.0992 261.551C80.6124 262.792 79.943 263.851 79.091 264.727C78.2634 265.578 77.3019 266.223 76.2065 266.661C75.1355 267.099 74.0279 267.318 72.8838 267.318C71.3016 267.318 69.9871 266.978 68.9404 266.296C67.8937 265.615 67.0296 264.824 66.348 263.924V272.757H61.93V247.645H66.348V250.857C67.054 249.835 67.9303 248.983 68.977 248.302C70.0237 247.596 71.3259 247.243 72.8838 247.243C74.0279 247.243 75.1355 247.462 76.2065 247.9C77.2775 248.338 78.2269 248.995 79.0545 249.871C79.9065 250.723 80.588 251.769 81.0992 253.01C81.6104 254.251 81.866 255.675 81.866 257.281ZM77.3749 257.281C77.3749 256.332 77.2289 255.48 76.9368 254.726C76.6447 253.947 76.243 253.29 75.7318 252.755C75.245 252.219 74.6608 251.806 73.9792 251.514C73.322 251.222 72.6161 251.076 71.8615 251.076C71.1069 251.076 70.3888 251.222 69.7072 251.514C69.0256 251.806 68.4293 252.232 67.9181 252.791C67.4069 253.327 66.9931 253.971 66.6767 254.726C66.3845 255.48 66.2385 256.332 66.2385 257.281C66.2385 258.23 66.3845 259.081 66.6767 259.836C66.9931 260.59 67.4069 261.247 67.9181 261.807C68.4293 262.342 69.0256 262.756 69.7072 263.048C70.3888 263.34 71.1069 263.486 71.8615 263.486C72.6161 263.486 73.322 263.34 73.9792 263.048C74.6608 262.756 75.245 262.342 75.7318 261.807C76.243 261.271 76.6447 260.627 76.9368 259.872C77.2289 259.094 77.3749 258.23 77.3749 257.281ZM105.889 257.281C105.889 258.668 105.621 259.97 105.085 261.186C104.574 262.403 103.856 263.474 102.931 264.398C102.03 265.299 100.947 266.016 99.6815 266.552C98.4157 267.087 97.0404 267.355 95.5556 267.355C94.095 267.355 92.7319 267.099 91.4661 266.588C90.2247 266.053 89.1415 265.335 88.2165 264.435C87.3158 263.51 86.6099 262.452 86.0987 261.259C85.5876 260.043 85.332 258.741 85.332 257.354C85.332 255.967 85.5876 254.665 86.0987 253.448C86.6343 252.207 87.3523 251.137 88.253 250.236C89.178 249.312 90.2612 248.582 91.5026 248.046C92.7684 247.511 94.1437 247.243 95.6286 247.243C97.1134 247.243 98.4766 247.511 99.718 248.046C100.984 248.557 102.067 249.275 102.968 250.2C103.893 251.1 104.611 252.159 105.122 253.375C105.633 254.592 105.889 255.894 105.889 257.281ZM101.471 257.354C101.471 256.502 101.325 255.699 101.032 254.945C100.74 254.19 100.327 253.533 99.791 252.974C99.2799 252.39 98.6591 251.94 97.9289 251.623C97.223 251.283 96.4319 251.112 95.5556 251.112C94.6792 251.112 93.876 251.283 93.1457 251.623C92.4398 251.94 91.8312 252.378 91.3201 252.937C90.8089 253.497 90.4194 254.154 90.1517 254.908C89.8839 255.638 89.75 256.429 89.75 257.281C89.75 258.132 89.8961 258.948 90.1882 259.726C90.4803 260.481 90.8819 261.138 91.3931 261.697C91.9286 262.257 92.5493 262.707 93.2552 263.048C93.9855 263.364 94.7766 263.522 95.6286 263.522C96.5292 263.522 97.3325 263.364 98.0384 263.048C98.7687 262.707 99.3894 262.257 99.9006 261.697C100.412 261.138 100.801 260.493 101.069 259.763C101.337 259.008 101.471 258.205 101.471 257.354ZM124.285 247.572L128.594 260.858L132.537 247.645H136.955L130.638 267.063H126.695L122.386 253.886L118.041 267.063H114.098L107.854 247.645H112.382L116.252 260.858L120.524 247.572H124.285ZM143.343 258.85C143.61 260.432 144.243 261.649 145.241 262.5C146.239 263.328 147.456 263.741 148.893 263.741C149.988 263.741 150.937 263.547 151.741 263.157C152.544 262.768 153.335 262.196 154.114 261.442L156.706 263.741C155.781 264.836 154.674 265.712 153.384 266.369C152.118 267.026 150.597 267.355 148.82 267.355C147.432 267.355 146.13 267.111 144.913 266.625C143.72 266.138 142.673 265.457 141.773 264.581C140.896 263.705 140.203 262.658 139.691 261.442C139.18 260.201 138.925 258.826 138.925 257.317C138.925 255.93 139.156 254.628 139.618 253.412C140.081 252.195 140.726 251.137 141.553 250.236C142.405 249.312 143.403 248.582 144.548 248.046C145.692 247.511 146.957 247.243 148.345 247.243C149.878 247.243 151.217 247.523 152.361 248.083C153.53 248.642 154.491 249.397 155.246 250.346C156.025 251.295 156.609 252.402 156.998 253.667C157.388 254.933 157.583 256.259 157.583 257.646C157.583 257.84 157.57 258.035 157.546 258.23C157.546 258.424 157.534 258.631 157.51 258.85H143.343ZM143.306 255.93H153.201C153.128 255.225 152.97 254.568 152.726 253.959C152.483 253.327 152.154 252.791 151.741 252.353C151.327 251.891 150.828 251.526 150.244 251.258C149.684 250.991 149.039 250.857 148.308 250.857C146.945 250.857 145.813 251.331 144.913 252.28C144.036 253.205 143.501 254.422 143.306 255.93ZM166.437 259.58V266.917H162.019V247.645H166.437V251.988C167.046 250.528 167.91 249.36 169.03 248.484C170.149 247.608 171.561 247.207 173.265 247.28V251.952H173.01C172.036 251.952 171.147 252.11 170.344 252.426C169.541 252.743 168.847 253.217 168.263 253.85C167.679 254.482 167.228 255.285 166.912 256.259C166.596 257.208 166.437 258.315 166.437 259.58ZM181.922 244.688H177.175V240.491H181.922V244.688ZM181.776 266.917H177.358V247.645H181.776V266.917ZM191.968 256.04V266.917H187.55V247.645H191.968V250.638C192.284 250.175 192.625 249.75 192.99 249.36C193.38 248.947 193.818 248.582 194.305 248.265C194.816 247.949 195.364 247.706 195.948 247.535C196.556 247.341 197.238 247.243 197.993 247.243C200.183 247.243 201.875 247.912 203.068 249.251C204.261 250.589 204.857 252.39 204.857 254.653V266.917H200.439V255.967C200.439 254.458 200.074 253.302 199.344 252.499C198.638 251.672 197.627 251.258 196.313 251.258C195.023 251.258 193.976 251.684 193.173 252.536C192.37 253.363 191.968 254.531 191.968 256.04ZM229.142 262.975C229.142 266.381 228.242 268.876 226.44 270.457C224.639 272.039 222.083 272.83 218.773 272.83C215.56 272.83 212.687 272.063 210.156 270.53L211.799 267.209C212.821 267.841 213.892 268.34 215.012 268.705C216.132 269.07 217.349 269.253 218.663 269.253C220.635 269.253 222.144 268.754 223.191 267.756C224.237 266.759 224.761 265.286 224.761 263.34V261.843C223.957 262.89 223.02 263.741 221.949 264.398C220.878 265.055 219.552 265.384 217.969 265.384C216.825 265.384 215.73 265.189 214.683 264.8C213.636 264.386 212.699 263.79 211.872 263.011C211.068 262.233 210.423 261.284 209.937 260.164C209.45 259.045 209.206 257.767 209.206 256.332C209.206 254.896 209.45 253.619 209.937 252.499C210.423 251.38 211.068 250.431 211.872 249.652C212.699 248.874 213.636 248.277 214.683 247.864C215.754 247.45 216.85 247.243 217.969 247.243C219.6 247.243 220.939 247.572 221.986 248.229C223.057 248.861 223.97 249.628 224.724 250.528V247.645H229.142V262.975ZM224.797 256.332C224.797 255.529 224.639 254.799 224.323 254.142C224.03 253.46 223.629 252.889 223.118 252.426C222.606 251.964 221.998 251.611 221.292 251.368C220.61 251.1 219.892 250.966 219.138 250.966C218.359 250.966 217.641 251.1 216.983 251.368C216.326 251.611 215.742 251.964 215.231 252.426C214.744 252.889 214.355 253.448 214.062 254.105C213.795 254.762 213.661 255.492 213.661 256.295C213.661 257.098 213.807 257.828 214.099 258.485C214.391 259.142 214.781 259.714 215.267 260.201C215.754 260.663 216.326 261.028 216.983 261.296C217.665 261.539 218.383 261.661 219.138 261.661C219.892 261.661 220.61 261.539 221.292 261.296C221.998 261.028 222.606 260.663 223.118 260.201C223.629 259.714 224.03 259.154 224.323 258.522C224.639 257.865 224.797 257.135 224.797 256.332ZM261.629 250.638C262.408 249.616 263.32 248.801 264.367 248.192C265.438 247.56 266.704 247.243 268.164 247.243C270.282 247.243 271.937 247.888 273.13 249.178C274.323 250.443 274.919 252.256 274.919 254.616V266.917H270.501V255.967C270.501 254.434 270.16 253.266 269.479 252.463C268.797 251.66 267.836 251.258 266.594 251.258C265.377 251.258 264.379 251.672 263.6 252.499C262.846 253.302 262.468 254.482 262.468 256.04V266.917H258.05V255.93C258.05 254.422 257.71 253.266 257.028 252.463C256.346 251.66 255.385 251.258 254.143 251.258C252.902 251.258 251.904 251.684 251.149 252.536C250.395 253.387 250.018 254.568 250.018 256.076V266.917H245.6V247.645H250.018V250.565C250.334 250.127 250.675 249.713 251.04 249.324C251.405 248.934 251.819 248.582 252.281 248.265C252.768 247.949 253.304 247.706 253.888 247.535C254.496 247.341 255.166 247.243 255.896 247.243C257.284 247.243 258.452 247.56 259.401 248.192C260.375 248.801 261.117 249.616 261.629 250.638ZM285.113 244.688H280.367V240.491H285.113V244.688ZM284.967 266.917H280.549V247.645H284.967V266.917ZM295.159 256.04V266.917H290.741V247.645H295.159V250.638C295.476 250.175 295.817 249.75 296.182 249.36C296.571 248.947 297.009 248.582 297.496 248.265C298.007 247.949 298.555 247.706 299.139 247.535C299.748 247.341 300.429 247.243 301.184 247.243C303.375 247.243 305.068 247.912 306.26 249.251C307.453 250.589 308.05 252.39 308.05 254.653V266.917H303.63V255.967C303.63 254.458 303.265 253.302 302.535 252.499C301.829 251.672 300.819 251.258 299.504 251.258C298.214 251.258 297.167 251.684 296.364 252.536C295.561 253.363 295.159 254.531 295.159 256.04ZM332.334 266.917H327.916V263.705C327.21 264.702 326.321 265.554 325.25 266.26C324.203 266.965 322.901 267.318 321.343 267.318C320.199 267.318 319.092 267.099 318.021 266.661C316.95 266.223 316 265.578 315.173 264.727C314.345 263.851 313.676 262.792 313.164 261.551C312.653 260.31 312.398 258.887 312.398 257.281C312.398 255.675 312.641 254.251 313.128 253.01C313.639 251.769 314.308 250.723 315.136 249.871C315.964 248.995 316.913 248.338 317.984 247.9C319.079 247.462 320.199 247.243 321.343 247.243C322.925 247.243 324.24 247.584 325.287 248.265C326.333 248.947 327.21 249.737 327.916 250.638V240.272H332.334V266.917ZM327.989 257.281C327.989 256.332 327.83 255.48 327.514 254.726C327.222 253.971 326.82 253.327 326.309 252.791C325.798 252.232 325.201 251.806 324.52 251.514C323.838 251.222 323.132 251.076 322.402 251.076C321.648 251.076 320.929 251.222 320.248 251.514C319.591 251.781 319.006 252.183 318.495 252.718C317.984 253.254 317.582 253.911 317.29 254.689C316.998 255.444 316.852 256.307 316.852 257.281C316.852 258.23 316.998 259.094 317.29 259.872C317.582 260.627 317.984 261.271 318.495 261.807C319.006 262.342 319.591 262.756 320.248 263.048C320.929 263.34 321.648 263.486 322.402 263.486C323.132 263.486 323.838 263.34 324.52 263.048C325.201 262.756 325.798 262.342 326.309 261.807C326.82 261.247 327.222 260.59 327.514 259.836C327.83 259.081 327.989 258.23 327.989 257.281ZM351.609 261.223C351.609 262.245 351.427 263.133 351.062 263.887C350.696 264.642 350.185 265.274 349.528 265.785C348.895 266.272 348.141 266.649 347.264 266.917C346.388 267.16 345.451 267.282 344.453 267.282C343.065 267.282 341.653 267.038 340.217 266.552C338.805 266.065 337.491 265.347 336.274 264.398L338.246 261.405C339.292 262.184 340.351 262.78 341.422 263.194C342.518 263.583 343.564 263.778 344.562 263.778C345.512 263.778 346.242 263.595 346.753 263.23C347.289 262.841 347.556 262.33 347.556 261.697V261.624C347.556 261.259 347.435 260.943 347.191 260.675C346.972 260.408 346.656 260.176 346.242 259.982C345.852 259.763 345.39 259.58 344.854 259.434C344.343 259.264 343.808 259.094 343.248 258.923C342.542 258.704 341.824 258.461 341.094 258.193C340.388 257.926 339.743 257.585 339.158 257.171C338.599 256.733 338.136 256.21 337.771 255.602C337.406 254.969 337.223 254.19 337.223 253.266V253.193C337.223 252.292 337.394 251.477 337.734 250.747C338.1 250.017 338.586 249.397 339.195 248.886C339.828 248.375 340.558 247.985 341.386 247.718C342.238 247.45 343.138 247.316 344.088 247.316C345.305 247.316 346.534 247.511 347.775 247.9C349.017 248.29 350.149 248.825 351.171 249.506L349.419 252.645C348.494 252.086 347.556 251.648 346.607 251.331C345.658 250.991 344.781 250.82 343.978 250.82C343.126 250.82 342.457 251.003 341.97 251.368C341.507 251.733 341.276 252.195 341.276 252.755V252.828C341.276 253.168 341.398 253.473 341.641 253.74C341.885 253.984 342.201 254.215 342.591 254.434C343.004 254.628 343.467 254.823 343.978 255.018C344.514 255.188 345.061 255.358 345.621 255.529C346.327 255.748 347.033 256.003 347.739 256.295C348.445 256.587 349.078 256.952 349.638 257.39C350.222 257.804 350.696 258.315 351.062 258.923C351.427 259.532 351.609 260.274 351.609 261.15V261.223ZM354.567 270.348C356.806 269.91 357.841 268.766 357.67 266.917H355.808V261.916H360.664V266.15C360.664 268.194 360.19 269.679 359.241 270.603C358.291 271.528 356.891 272.063 355.042 272.209L354.567 270.348ZM388.171 245.528V266.917H383.643V245.528H375.537V241.367H396.277V245.528H388.171ZM402.307 259.58V266.917H397.889V247.645H402.307V251.988C402.916 250.528 403.78 249.36 404.9 248.484C406.019 247.608 407.431 247.207 409.135 247.28V251.952H408.88C407.906 251.952 407.018 252.11 406.214 252.426C405.411 252.743 404.717 253.217 404.133 253.85C403.549 254.482 403.098 255.285 402.782 256.259C402.466 257.208 402.307 258.315 402.307 259.58ZM428.222 266.917H423.841V264.544C423.184 265.323 422.344 265.98 421.321 266.515C420.299 267.051 419.058 267.318 417.597 267.318C416.672 267.318 415.796 267.184 414.968 266.917C414.141 266.673 413.41 266.308 412.777 265.822C412.169 265.311 411.67 264.69 411.28 263.96C410.915 263.206 410.733 262.342 410.733 261.369V261.296C410.733 260.249 410.927 259.337 411.317 258.558C411.706 257.78 412.242 257.135 412.923 256.624C413.629 256.113 414.457 255.736 415.406 255.492C416.38 255.225 417.427 255.091 418.546 255.091C419.715 255.091 420.701 255.164 421.504 255.31C422.332 255.456 423.123 255.65 423.877 255.894V255.419C423.877 254.081 423.463 253.059 422.636 252.353C421.833 251.648 420.664 251.295 419.131 251.295C418.035 251.295 417.062 251.404 416.21 251.623C415.358 251.842 414.494 252.134 413.617 252.499L412.412 248.959C413.483 248.472 414.579 248.083 415.698 247.791C416.818 247.499 418.169 247.353 419.751 247.353C422.624 247.353 424.754 248.071 426.141 249.506C427.529 250.918 428.222 252.913 428.222 255.492V266.917ZM423.95 259.945V258.741C423.39 258.522 422.721 258.339 421.942 258.193C421.188 258.047 420.384 257.974 419.532 257.974C418.145 257.974 417.062 258.242 416.283 258.777C415.504 259.313 415.114 260.079 415.114 261.077V261.15C415.114 262.074 415.467 262.78 416.173 263.267C416.903 263.753 417.792 263.997 418.839 263.997C419.569 263.997 420.238 263.899 420.847 263.705C421.48 263.51 422.027 263.242 422.49 262.902C422.952 262.537 423.305 262.111 423.549 261.624C423.816 261.113 423.95 260.554 423.95 259.945ZM437.895 256.04V266.917H433.477V247.645H437.895V250.638C438.212 250.175 438.552 249.75 438.918 249.36C439.307 248.947 439.745 248.582 440.232 248.265C440.743 247.949 441.291 247.706 441.875 247.535C442.484 247.341 443.165 247.243 443.92 247.243C446.111 247.243 447.802 247.912 448.995 249.251C450.188 250.589 450.784 252.39 450.784 254.653V266.917H446.366V255.967C446.366 254.458 446.001 253.302 445.271 252.499C444.565 251.672 443.555 251.258 442.24 251.258C440.95 251.258 439.903 251.684 439.1 252.536C438.297 253.363 437.895 254.531 437.895 256.04ZM469.883 261.223C469.883 262.245 469.701 263.133 469.336 263.887C468.971 264.642 468.459 265.274 467.802 265.785C467.169 266.272 466.415 266.649 465.538 266.917C464.662 267.16 463.725 267.282 462.727 267.282C461.339 267.282 459.928 267.038 458.491 266.552C457.08 266.065 455.765 265.347 454.548 264.398L456.52 261.405C457.566 262.184 458.625 262.78 459.696 263.194C460.792 263.583 461.838 263.778 462.836 263.778C463.786 263.778 464.516 263.595 465.027 263.23C465.563 262.841 465.831 262.33 465.831 261.697V261.624C465.831 261.259 465.709 260.943 465.465 260.675C465.246 260.408 464.93 260.176 464.516 259.982C464.127 259.763 463.664 259.58 463.129 259.434C462.617 259.264 462.082 259.094 461.522 258.923C460.816 258.704 460.098 258.461 459.368 258.193C458.662 257.926 458.017 257.585 457.433 257.171C456.873 256.733 456.41 256.21 456.045 255.602C455.68 254.969 455.497 254.19 455.497 253.266V253.193C455.497 252.292 455.668 251.477 456.009 250.747C456.374 250.017 456.861 249.397 457.469 248.886C458.102 248.375 458.832 247.985 459.66 247.718C460.512 247.45 461.412 247.316 462.362 247.316C463.579 247.316 464.808 247.511 466.05 247.9C467.291 248.29 468.423 248.825 469.445 249.506L467.693 252.645C466.768 252.086 465.831 251.648 464.881 251.331C463.932 250.991 463.056 250.82 462.252 250.82C461.4 250.82 460.731 251.003 460.244 251.368C459.782 251.733 459.55 252.195 459.55 252.755V252.828C459.55 253.168 459.672 253.473 459.915 253.74C460.159 253.984 460.475 254.215 460.865 254.434C461.279 254.628 461.741 254.823 462.252 255.018C462.788 255.188 463.336 255.358 463.895 255.529C464.601 255.748 465.307 256.003 466.013 256.295C466.719 256.587 467.352 256.952 467.912 257.39C468.496 257.804 468.971 258.315 469.336 258.923C469.701 259.532 469.883 260.274 469.883 261.15V261.223ZM479.705 247.791H484.817V251.441H479.778V266.917H475.36V251.441H472.914V247.754H475.36V246.367C475.36 244.226 475.872 242.644 476.894 241.622C477.916 240.576 479.377 240.053 481.275 240.053C482.054 240.053 482.724 240.101 483.284 240.199C483.844 240.296 484.367 240.418 484.854 240.564V244.287C484.416 244.141 483.99 244.031 483.576 243.958C483.186 243.861 482.748 243.812 482.261 243.812C480.557 243.812 479.705 244.786 479.705 246.732V247.791ZM507.245 257.281C507.245 258.668 506.977 259.97 506.442 261.186C505.931 262.403 505.213 263.474 504.288 264.398C503.387 265.299 502.304 266.016 501.038 266.552C499.772 267.087 498.397 267.355 496.912 267.355C495.452 267.355 494.088 267.099 492.823 266.588C491.581 266.053 490.498 265.335 489.573 264.435C488.672 263.51 487.966 262.452 487.455 261.259C486.944 260.043 486.689 258.741 486.689 257.354C486.689 255.967 486.944 254.665 487.455 253.448C487.991 252.207 488.709 251.137 489.61 250.236C490.534 249.312 491.618 248.582 492.859 248.046C494.125 247.511 495.5 247.243 496.985 247.243C498.47 247.243 499.833 247.511 501.075 248.046C502.34 248.557 503.424 249.275 504.324 250.2C505.249 251.1 505.967 252.159 506.478 253.375C506.99 254.592 507.245 255.894 507.245 257.281ZM502.827 257.354C502.827 256.502 502.681 255.699 502.389 254.945C502.097 254.19 501.683 253.533 501.148 252.974C500.636 252.39 500.016 251.94 499.285 251.623C498.58 251.283 497.788 251.112 496.912 251.112C496.036 251.112 495.232 251.283 494.502 251.623C493.796 251.94 493.188 252.378 492.677 252.937C492.165 253.497 491.776 254.154 491.508 254.908C491.24 255.638 491.107 256.429 491.107 257.281C491.107 258.132 491.253 258.948 491.545 259.726C491.837 260.481 492.238 261.138 492.75 261.697C493.285 262.257 493.906 262.707 494.612 263.048C495.342 263.364 496.133 263.522 496.985 263.522C497.886 263.522 498.689 263.364 499.395 263.048C500.125 262.707 500.746 262.257 501.257 261.697C501.768 261.138 502.158 260.493 502.426 259.763C502.693 259.008 502.827 258.205 502.827 257.354ZM516.16 259.58V266.917H511.742V247.645H516.16V251.988C516.769 250.528 517.633 249.36 518.753 248.484C519.873 247.608 521.284 247.207 522.988 247.28V251.952H522.733C521.759 251.952 520.871 252.11 520.067 252.426C519.264 252.743 518.57 253.217 517.986 253.85C517.402 254.482 516.952 255.285 516.635 256.259C516.319 257.208 516.16 258.315 516.16 259.58ZM542.854 250.638C543.633 249.616 544.546 248.801 545.593 248.192C546.664 247.56 547.93 247.243 549.39 247.243C551.508 247.243 553.163 247.888 554.356 249.178C555.549 250.443 556.145 252.256 556.145 254.616V266.917H551.727V255.967C551.727 254.434 551.386 253.266 550.705 252.463C550.023 251.66 549.062 251.258 547.82 251.258C546.603 251.258 545.605 251.672 544.826 252.499C544.071 253.302 543.694 254.482 543.694 256.04V266.917H539.276V255.93C539.276 254.422 538.935 253.266 538.254 252.463C537.572 251.66 536.611 251.258 535.369 251.258C534.128 251.258 533.13 251.684 532.375 252.536C531.621 253.387 531.243 254.568 531.243 256.076V266.917H526.825V247.645H531.243V250.565C531.56 250.127 531.9 249.713 532.266 249.324C532.631 248.934 533.045 248.582 533.507 248.265C533.994 247.949 534.529 247.706 535.114 247.535C535.722 247.341 536.392 247.243 537.122 247.243C538.509 247.243 539.678 247.56 540.627 248.192C541.601 248.801 542.343 249.616 542.854 250.638ZM566.341 244.688H561.595V240.491H566.341V244.688ZM566.195 266.917H561.777V247.645H566.195V266.917ZM576.385 256.04V266.917H571.967V247.645H576.385V250.638C576.702 250.175 577.043 249.75 577.408 249.36C577.797 248.947 578.235 248.582 578.722 248.265C579.233 247.949 579.781 247.706 580.365 247.535C580.974 247.341 581.655 247.243 582.41 247.243C584.601 247.243 586.292 247.912 587.485 249.251C588.678 250.589 589.274 252.39 589.274 254.653V266.917H584.856V255.967C584.856 254.458 584.491 253.302 583.761 252.499C583.055 251.672 582.045 251.258 580.73 251.258C579.44 251.258 578.394 251.684 577.59 252.536C576.787 253.363 576.385 254.531 576.385 256.04ZM613.561 262.975C613.561 266.381 612.661 268.876 610.859 270.457C609.058 272.039 606.502 272.83 603.192 272.83C599.979 272.83 597.106 272.063 594.575 270.53L596.218 267.209C597.24 267.841 598.311 268.34 599.431 268.705C600.551 269.07 601.768 269.253 603.082 269.253C605.054 269.253 606.563 268.754 607.61 267.756C608.657 266.759 609.18 265.286 609.18 263.34V261.843C608.377 262.89 607.439 263.741 606.368 264.398C605.297 265.055 603.971 265.384 602.388 265.384C601.244 265.384 600.149 265.189 599.102 264.8C598.056 264.386 597.118 263.79 596.291 263.011C595.488 262.233 594.843 261.284 594.356 260.164C593.869 259.045 593.625 257.767 593.625 256.332C593.625 254.896 593.869 253.619 594.356 252.499C594.843 251.38 595.488 250.431 596.291 249.652C597.118 248.874 598.056 248.277 599.102 247.864C600.173 247.45 601.269 247.243 602.388 247.243C604.019 247.243 605.358 247.572 606.405 248.229C607.476 248.861 608.389 249.628 609.143 250.528V247.645H613.561V262.975ZM609.216 256.332C609.216 255.529 609.058 254.799 608.742 254.142C608.45 253.46 608.048 252.889 607.537 252.426C607.026 251.964 606.417 251.611 605.711 251.368C605.03 251.1 604.312 250.966 603.557 250.966C602.778 250.966 602.06 251.1 601.403 251.368C600.745 251.611 600.161 251.964 599.65 252.426C599.163 252.889 598.774 253.448 598.482 254.105C598.214 254.762 598.08 255.492 598.08 256.295C598.08 257.098 598.226 257.828 598.518 258.485C598.81 259.142 599.2 259.714 599.687 260.201C600.173 260.663 600.745 261.028 601.403 261.296C602.084 261.539 602.802 261.661 603.557 261.661C604.312 261.661 605.03 261.539 605.711 261.296C606.417 261.028 607.026 260.663 607.537 260.201C608.048 259.714 608.45 259.154 608.742 258.522C609.058 257.865 609.216 257.135 609.216 256.332ZM634.693 266.917H630.275V240.272H634.693V266.917ZM645.285 244.688H640.538V240.491H645.285V244.688ZM645.139 266.917H640.721V247.645H645.139V266.917ZM659.02 261.807L664.241 247.645H668.878L660.992 267.063H657.012L649.088 247.645H653.835L659.02 261.807ZM674.882 258.85C675.149 260.432 675.782 261.649 676.78 262.5C677.778 263.328 678.995 263.741 680.432 263.741C681.527 263.741 682.476 263.547 683.28 263.157C684.083 262.768 684.874 262.196 685.653 261.442L688.245 263.741C687.32 264.836 686.213 265.712 684.923 266.369C683.657 267.026 682.136 267.355 680.359 267.355C678.971 267.355 677.669 267.111 676.452 266.625C675.259 266.138 674.212 265.457 673.312 264.581C672.435 263.705 671.742 262.658 671.23 261.442C670.719 260.201 670.464 258.826 670.464 257.317C670.464 255.93 670.695 254.628 671.157 253.412C671.62 252.195 672.265 251.137 673.093 250.236C673.944 249.312 674.943 248.582 676.087 248.046C677.231 247.511 678.496 247.243 679.884 247.243C681.417 247.243 682.756 247.523 683.9 248.083C685.069 248.642 686.03 249.397 686.785 250.346C687.564 251.295 688.148 252.402 688.537 253.667C688.927 254.933 689.122 256.259 689.122 257.646C689.122 257.84 689.109 258.035 689.085 258.23C689.085 258.424 689.073 258.631 689.049 258.85H674.882ZM674.845 255.93H684.74C684.667 255.225 684.509 254.568 684.265 253.959C684.022 253.327 683.693 252.791 683.28 252.353C682.866 251.891 682.367 251.526 681.783 251.258C681.223 250.991 680.578 250.857 679.847 250.857C678.484 250.857 677.352 251.331 676.452 252.28C675.575 253.205 675.04 254.422 674.845 255.93ZM707.323 261.223C707.323 262.245 707.141 263.133 706.776 263.887C706.41 264.642 705.899 265.274 705.242 265.785C704.609 266.272 703.855 266.649 702.978 266.917C702.102 267.16 701.165 267.282 700.167 267.282C698.779 267.282 697.367 267.038 695.931 266.552C694.519 266.065 693.205 265.347 691.988 264.398L693.96 261.405C695.006 262.184 696.065 262.78 697.136 263.194C698.232 263.583 699.278 263.778 700.276 263.778C701.226 263.778 701.956 263.595 702.467 263.23C703.003 262.841 703.27 262.33 703.27 261.697V261.624C703.27 261.259 703.149 260.943 702.905 260.675C702.686 260.408 702.37 260.176 701.956 259.982C701.566 259.763 701.104 259.58 700.568 259.434C700.057 259.264 699.522 259.094 698.962 258.923C698.256 258.704 697.538 258.461 696.808 258.193C696.102 257.926 695.457 257.585 694.872 257.171C694.313 256.733 693.85 256.21 693.485 255.602C693.12 254.969 692.937 254.19 692.937 253.266V253.193C692.937 252.292 693.108 251.477 693.448 250.747C693.814 250.017 694.3 249.397 694.909 248.886C695.542 248.375 696.272 247.985 697.1 247.718C697.952 247.45 698.852 247.316 699.802 247.316C701.019 247.316 702.248 247.511 703.489 247.9C704.731 248.29 705.863 248.825 706.885 249.506L705.133 252.645C704.208 252.086 703.27 251.648 702.321 251.331C701.372 250.991 700.495 250.82 699.692 250.82C698.84 250.82 698.171 251.003 697.684 251.368C697.221 251.733 696.99 252.195 696.99 252.755V252.828C696.99 253.168 697.112 253.473 697.355 253.74C697.599 253.984 697.915 254.215 698.305 254.434C698.718 254.628 699.181 254.823 699.692 255.018C700.228 255.188 700.775 255.358 701.335 255.529C702.041 255.748 702.747 256.003 703.453 256.295C704.159 256.587 704.792 256.952 705.352 257.39C705.936 257.804 706.41 258.315 706.776 258.923C707.141 259.532 707.323 260.274 707.323 261.15V261.223Z" fill="#0E3845" fill-opacity="0.8"/>
<path d="M74.5836 218.25H58.9074L52.6759 202.969H23.8551L17.6236 218.25H2.33691L31.5472 149.63H45.3734L74.5836 218.25ZM47.3207 189.732L38.2655 167.637L29.2104 189.732H47.3207ZM145.666 218.25H132.911L99.9031 174.937V218.25H85.1033V150.117H98.9295L130.866 192.068V150.117H145.666V218.25ZM220.35 188.564C220.35 209.198 208.764 219.321 190.459 219.321C172.153 219.321 160.956 209.101 160.956 189.05V150.117H175.951V188.661C175.951 199.757 181.501 205.5 190.653 205.5C199.806 205.5 205.356 199.952 205.356 189.148V150.117H220.35V188.564ZM284.891 198.102C284.891 211.632 274.57 219.224 259.868 219.224C249.547 219.224 239.129 215.622 230.95 208.322L239.81 197.713C245.944 202.774 252.371 205.986 260.16 205.986C266.294 205.986 269.994 203.553 269.994 199.562V199.368C269.994 195.572 267.657 193.625 256.265 190.705C242.537 187.201 233.676 183.405 233.676 169.876V169.681C233.676 157.32 243.608 149.144 257.531 149.144C267.463 149.144 275.934 152.258 282.847 157.806L275.057 169.097C269.02 164.912 263.081 162.381 257.336 162.381C251.592 162.381 248.573 165.009 248.573 168.318V168.513C248.573 172.99 251.494 174.45 263.276 177.468C277.102 181.069 284.891 186.033 284.891 197.908V198.102ZM355.547 218.25H340.552V190.9H312.9V218.25H297.905V150.117H312.9V177.078H340.552V150.117H355.547V218.25ZM430.787 218.25H413.261L398.656 196.448H386.875V218.25H371.88V150.117H403.038C419.103 150.117 428.743 158.585 428.743 172.601V172.796C428.743 183.794 422.803 190.705 414.138 193.917L430.787 218.25ZM413.553 173.574V173.38C413.553 166.956 409.075 163.646 401.772 163.646H386.875V183.21H402.064C409.367 183.21 413.553 179.317 413.553 173.574ZM500.566 188.564C500.566 209.198 488.98 219.321 470.675 219.321C452.37 219.321 441.172 209.101 441.172 189.05V150.117H456.167V188.661C456.167 199.757 461.717 205.5 470.869 205.5C480.022 205.5 485.572 199.952 485.572 189.148V150.117H500.566V188.564ZM567.446 163.938H546.707V218.25H531.712V163.938H510.973V150.117H567.446V163.938ZM594.654 218.25H579.659V150.117H594.654V218.25Z" fill="#0E3845"/>
</svg>
