<svg width="305" height="152" viewBox="0 0 305 152" fill="none" xmlns="http://www.w3.org/2000/svg">
<path d="M97.6378 67.4732C94.2036 67.4732 81.0189 67.4416 81.0189 67.4416H79.9499C79.5679 67.4351 79.5555 67.2988 79.7757 66.9888C82.2163 63.5552 84.5819 60.0938 86.8724 56.6047C87.7094 55.3316 88.5504 54.1923 89.4302 53.0083C89.4491 52.9829 89.4602 52.9535 89.4616 52.9254C89.463 52.8974 89.4547 52.8725 89.438 52.8553C89.3991 52.8165 89.3577 52.8191 89.3137 52.863C85.1341 56.9535 79.9 62.1659 75.3203 66.9132C66.4705 75.7723 56.9506 85.3562 48.0619 94.1765C44.6592 97.5539 41.3633 101.022 37.9218 104.446C37.8662 104.501 37.792 104.533 37.7142 104.535C37.6363 104.538 37.5606 104.511 37.5023 104.46C37.2213 104.216 36.9125 103.924 36.5759 103.584C24.649 91.5335 12.5259 79.6845 0.571815 67.6592C0.431979 67.5171 0.461759 67.4461 0.661155 67.4461L8.96978 67.417L33.2689 67.4416C33.2689 67.4416 33.6253 70.2945 33.8587 71.335C33.8587 71.335 34.1132 73.4374 34.1734 73.9335C34.5282 76.849 34.8642 79.7672 35.1814 82.688C35.4727 85.36 35.9252 88.6095 36.1641 91.5897C36.2263 92.3648 36.4807 94.1778 36.9274 97.0288C37.053 97.8245 37.1488 99.0111 37.2148 100.588C37.2478 101.375 37.4304 102.14 37.5236 102.937C37.5353 103.03 37.5664 103.032 37.6169 102.945C37.6298 102.924 37.6356 102.901 37.6343 102.875C37.5683 100.801 37.3955 98.7556 37.5451 96.6842C37.5606 87.6572 37.7004 76.4673 37.6732 67.4416C37.6732 45.7756 37.6732 22.1345 37.6732 0.63643C37.6732 0.363862 37.769 0.324462 37.9606 0.518231C53.1737 15.9035 68.5732 31.1144 83.8698 46.395C86.583 49.1058 89.203 51.9155 91.9686 54.5895C96.2841 58.7594 100.504 63.0262 104.69 67.2155C104.88 67.4067 104.841 67.5016 104.573 67.5003L97.6378 67.4732Z" fill="#FFC220"/>
<path d="M80.6626 67.4416C78.9254 67.4197 74.9612 67.4416 74.7927 67.4416C79.3724 62.6942 85.1352 56.9534 89.3147 52.8629C89.3587 52.819 89.4002 52.8164 89.439 52.8552C89.4557 52.8724 89.4641 52.8973 89.4627 52.9253C89.4612 52.9534 89.4501 52.9828 89.4312 53.0082C88.5514 54.1922 87.7105 55.3315 86.8734 56.6046C84.5829 60.0937 82.2174 63.5551 79.7767 66.9887C79.5566 67.2987 79.568 67.4351 79.95 67.4416H80.6626Z" fill="#C88B11"/>
<path d="M37.7665 67.4412L37.7004 102.39C37.7004 102.478 37.7004 102.612 37.6169 102.944C37.5664 103.032 37.5313 103.001 37.5237 102.936C37.3344 102.747 37.2149 101.082 37.2149 100.588L36.1642 91.5894C36.1642 91.5894 35.4728 85.3597 35.1814 82.6876C34.8642 79.7669 33.6234 70.3567 33.2687 67.4412C34.544 67.4618 37.7665 67.4412 37.7665 67.4412Z" fill="#C88B11"/>
<path d="M78.3559 133.231L73.5898 133.076C64.9277 132.221 58.1748 127.239 56.3297 118.506C53.9914 107.423 60.014 95.6646 72.0982 94.3431C77.8315 93.7153 83.6989 95.3933 87.3909 100.009C91.1976 104.764 92.1221 110.724 91.8249 116.743C91.8234 116.769 91.8119 116.794 91.7928 116.812C91.7736 116.83 91.7483 116.84 91.722 116.84L65.3725 116.846C65.3367 116.846 65.3014 116.853 65.2687 116.868C65.2361 116.882 65.207 116.904 65.1833 116.931C65.1596 116.957 65.1419 116.989 65.1313 117.023C65.1207 117.057 65.1175 117.093 65.122 117.128C66.4485 128.169 81.2168 126.174 88.1445 124.304C88.1566 124.3 88.1692 124.3 88.1817 124.301C88.1941 124.303 88.2061 124.307 88.2169 124.313C88.2277 124.32 88.2372 124.328 88.2448 124.338C88.2523 124.348 88.2579 124.359 88.261 124.372L89.9643 131.142C89.9683 131.159 89.969 131.176 89.9662 131.193C89.9634 131.211 89.9572 131.227 89.948 131.242C89.9388 131.257 89.9267 131.269 89.9125 131.28C89.8983 131.29 89.8823 131.297 89.8653 131.301C88.2533 131.665 86.5286 132.254 85.0739 132.527C82.8572 132.946 80.6179 133.18 78.3559 133.231ZM65.289 110.182C66.5708 110.271 67.8682 110.277 69.049 110.255C72.914 110.186 76.7808 110.207 80.6438 110.213C81.1294 110.215 82.0422 110.302 82.755 110.213C82.7675 110.211 82.7797 110.207 82.7907 110.201C82.8017 110.195 82.8114 110.187 82.8192 110.176C82.8269 110.166 82.8327 110.155 82.836 110.142C82.8393 110.13 82.8401 110.117 82.8385 110.104C82.5607 107.86 82.1238 106.258 81.0303 104.688C78.2666 100.726 71.6166 100.674 68.2256 103.727C66.3805 105.39 65.7163 107.539 65.2132 110.079C65.2107 110.091 65.2107 110.103 65.2132 110.115C65.2158 110.127 65.2208 110.139 65.228 110.148C65.2352 110.158 65.2443 110.166 65.2549 110.172C65.2654 110.178 65.277 110.181 65.289 110.182Z" fill="white"/>
<path d="M130.739 130.753L130.59 132.369C130.587 132.401 130.571 132.439 130.541 132.483L130.504 132.537C127.499 132.425 124.493 132.407 121.487 132.483C121.456 132.484 121.378 132.483 121.308 132.483C121.263 132.483 121.218 132.483 121.219 132.346C121.235 127.193 121.237 116.035 121.224 110.88C121.217 107.196 120.471 103.776 116.268 102.931C111.494 101.972 106.711 105.22 105.784 109.936C105.653 110.598 105.589 111.884 105.592 113.796C105.601 120.048 105.599 126.301 105.586 132.555C104.566 132.59 103.413 132.485 102.574 132.481C100.444 132.47 98.3139 132.459 96.184 132.448L96.1199 131.092L96.1277 130.793L96.0383 128.331C96.0771 122.828 96.0849 117.325 96.0616 111.823C96.0364 106.202 96.1296 100.387 96.0655 96.1766C96.0564 95.5578 96.0752 95.1199 96.1218 94.8629C97.1822 94.9481 98.2362 94.9436 99.2837 94.8493L105.023 94.857C105.111 94.857 105.195 94.8917 105.257 94.9534C105.319 95.0151 105.354 95.0989 105.355 95.1864L105.357 100.554C105.357 100.754 105.413 100.772 105.524 100.606C108.528 96.1708 114.635 93.7177 119.884 94.2912C126.208 94.9849 129.43 98.9688 130.5 104.945C130.643 105.743 130.718 107.209 130.726 109.341C130.753 116.478 130.757 123.616 130.739 130.753Z" fill="white"/>
<path d="M167.17 132.346V132.529C167.17 132.6 167.019 132.588 167.019 132.588C167.019 132.588 160.744 132.57 158.062 132.541L158.036 129.344L158.038 128.671C158.015 128.611 157.982 128.607 157.939 128.66C156.747 130.151 155.126 131.387 153.371 132.138C153.319 132.16 153.061 132.327 153 132.346C147.299 134.129 139.671 133.37 136.216 127.863C134.355 124.895 134.136 121.217 135.202 117.902C136.41 114.139 139.755 111.881 143.569 111.352C148.087 110.727 152.971 111.035 157.541 111.033C157.566 111.033 157.591 111.023 157.609 111.004C157.627 110.986 157.638 110.962 157.638 110.936C157.664 109.089 157.661 107.803 157.63 107.08C157.417 102.071 152.262 101.664 148.471 101.751C145.05 101.831 141.45 102.076 137.671 102.486C137.639 102.489 137.606 102.486 137.575 102.477C137.545 102.467 137.516 102.452 137.491 102.431C137.467 102.411 137.447 102.385 137.432 102.357C137.417 102.328 137.409 102.297 137.407 102.265C137.268 100.199 137.016 98.0379 136.651 95.7811C136.641 95.7215 136.655 95.6605 136.688 95.6103C136.722 95.56 136.773 95.5242 136.832 95.5098C137.659 95.3083 138.545 95.1436 139.489 95.0157C145.123 94.2561 150.903 93.6923 156.465 94.9324C162.06 96.1803 166.108 99.6797 167.019 105.466C167.082 105.862 167.116 106.75 167.12 108.13C167.143 116.01 167.16 124.466 167.17 132.346ZM145.399 125.145C147.203 126.635 149.71 126.639 152.113 126.313C153.088 126.182 154.954 124.804 155.587 124.153C157.392 122.293 157.86 119.861 157.603 117.295C157.601 117.269 157.588 117.244 157.569 117.227C157.549 117.209 157.523 117.2 157.496 117.2C154.632 117.235 151.769 117.249 148.906 117.241C147.644 117.238 146.503 117.647 145.484 118.468C143.746 119.872 143.612 123.67 145.399 125.145Z" fill="white"/>
<path d="M176.96 128.195C171.027 123.031 169.151 113.751 171.994 106.557C174.14 101.129 177.976 97.4451 183.504 95.5061C187.473 94.1129 191.944 93.892 196.083 94.5354C198.091 94.8473 199.598 95.1244 201.296 95.8666C201.316 95.8758 201.333 95.8916 201.343 95.9113C201.354 95.9311 201.357 95.9535 201.352 95.9751L199.861 102.602C199.858 102.615 199.853 102.626 199.845 102.637C199.838 102.647 199.828 102.656 199.817 102.663C199.806 102.67 199.794 102.675 199.781 102.677C199.768 102.679 199.755 102.679 199.742 102.676C196.21 101.924 192.811 101.724 189.546 102.077C185.955 102.464 182.707 104.745 181.218 108.068C179.749 111.349 179.749 115.377 180.924 118.708C183.296 125.422 190.383 126.35 196.518 125.323C197.536 125.153 198.655 124.818 199.729 124.552C199.754 124.546 199.78 124.55 199.802 124.563C199.824 124.576 199.839 124.597 199.845 124.622L201.379 131.382C201.385 131.409 201.381 131.436 201.369 131.46C201.356 131.483 201.335 131.501 201.309 131.51C193.117 134.345 183.673 134.037 176.96 128.195Z" fill="white"/>
<path d="M213.929 88.5593L213.832 94.5177C213.832 94.5177 213.832 94.7228 213.832 94.9318V95.0488C213.935 95.2578 234.071 94.9053 234.071 94.9053C234.098 94.9063 234.123 94.9177 234.141 94.9372C234.16 94.9568 234.17 94.9828 234.17 95.0099C234.162 102.66 234.159 110.307 234.159 117.952C234.159 121.085 235.697 123.978 238.967 124.581C244.287 125.563 248.832 122.027 249.708 116.757C249.767 116.399 249.781 115.483 249.748 114.009C249.61 107.764 249.702 95.2405 249.702 95.2405C249.926 94.9011 249.984 94.8563 250.638 94.9011L258.98 94.8646L259.174 94.8568C259.186 94.8563 259.199 94.8587 259.21 94.8639C259.222 94.8691 259.233 94.8771 259.242 94.8872C259.251 94.8973 259.258 94.9094 259.263 94.9229C259.268 94.9363 259.271 94.9507 259.271 94.9653V132.537C259.271 132.56 259.266 132.582 259.257 132.603C259.248 132.624 259.235 132.643 259.218 132.658C259.202 132.674 259.182 132.687 259.16 132.695C259.139 132.704 259.116 132.708 259.092 132.708L249.952 132.626L249.882 126.931C249.881 126.867 249.859 126.86 249.816 126.91C249.352 127.435 248.921 128.04 248.451 128.499C244.81 132.064 240.48 133.618 235.46 133.159C231.142 132.766 227.823 130.706 226.048 126.614C224.811 123.765 224.727 121.471 224.669 118.01C224.576 112.56 224.751 107.477 224.661 101.404C224.661 101.378 224.65 101.353 224.631 101.334C224.612 101.316 224.587 101.305 224.56 101.305L214.034 101.304C214.022 101.303 214.009 101.305 213.998 101.31C213.987 101.314 213.977 101.321 213.968 101.329C213.959 101.338 213.952 101.348 213.948 101.359C213.943 101.37 213.94 101.382 213.94 101.395C213.893 108.291 213.908 115.191 213.987 122.093C214.003 123.451 214.57 124.837 215.859 125.445C217.493 126.213 219.058 125.835 220.765 125.629C220.79 125.626 220.815 125.633 220.835 125.649C220.855 125.664 220.869 125.687 220.872 125.713L221.773 132.5C221.779 132.541 221.768 132.581 221.745 132.614C221.721 132.647 221.686 132.669 221.647 132.677C219.008 133.163 216.38 133.477 213.674 133.076C208.297 132.281 204.95 129.168 204.515 123.525C204.474 122.982 204.453 122.31 204.453 121.508C204.453 109.14 204.453 96.7732 204.453 84.4069C204.453 84.3909 204.459 84.3756 204.471 84.3644C204.482 84.3531 204.497 84.3468 204.513 84.3468H213.853C213.88 84.3468 213.906 84.3576 213.925 84.3769C213.943 84.3961 213.954 84.4222 213.954 84.4495L213.929 88.5593Z" fill="white"/>
<path d="M278.789 133.231L274.219 133.02C270.196 132.547 266.371 131.53 262.744 129.968C262.671 129.936 262.613 129.879 262.579 129.808C262.546 129.736 262.54 129.655 262.564 129.58L264.494 123.442C264.505 123.407 264.523 123.375 264.547 123.348C264.571 123.32 264.601 123.298 264.634 123.282C264.667 123.266 264.703 123.258 264.74 123.256C264.776 123.254 264.813 123.26 264.848 123.273C268.763 124.754 272.811 125.626 276.992 125.891C279.057 126.021 282.764 125.858 283.994 124.081C284.858 122.831 284.726 121.128 283.489 120.159C282.681 119.526 281.622 119.02 280.527 118.565C275.387 116.427 272.267 115.11 271.169 114.614C267.99 113.176 264.923 111.056 264.125 107.597C263.082 103.075 264.539 98.5289 268.788 96.2676C270.116 95.561 271.517 95.0649 272.993 94.7795C277.757 93.8591 282.265 94.2137 287.027 94.9054C288.832 95.167 290.611 95.6786 292.39 96.1591C292.433 96.1709 292.469 96.1991 292.491 96.2375C292.513 96.276 292.52 96.3216 292.508 96.3645C291.918 98.6064 291.477 100.87 290.803 103.09C290.796 103.115 290.779 103.137 290.756 103.15C290.734 103.163 290.707 103.166 290.683 103.16C289.317 102.827 287.944 102.457 286.59 102.249C282.801 101.67 278.107 101.063 274.516 102.16C273.652 102.424 273.133 103.319 273.03 104.212C272.754 106.597 275.166 107.632 277.151 108.452C279.565 109.446 281.98 110.435 284.398 111.416C286.858 112.414 289.111 113.467 291.005 114.939C293.312 116.735 293.938 119.59 293.827 122.351C293.514 130.204 285.369 133.155 278.789 133.231Z" fill="white"/>
<path d="M304.216 129.634C303.642 130.522 303.43 131.163 303.098 132.145C302.966 132.535 302.768 132.816 302.333 132.587C302.307 132.574 302.284 132.554 302.265 132.53C302.246 132.506 302.231 132.477 302.222 132.446C302.039 131.855 301.981 131.477 301.618 130.9C301.424 130.588 301.306 130.243 301.266 129.863C301.241 129.619 301.148 129.479 300.975 129.83C300.922 129.938 300.898 130.069 300.903 130.221L300.973 132.438C300.974 132.469 300.967 132.499 300.954 132.527C300.941 132.555 300.921 132.58 300.897 132.599C300.752 132.715 300.597 132.727 300.431 132.636C300.406 132.622 300.386 132.601 300.371 132.575C300.357 132.549 300.35 132.518 300.35 132.487L300.344 128.679C300.344 128.645 300.335 128.612 300.318 128.583C300.301 128.554 300.277 128.53 300.248 128.513C300.219 128.496 300.186 128.487 300.152 128.487C300.119 128.487 300.086 128.496 300.056 128.512C299.625 128.756 299.066 128.698 298.586 128.778C298.559 128.782 298.534 128.796 298.517 128.816C298.499 128.837 298.49 128.863 298.491 128.89L298.499 132.535C298.499 132.564 298.49 132.593 298.472 132.616C298.455 132.639 298.431 132.655 298.404 132.661C298.259 132.694 298.125 132.672 298.003 132.593C297.979 132.578 297.96 132.555 297.947 132.527C297.934 132.5 297.928 132.468 297.93 132.436C297.996 131.228 297.99 130.02 297.914 128.813C297.912 128.774 297.894 128.738 297.865 128.71C297.835 128.683 297.795 128.667 297.753 128.665L296.555 128.631C296.494 128.628 296.434 128.6 296.388 128.553C296.17 128.332 296.277 128.22 296.708 128.218C298.171 128.209 299.636 128.22 301.101 128.251C301.131 128.251 301.16 128.26 301.184 128.277C301.208 128.293 301.227 128.315 301.237 128.342L302.414 131.328C302.442 131.397 302.48 131.45 302.523 131.477C303.175 131.888 303.628 126.875 304.762 128.386C304.798 128.434 304.818 128.496 304.82 128.563C304.877 130.595 304.874 131.856 304.811 132.347C304.762 132.726 304.593 132.795 304.306 132.554C304.284 132.536 304.266 132.511 304.254 132.483C304.242 132.455 304.236 132.424 304.236 132.392L304.269 129.65C304.27 129.584 304.253 129.579 304.216 129.634Z" fill="white"/>
<path d="M56.313 142.822L56.2722 151.583C55.9679 151.66 55.6571 151.665 55.3399 151.596C55.3134 151.59 55.2898 151.575 55.2728 151.553C55.2559 151.531 55.2467 151.504 55.2467 151.476V142.97C55.2466 142.939 55.2566 142.91 55.2747 142.889C55.2928 142.867 55.3176 142.854 55.3438 142.853L56.313 142.822Z" fill="white"/>
<path d="M59.3188 144.473L59.3518 151.499C59.3518 151.514 59.3492 151.529 59.3443 151.543C59.3394 151.557 59.3322 151.57 59.3231 151.581C59.3141 151.591 59.3034 151.6 59.2916 151.605C59.2799 151.611 59.2673 151.614 59.2547 151.613L58.4467 151.596C58.4218 151.595 58.398 151.583 58.3806 151.561C58.3631 151.539 58.3534 151.509 58.3535 151.478V142.971C58.3534 142.943 58.3625 142.916 58.3794 142.894C58.3964 142.871 58.4201 142.856 58.4467 142.849C59.0779 142.69 59.5499 142.756 59.9247 143.345C60.8609 144.822 61.8099 146.288 62.772 147.744C62.9137 147.959 63.9625 149.953 64.1762 149.916C64.2001 149.912 64.221 149.895 64.2345 149.87C64.2479 149.845 64.2527 149.814 64.248 149.782C63.9198 147.575 64.081 145.2 64.0829 142.966C64.083 142.938 64.0923 142.911 64.1092 142.89C64.1261 142.868 64.1497 142.853 64.1762 142.847C64.4416 142.789 64.7031 142.786 64.9608 142.838C64.9872 142.843 65.0111 142.858 65.0284 142.879C65.0457 142.901 65.0554 142.928 65.056 142.956L65.1181 151.1C65.1207 151.427 64.9614 151.614 64.6403 151.662C64.5122 151.681 64.2894 151.651 63.9722 151.571C63.912 151.554 63.8596 151.517 63.8246 151.466C63.5702 151.092 63.3915 150.641 63.1546 150.296C61.8468 148.396 60.6304 146.437 59.5052 144.421C59.3809 144.197 59.3188 144.215 59.3188 144.473Z" fill="white"/>
<path d="M66.7693 151.447C66.7382 151.443 66.7095 151.429 66.6887 151.406C66.6679 151.383 66.6565 151.353 66.6566 151.323L66.6586 143.062C66.6585 143.05 66.661 143.038 66.6659 143.027C66.6707 143.015 66.6778 143.005 66.6866 142.997C66.6955 142.988 66.7061 142.981 66.7176 142.977C66.7291 142.973 66.7414 142.971 66.7537 142.971C68.1035 143.016 68.9503 142.71 70.5526 142.995C71.7238 143.202 72.7279 143.572 73.3105 144.663C73.9961 145.94 74.0097 147.631 73.561 148.967C72.6249 151.763 69.2883 151.726 66.7693 151.447ZM71.4965 144.252C71.3127 144.104 71.1087 143.992 70.8847 143.917C70.0108 143.628 69.1316 143.538 68.2473 143.649C67.93 143.69 67.7727 143.868 67.7753 144.184L67.8413 150.631C67.8417 150.687 67.8633 150.74 67.9019 150.781C67.9404 150.821 67.993 150.846 68.0492 150.85C69.7427 150.962 71.5315 150.619 72.3511 148.939C73.0483 147.507 72.8813 145.376 71.4965 144.252Z" fill="white"/>
<path d="M76.0118 142.819L75.0562 142.818C75.0037 142.818 74.961 142.86 74.9609 142.912L74.9458 151.531C74.9457 151.584 74.9883 151.626 75.0408 151.626L75.9964 151.628C76.0489 151.628 76.0916 151.586 76.0917 151.533L76.1068 142.914C76.1069 142.862 76.0643 142.819 76.0118 142.819Z" fill="white"/>
<path d="M78.3152 151.552C77.9831 151.619 77.6471 151.59 77.3363 151.486C77.3316 151.484 77.3272 151.482 77.3235 151.479C77.3197 151.475 77.3167 151.471 77.3145 151.467C77.3123 151.462 77.3111 151.457 77.3108 151.451C77.3106 151.446 77.3113 151.441 77.313 151.435L80.0612 142.942C80.0705 142.914 80.087 142.889 80.109 142.87C80.1309 142.85 80.1574 142.838 80.1855 142.834C80.5713 142.776 80.952 142.794 81.3275 142.888C81.3567 142.896 81.3833 142.911 81.405 142.931C81.4268 142.951 81.4428 142.977 81.4518 143.005L84.1708 151.391C84.1791 151.416 84.1775 151.443 84.1662 151.467C84.155 151.49 84.135 151.508 84.1106 151.517C83.7701 151.64 83.4451 151.634 83.1357 151.501C83.108 151.489 83.0831 151.471 83.0624 151.448C83.0417 151.425 83.0256 151.398 83.0152 151.368L82.2656 149.159C82.2562 149.131 82.2391 149.108 82.2163 149.09C82.1935 149.073 82.1661 149.062 82.1374 149.06C81.1883 148.981 80.2451 148.984 79.3076 149.068C79.2778 149.07 79.2495 149.082 79.2264 149.1C79.2032 149.118 79.1862 149.143 79.1775 149.17L78.4356 151.437C78.4262 151.467 78.41 151.493 78.3888 151.513C78.3677 151.533 78.3422 151.546 78.3152 151.552ZM79.529 148.203C79.5263 148.212 79.5257 148.222 79.5274 148.231C79.529 148.24 79.5328 148.249 79.5385 148.257C79.5442 148.264 79.5515 148.27 79.56 148.275C79.5685 148.279 79.5779 148.281 79.5873 148.281L81.8616 148.285C81.8708 148.285 81.88 148.283 81.8882 148.279C81.8965 148.274 81.9038 148.269 81.9094 148.261C81.915 148.254 81.9189 148.245 81.9207 148.236C81.9225 148.227 81.9222 148.218 81.9199 148.209L80.7895 144.028C80.7856 144.016 80.7779 144.005 80.7677 143.998C80.7574 143.99 80.745 143.986 80.7322 143.986C80.7195 143.986 80.7071 143.99 80.6968 143.998C80.6865 144.005 80.6788 144.016 80.6749 144.028L79.529 148.203Z" fill="white"/>
<path d="M86.7369 144.279C87.0359 145.973 86.8631 148.457 86.8495 151.478C86.8497 151.506 86.8401 151.533 86.8224 151.555C86.8048 151.577 86.7801 151.592 86.7524 151.598C86.4753 151.656 86.2008 151.659 85.9289 151.606C85.9021 151.601 85.8779 151.586 85.8605 151.565C85.8431 151.544 85.8337 151.517 85.8337 151.49L85.8357 142.975C85.8356 142.947 85.8449 142.919 85.8622 142.896C85.8795 142.874 85.9037 142.858 85.9308 142.851C86.6469 142.669 87.1415 142.865 87.4147 143.438C87.7118 144.06 91.0213 149.968 91.1922 150.007C91.2032 150.009 91.2143 150.008 91.2243 150.002C91.2343 149.997 91.2429 149.988 91.2493 149.977C91.2558 149.965 91.2598 149.951 91.261 149.937C91.2622 149.922 91.2606 149.907 91.2563 149.893C91.1061 149.383 91.031 148.929 91.031 148.531C91.0271 146.661 91.0271 144.792 91.031 142.923C91.031 142.896 91.0412 142.87 91.0594 142.85C91.0777 142.831 91.1024 142.82 91.1281 142.82H91.9011C91.9268 142.82 91.9516 142.831 91.9698 142.85C91.988 142.87 91.9982 142.896 91.9982 142.923V151.519C91.9981 151.534 91.9955 151.548 91.9906 151.562C91.9857 151.576 91.9786 151.589 91.9697 151.599C91.9607 151.609 91.9502 151.617 91.9388 151.622C91.9273 151.628 91.9152 151.63 91.903 151.629L91.0194 151.567C90.9944 151.566 90.968 151.555 90.9429 151.537C90.9177 151.518 90.8945 151.492 90.8756 151.46C89.4436 149.124 88.1139 146.731 86.8864 144.283C86.867 144.244 86.8424 144.217 86.8126 144.202C86.7466 144.166 86.7213 144.192 86.7369 144.279Z" fill="white"/>
<path d="M96.7106 142.822H97.6312C97.6569 142.822 97.6816 142.833 97.6998 142.852C97.718 142.871 97.7283 142.896 97.7283 142.923V151.476C97.7284 151.507 97.7186 151.536 97.7009 151.558C97.6831 151.58 97.6588 151.593 97.6331 151.594L96.7591 151.623L96.7106 142.822Z" fill="white"/>
<path d="M100.717 144.278C101.042 146.555 100.84 149.161 100.836 151.48C100.836 151.508 100.827 151.534 100.81 151.556C100.793 151.577 100.769 151.592 100.743 151.598C100.463 151.66 100.187 151.66 99.9154 151.598C99.8883 151.592 99.8642 151.577 99.8469 151.555C99.8296 151.532 99.8202 151.505 99.8202 151.476L99.8221 142.929C99.8222 142.901 99.8321 142.874 99.8499 142.853C99.8678 142.832 99.8924 142.819 99.9192 142.815C100.341 142.757 100.734 142.819 101.096 143.001C101.152 143.029 101.199 143.075 101.23 143.133C102.051 144.647 102.9 146.144 103.778 147.624C104.194 148.326 104.59 149.209 104.924 149.779C105.252 150.339 105.219 149.75 105.183 149.601C105.071 149.129 105.015 148.773 105.014 148.531C105.012 146.677 105.013 144.823 105.016 142.968C105.015 142.94 105.025 142.912 105.041 142.89C105.058 142.868 105.082 142.852 105.109 142.846C105.391 142.776 105.667 142.782 105.936 142.863C105.962 142.871 105.985 142.888 106.001 142.911C106.017 142.934 106.026 142.962 106.025 142.991L106.027 151.347C106.027 151.402 106.007 151.455 105.972 151.498C105.936 151.54 105.886 151.568 105.831 151.577C105.262 151.676 105.017 151.703 104.693 151.17C103.326 148.925 102.05 146.63 100.867 144.286C100.848 144.248 100.824 144.221 100.795 144.204C100.732 144.165 100.706 144.19 100.717 144.278Z" fill="white"/>
<path d="M107.843 146.287C107.333 145.569 107.315 144.787 107.789 143.941C108.414 142.825 110.306 142.699 111.429 143.049C111.838 143.177 112.238 143.534 111.7 143.888C111.676 143.905 111.648 143.915 111.617 143.918C111.587 143.922 111.555 143.918 111.524 143.908C110.706 143.646 110.059 143.404 109.383 143.741C108.661 144.104 108.387 145.005 108.826 145.685C109.686 147.02 112.112 146.725 112.33 148.785C112.627 151.614 109.49 151.955 107.536 151.23C107.507 151.22 107.481 151.202 107.46 151.18C107.44 151.158 107.426 151.131 107.42 151.102C107.356 150.796 107.423 150.528 107.62 150.296C107.637 150.277 107.661 150.265 107.688 150.262C107.714 150.26 107.741 150.267 107.764 150.283C108.845 151.062 111.267 151.244 111.217 149.275C111.172 147.613 108.746 147.557 107.843 146.287Z" fill="white"/>
<path d="M118.949 142.823C119.025 142.996 119.022 143.171 118.941 143.348H116.57C116.538 143.348 116.507 143.356 116.482 143.371C116.456 143.386 116.437 143.408 116.426 143.433C116.366 143.562 116.368 143.695 116.432 143.832C116.341 146.174 116.373 148.517 116.527 150.86L116.519 151.482C116.518 151.513 116.508 151.543 116.489 151.564C116.471 151.586 116.446 151.598 116.42 151.599L115.451 151.597C115.425 151.596 115.401 151.584 115.383 151.562C115.365 151.54 115.356 151.511 115.356 151.48L115.348 143.784L115.344 143.416C115.344 143.39 115.332 143.365 115.311 143.346C115.289 143.327 115.259 143.315 115.227 143.313C114.515 143.27 113.816 143.35 113.128 143.551C112.767 143.565 112.66 143.352 112.808 142.91C112.816 142.884 112.833 142.86 112.856 142.844C112.879 142.828 112.907 142.819 112.936 142.819L118.949 142.823Z" fill="white"/>
<path d="M121.049 142.861L121.07 151.577L120.117 151.627C120.104 151.628 120.091 151.626 120.079 151.621C120.067 151.616 120.057 151.608 120.047 151.598C120.038 151.589 120.031 151.577 120.025 151.564C120.02 151.551 120.018 151.537 120.018 151.522V142.927C120.018 142.912 120.02 142.898 120.025 142.884C120.03 142.871 120.037 142.859 120.046 142.849C120.055 142.838 120.065 142.831 120.077 142.825C120.088 142.82 120.101 142.818 120.113 142.818L121.049 142.861Z" fill="white"/>
<path d="M128.27 142.822L128.311 143.347L125.854 143.359C125.825 143.359 125.797 143.369 125.775 143.386C125.752 143.403 125.737 143.427 125.732 143.454C125.706 143.582 125.713 143.708 125.753 143.832L125.802 150.809L125.843 151.47C125.843 151.484 125.841 151.498 125.836 151.511C125.831 151.525 125.824 151.537 125.814 151.547C125.804 151.558 125.792 151.566 125.778 151.572C125.765 151.578 125.751 151.582 125.736 151.583L124.774 151.625C124.762 151.626 124.75 151.624 124.738 151.619C124.726 151.615 124.715 151.607 124.706 151.598C124.697 151.588 124.69 151.577 124.685 151.564C124.68 151.552 124.677 151.538 124.677 151.525L124.671 143.799C124.7 143.649 124.695 143.516 124.656 143.4C124.647 143.376 124.63 143.355 124.605 143.34C124.58 143.325 124.55 143.317 124.518 143.316L122.112 143.299C122.081 143.166 122.086 143.038 122.127 142.915C122.136 142.889 122.154 142.867 122.177 142.851C122.201 142.835 122.23 142.826 122.259 142.826L128.27 142.822Z" fill="white"/>
<path d="M130.359 142.822L130.522 147.661C130.526 149.079 130.627 150.594 132.291 150.811C134.031 151.04 134.519 149.434 134.523 147.949C134.528 146.273 134.533 144.596 134.538 142.921C134.538 142.894 134.548 142.869 134.567 142.85C134.585 142.831 134.609 142.82 134.635 142.82L135.554 142.822L135.562 148.627C135.564 151.414 132.699 152.152 130.568 151.083C128.836 150.211 129.339 144.597 129.341 142.923C129.341 142.896 129.352 142.869 129.371 142.85C129.389 142.831 129.414 142.82 129.44 142.82L130.359 142.822Z" fill="white"/>
<path d="M136.622 142.822L142.705 142.849C142.718 142.849 142.731 142.852 142.743 142.857C142.755 142.862 142.766 142.87 142.775 142.879C142.784 142.888 142.791 142.899 142.795 142.911C142.799 142.923 142.801 142.936 142.8 142.948L142.781 143.347L140.375 143.359C140.362 143.359 140.349 143.362 140.337 143.366C140.325 143.371 140.314 143.378 140.305 143.387C140.295 143.396 140.288 143.407 140.283 143.419C140.278 143.431 140.276 143.443 140.276 143.456L140.272 143.832L140.214 151.484C140.214 151.514 140.204 151.543 140.187 151.564C140.17 151.585 140.147 151.598 140.122 151.598L139.244 151.623L139.196 143.873C139.228 143.709 139.212 143.561 139.147 143.431C139.136 143.407 139.116 143.388 139.09 143.373C139.065 143.359 139.034 143.351 139.002 143.349L136.63 143.299L136.622 142.822Z" fill="white"/>
<path d="M148.461 143.251C147.333 143.354 146.202 143.388 145.068 143.351C145.039 143.35 145.011 143.358 144.988 143.374C144.965 143.39 144.949 143.413 144.942 143.439C144.908 143.567 144.905 143.698 144.932 143.832C144.839 144.845 144.837 145.858 144.928 146.87C144.929 146.883 144.932 146.896 144.938 146.908C144.944 146.919 144.952 146.929 144.962 146.938C144.972 146.946 144.983 146.953 144.995 146.957C145.007 146.961 145.02 146.962 145.033 146.961C146.036 146.879 147.036 146.904 148.032 147.037L148.024 147.562C147.013 147.438 146 147.423 144.986 147.516C144.973 147.517 144.961 147.521 144.949 147.527C144.937 147.533 144.927 147.541 144.919 147.551C144.911 147.561 144.904 147.572 144.901 147.584C144.897 147.597 144.896 147.609 144.897 147.622L144.932 147.95V150.565C144.874 150.718 144.876 150.863 144.938 151.001C144.949 151.027 144.969 151.049 144.994 151.066C145.019 151.082 145.05 151.092 145.081 151.094C146.139 151.173 147.189 151.082 148.232 150.821C148.54 151.003 148.617 151.244 148.463 151.542C148.449 151.568 148.428 151.589 148.402 151.604C148.376 151.619 148.346 151.627 148.315 151.627L143.856 151.623L143.848 142.863C145.34 142.786 146.831 142.784 148.321 142.857C148.353 142.859 148.383 142.869 148.407 142.887C148.432 142.904 148.449 142.928 148.457 142.954C148.485 143.047 148.487 143.146 148.461 143.251Z" fill="white"/>
<path d="M153.521 150.813C153.277 150.649 153.077 150.444 152.919 150.197C150.819 146.903 152.806 141.632 157.422 143.09C158.51 143.433 159.229 144.2 159.58 145.39C160.415 148.224 159.407 151.445 155.989 151.551C155.12 151.579 154.298 151.332 153.521 150.813ZM155.973 150.862C156.343 150.862 156.71 150.769 157.053 150.587C157.395 150.404 157.707 150.137 157.969 149.799C158.231 149.462 158.44 149.061 158.582 148.62C158.725 148.179 158.799 147.705 158.799 147.228C158.801 146.262 158.506 145.336 157.978 144.653C157.45 143.97 156.734 143.585 155.986 143.584C155.615 143.583 155.249 143.677 154.906 143.859C154.564 144.041 154.252 144.309 153.99 144.646C153.727 144.983 153.519 145.384 153.377 145.826C153.234 146.267 153.16 146.74 153.159 147.218C153.158 148.183 153.453 149.109 153.981 149.792C154.509 150.476 155.225 150.86 155.973 150.862Z" fill="white"/>
<path d="M165.609 143.34C164.482 143.314 163.347 143.372 162.205 143.514C162.177 143.518 162.152 143.531 162.134 143.551C162.115 143.571 162.104 143.597 162.104 143.625L162.053 146.795C162.053 146.824 162.062 146.852 162.079 146.875C162.096 146.898 162.12 146.913 162.146 146.919C162.262 146.946 162.38 146.948 162.502 146.925L165.087 146.985L165.068 147.514C164.14 147.473 163.216 147.498 162.294 147.589C162.261 147.592 162.229 147.602 162.202 147.616C162.176 147.631 162.155 147.65 162.141 147.673C162.093 147.755 162.091 147.839 162.137 147.925L162.104 151.471C162.103 151.501 162.093 151.529 162.075 151.551C162.057 151.572 162.032 151.584 162.007 151.585L161.051 151.61C161.039 151.61 161.026 151.608 161.015 151.602C161.003 151.597 160.993 151.589 160.984 151.579C160.975 151.569 160.968 151.557 160.963 151.544C160.958 151.53 160.956 151.516 160.956 151.502L160.954 142.923C160.954 142.897 160.964 142.871 160.983 142.852C161.002 142.833 161.027 142.823 161.053 142.823L165.501 142.819C165.528 142.819 165.554 142.829 165.573 142.847C165.593 142.865 165.604 142.89 165.604 142.916L165.609 143.34Z" fill="white"/>
<path d="M174.397 142.822L174.389 143.348L172.006 143.336C171.975 143.336 171.945 143.345 171.922 143.362C171.899 143.38 171.885 143.403 171.882 143.429L171.832 143.929L171.824 151.623L170.903 151.625C170.877 151.625 170.853 151.615 170.835 151.596C170.816 151.577 170.806 151.551 170.806 151.525L170.783 143.838C170.822 143.692 170.819 143.543 170.775 143.392C170.768 143.367 170.75 143.345 170.727 143.331C170.703 143.316 170.675 143.311 170.647 143.315C169.819 143.431 169 143.375 168.188 143.146C168.205 142.932 168.251 142.824 168.328 142.824C170.35 142.814 172.373 142.813 174.397 142.822Z" fill="white"/>
<path d="M180.07 143.347L176.665 143.336C176.639 143.336 176.613 143.345 176.593 143.363C176.573 143.38 176.56 143.404 176.556 143.431L176.492 143.88L176.494 146.775C176.495 146.805 176.504 146.834 176.521 146.857C176.538 146.881 176.561 146.898 176.588 146.907C176.725 146.951 176.869 146.957 177.019 146.924L179.592 146.988C179.65 147.12 179.665 147.251 179.635 147.38C179.629 147.407 179.613 147.431 179.59 147.449C179.567 147.466 179.538 147.476 179.509 147.477L176.642 147.517C176.616 147.518 176.591 147.528 176.572 147.546C176.553 147.564 176.541 147.588 176.539 147.614L176.492 148.192V150.517L176.516 150.957C176.517 150.982 176.53 151.006 176.551 151.025C176.573 151.043 176.602 151.054 176.632 151.056C177.589 151.103 178.543 151.056 179.495 150.912L180.029 150.848C180.408 150.988 180.458 151.213 180.177 151.525C180.156 151.547 180.13 151.565 180.102 151.578C180.074 151.59 180.043 151.596 180.012 151.596L175.58 151.606C175.553 151.606 175.528 151.595 175.51 151.576C175.491 151.558 175.481 151.532 175.481 151.505L175.482 142.939C175.482 142.912 175.493 142.887 175.511 142.868C175.529 142.849 175.554 142.838 175.58 142.838L179.965 142.822C179.996 142.822 180.026 142.83 180.051 142.846C180.076 142.861 180.094 142.883 180.105 142.91C180.161 143.056 180.149 143.201 180.07 143.347Z" fill="white"/>
<path d="M187.039 151.379C178.993 153.365 179.37 140.908 187.28 143.109C187.31 143.118 187.338 143.132 187.361 143.152C187.384 143.172 187.401 143.196 187.412 143.224C187.503 143.444 187.504 143.643 187.414 143.818C187.389 143.869 187.345 143.908 187.292 143.927C187.239 143.947 187.181 143.945 187.129 143.923C184.111 142.642 181.99 145.026 182.394 147.965C182.734 150.449 185.004 151.443 187.218 150.509C187.243 150.499 187.272 150.497 187.297 150.505C187.323 150.514 187.345 150.531 187.358 150.554C187.606 150.99 187.5 151.266 187.039 151.379Z" fill="white"/>
<path d="M190.024 142.863L189.991 146.4C189.935 146.591 189.957 146.743 190.055 146.855C190.074 146.877 190.099 146.894 190.127 146.906C190.156 146.918 190.189 146.925 190.222 146.925L194.011 146.934C194.042 146.934 194.071 146.925 194.095 146.908C194.119 146.891 194.136 146.867 194.143 146.839C194.181 146.712 194.167 146.581 194.102 146.448L194.161 142.962C194.161 142.932 194.171 142.903 194.188 142.882C194.206 142.861 194.229 142.848 194.254 142.848L195.227 142.823L195.081 151.624H194.254C194.229 151.624 194.204 151.613 194.187 151.594C194.169 151.574 194.159 151.548 194.159 151.521L194.141 147.589C194.141 147.576 194.139 147.563 194.134 147.55C194.129 147.538 194.122 147.527 194.113 147.517C194.104 147.508 194.093 147.501 194.081 147.496C194.069 147.491 194.057 147.488 194.044 147.489L190.42 147.522L190.092 147.525C190.066 147.525 190.041 147.536 190.023 147.554C190.005 147.572 189.995 147.597 189.995 147.622L189.983 151.624L189.057 151.608C189.03 151.608 189.005 151.597 188.987 151.576C188.968 151.556 188.958 151.528 188.958 151.5L188.963 142.97C188.964 142.942 188.973 142.915 188.99 142.893C189.007 142.872 189.03 142.857 189.057 142.852C189.386 142.782 189.708 142.786 190.024 142.863Z" fill="white"/>
<path d="M198.117 144.231C198.445 146.523 198.237 149.141 198.235 151.478C198.235 151.506 198.227 151.533 198.21 151.555C198.193 151.577 198.17 151.592 198.144 151.598C197.879 151.656 197.618 151.659 197.361 151.608C197.335 151.602 197.311 151.587 197.293 151.566C197.276 151.544 197.266 151.516 197.266 151.488L197.268 142.927C197.268 142.9 197.278 142.873 197.296 142.853C197.314 142.833 197.338 142.82 197.365 142.816C197.738 142.771 198.094 142.809 198.432 142.931C198.489 142.952 198.538 142.994 198.569 143.049L202.436 149.881C202.444 149.894 202.453 149.905 202.464 149.915C202.476 149.924 202.488 149.93 202.501 149.934C202.513 149.938 202.526 149.938 202.537 149.935C202.549 149.932 202.559 149.927 202.566 149.918C202.654 149.815 202.415 148.209 202.415 147.93C202.412 146.275 202.412 144.621 202.415 142.967C202.415 142.939 202.424 142.912 202.441 142.891C202.458 142.869 202.482 142.853 202.508 142.847C202.788 142.789 203.064 142.787 203.337 142.84C203.364 142.845 203.388 142.859 203.406 142.88C203.423 142.901 203.433 142.928 203.433 142.956L203.431 151.476C203.431 151.504 203.421 151.532 203.404 151.554C203.387 151.576 203.364 151.591 203.337 151.596C203.024 151.661 202.719 151.646 202.423 151.551C202.365 151.534 202.315 151.493 202.281 151.437C200.903 149.182 199.616 146.876 198.42 144.522C198.388 144.458 198.304 144.353 198.169 144.206C198.125 144.158 198.108 144.166 198.117 144.231Z" fill="white"/>
<path d="M207.414 151.35C204.351 150.525 204.203 145.436 206.501 143.644C207.987 142.485 210.523 142.567 211.753 144.129C212.811 145.475 212.945 147.339 212.479 148.915C211.811 151.176 209.525 151.918 207.414 151.35ZM208.829 150.864C209.198 150.865 209.563 150.771 209.904 150.589C210.245 150.406 210.556 150.139 210.817 149.801C211.078 149.463 211.286 149.062 211.428 148.621C211.57 148.179 211.643 147.706 211.644 147.228C211.645 146.75 211.573 146.276 211.433 145.834C211.292 145.392 211.086 144.99 210.826 144.652C210.566 144.313 210.257 144.045 209.916 143.861C209.576 143.678 209.211 143.583 208.842 143.582C208.473 143.581 208.108 143.675 207.767 143.857C207.426 144.04 207.116 144.307 206.854 144.645C206.593 144.983 206.385 145.384 206.243 145.825C206.101 146.267 206.028 146.74 206.027 147.218C206.026 147.696 206.098 148.17 206.239 148.612C206.379 149.054 206.585 149.456 206.845 149.794C207.105 150.133 207.415 150.401 207.755 150.585C208.095 150.768 208.46 150.863 208.829 150.864Z" fill="white"/>
<path d="M213.899 151.594C213.889 151.594 213.88 151.592 213.871 151.589C213.862 151.585 213.854 151.579 213.847 151.572C213.84 151.565 213.834 151.557 213.831 151.548C213.827 151.538 213.825 151.529 213.825 151.519V142.97C213.825 142.941 213.835 142.914 213.852 142.892C213.87 142.87 213.895 142.855 213.922 142.849C214.25 142.784 214.572 142.784 214.887 142.849C214.914 142.855 214.939 142.87 214.956 142.891C214.973 142.913 214.983 142.94 214.983 142.968L214.965 150.773C214.965 150.798 214.975 150.823 214.993 150.841C215.011 150.859 215.035 150.87 215.06 150.87L218.345 150.848C218.412 150.848 218.475 150.869 218.521 150.906C218.77 151.101 218.763 151.31 218.5 151.532C218.451 151.573 218.39 151.596 218.327 151.596L213.899 151.594Z" fill="white"/>
<path d="M221.629 151.407C218.851 150.818 218.42 147.072 219.415 144.97C220.735 142.172 225.105 142.084 226.296 145.047C227.657 148.438 225.793 152.292 221.629 151.407ZM222.819 150.864C223.188 150.865 223.553 150.771 223.895 150.589C224.236 150.406 224.546 150.139 224.808 149.801C225.069 149.464 225.277 149.063 225.419 148.621C225.561 148.18 225.635 147.706 225.635 147.228C225.636 146.75 225.564 146.276 225.424 145.834C225.283 145.392 225.077 144.991 224.817 144.652C224.556 144.314 224.247 144.045 223.906 143.861C223.566 143.678 223.2 143.583 222.831 143.582C222.462 143.582 222.097 143.675 221.755 143.858C221.414 144.04 221.104 144.308 220.842 144.645C220.581 144.983 220.373 145.384 220.231 145.825C220.089 146.267 220.016 146.74 220.015 147.218C220.014 147.696 220.086 148.17 220.226 148.612C220.367 149.054 220.573 149.456 220.833 149.794C221.094 150.133 221.403 150.401 221.744 150.585C222.084 150.769 222.45 150.863 222.819 150.864Z" fill="white"/>
<path d="M234.562 151.273C232.082 151.67 229.08 152.09 228 149.108C226.617 145.281 229.757 142.013 233.729 143.059C234.131 143.165 234.568 143.441 234.135 143.869C234.115 143.889 234.089 143.903 234.061 143.91C234.032 143.917 234.001 143.916 233.972 143.908C233.492 143.774 233.028 143.625 232.55 143.601C227.095 143.355 227.833 152.42 233.376 150.631C233.403 150.622 233.428 150.605 233.445 150.582C233.462 150.558 233.471 150.53 233.471 150.502V148.122C233.471 148.097 233.46 148.072 233.442 148.053C233.423 148.035 233.397 148.023 233.37 148.021L232.026 147.928C231.994 147.926 231.963 147.917 231.936 147.903C231.908 147.889 231.884 147.869 231.865 147.845C231.752 147.702 231.738 147.547 231.822 147.38C231.835 147.355 231.854 147.334 231.88 147.318C231.905 147.302 231.936 147.292 231.968 147.289C232.839 147.209 233.71 147.196 234.58 147.25C234.606 147.252 234.631 147.264 234.648 147.283C234.666 147.302 234.676 147.327 234.675 147.353L234.659 151.16C234.659 151.187 234.649 151.214 234.631 151.234C234.613 151.255 234.589 151.268 234.562 151.273Z" fill="white"/>
<path d="M238.808 146.88C238.825 146.888 238.843 146.892 238.862 146.893C238.88 146.894 238.899 146.891 238.917 146.885C238.935 146.878 238.951 146.868 238.965 146.855C238.979 146.843 238.99 146.827 238.998 146.81L240.793 143.004C240.806 142.976 240.825 142.951 240.848 142.931C240.871 142.911 240.898 142.895 240.927 142.886C241.323 142.76 241.714 142.785 242.102 142.962C242.112 142.966 242.121 142.974 242.129 142.983C242.136 142.992 242.14 143.002 242.142 143.013C242.144 143.024 242.143 143.036 242.14 143.046C242.136 143.056 242.129 143.065 242.121 143.072L242.02 143.156C241.954 143.209 241.91 143.254 241.888 143.291C241.102 144.672 240.325 146.057 239.555 147.446C239.14 148.195 239.361 150.509 239.342 151.455C239.341 151.484 239.331 151.512 239.313 151.534C239.295 151.555 239.27 151.567 239.245 151.569L238.297 151.627C238.285 151.628 238.273 151.626 238.261 151.621C238.25 151.616 238.239 151.608 238.23 151.598C238.221 151.588 238.214 151.576 238.209 151.563C238.204 151.549 238.202 151.535 238.202 151.521L238.186 148.349C238.185 147.978 238.096 147.629 237.92 147.302L235.632 143.053C235.626 143.042 235.623 143.03 235.622 143.017C235.621 143.005 235.623 142.993 235.627 142.981C235.631 142.969 235.638 142.959 235.646 142.95C235.655 142.941 235.665 142.934 235.677 142.929C236.001 142.796 236.334 142.773 236.677 142.861C236.706 142.868 236.733 142.882 236.756 142.902C236.78 142.922 236.799 142.947 236.813 142.975C237.058 143.471 238.555 146.76 238.808 146.88Z" fill="white"/>
<path d="M248.163 148.155L248.147 151.472C248.147 151.502 248.137 151.53 248.119 151.551C248.102 151.572 248.077 151.584 248.052 151.585L247.098 151.61C247.085 151.61 247.073 151.608 247.061 151.602C247.049 151.597 247.038 151.589 247.029 151.579C247.02 151.569 247.013 151.557 247.008 151.543C247.003 151.53 247.001 151.516 247.001 151.501L247.021 143.022C247.021 143.01 247.023 142.998 247.028 142.986C247.033 142.975 247.04 142.965 247.05 142.957C247.059 142.949 247.07 142.942 247.081 142.939C247.093 142.935 247.105 142.934 247.118 142.935C247.933 143.011 248.691 142.778 249.433 142.865C250.734 143.018 251.872 143.055 252.16 144.609C252.408 145.953 251.95 146.983 250.785 147.702C250.685 147.764 250.69 147.815 250.8 147.855C252.041 148.304 252.024 150.184 252.511 151.319C252.522 151.345 252.523 151.373 252.515 151.398C252.507 151.424 252.49 151.446 252.466 151.459C252.105 151.66 251.751 151.665 251.404 151.472C251.378 151.458 251.356 151.437 251.338 151.412C251.32 151.387 251.307 151.358 251.299 151.327C250.866 149.519 250.845 147.611 248.26 148.041C248.233 148.045 248.208 148.059 248.19 148.08C248.173 148.101 248.163 148.127 248.163 148.155ZM251.109 145.528C251.293 143.921 249.577 143.282 248.328 143.743C248.277 143.762 248.234 143.795 248.204 143.839C248.173 143.883 248.157 143.934 248.157 143.987L248.153 146.954C248.153 146.993 248.161 147.031 248.176 147.067C248.191 147.103 248.213 147.135 248.241 147.163C248.268 147.19 248.301 147.212 248.338 147.226C248.374 147.241 248.413 147.249 248.452 147.248C249.848 147.233 250.915 147.217 251.109 145.528Z" fill="white"/>
<path d="M255.912 151.399C253.512 150.856 252.933 147.859 253.397 145.896C254.203 142.472 259.233 141.584 260.649 144.983C262.036 148.306 260.154 152.358 255.912 151.399ZM257.151 150.862C257.521 150.863 257.887 150.769 258.23 150.587C258.572 150.405 258.883 150.137 259.145 149.8C259.407 149.462 259.616 149.061 259.758 148.62C259.901 148.179 259.974 147.706 259.975 147.228C259.976 146.75 259.904 146.277 259.763 145.835C259.622 145.393 259.415 144.992 259.154 144.653C258.893 144.315 258.583 144.046 258.241 143.863C257.9 143.68 257.533 143.585 257.163 143.584C256.793 143.583 256.427 143.677 256.084 143.859C255.742 144.042 255.431 144.309 255.169 144.647C254.907 144.984 254.698 145.385 254.556 145.826C254.413 146.267 254.34 146.74 254.339 147.218C254.338 147.696 254.41 148.169 254.551 148.611C254.692 149.053 254.899 149.454 255.16 149.793C255.421 150.131 255.731 150.4 256.073 150.583C256.414 150.767 256.781 150.861 257.151 150.862Z" fill="white"/>
<path fill-rule="evenodd" clip-rule="evenodd" d="M264.606 151.389C260.368 150.389 261.197 142.131 266.497 142.923C267.902 143.132 268.875 143.83 269.37 145.144C270.634 148.488 268.746 152.364 264.606 151.389ZM267.824 149.794C267.296 150.477 266.581 150.86 265.835 150.86C265.089 150.86 264.374 150.477 263.846 149.794C263.319 149.112 263.023 148.186 263.023 147.221C263.023 146.256 263.319 145.33 263.846 144.648C264.374 143.965 265.089 143.582 265.835 143.582C266.581 143.582 267.296 143.965 267.824 144.648C268.351 145.33 268.647 146.256 268.647 147.221C268.647 148.186 268.351 149.112 267.824 149.794Z" fill="white"/>
<path d="M274.665 147.831C275.768 148.331 275.963 150.273 276.341 151.403C276.345 151.415 276.347 151.427 276.345 151.44C276.344 151.452 276.34 151.464 276.334 151.475C276.328 151.486 276.32 151.496 276.31 151.503C276.3 151.511 276.289 151.516 276.277 151.519C275.959 151.604 275.641 151.616 275.325 151.554C275.297 151.548 275.271 151.535 275.25 151.516C275.228 151.497 275.212 151.471 275.203 151.443C274.622 149.632 274.887 147.696 272.107 148.017C272.08 148.021 272.055 148.034 272.036 148.054C272.018 148.075 272.008 148.101 272.008 148.128L272.012 151.474C272.013 151.5 272.004 151.526 271.987 151.545C271.969 151.564 271.946 151.575 271.921 151.577L270.985 151.637C270.965 151.638 270.944 151.636 270.925 151.629C270.906 151.622 270.889 151.611 270.874 151.597C270.859 151.584 270.848 151.567 270.839 151.548C270.831 151.53 270.827 151.51 270.827 151.49L270.833 143.266C270.833 143.222 270.843 143.178 270.86 143.138C270.878 143.098 270.904 143.062 270.937 143.032C270.969 143.002 271.008 142.98 271.049 142.966C271.091 142.951 271.135 142.946 271.179 142.95C271.82 143.009 272.564 142.822 273.148 142.848C273.943 142.883 275.137 143.005 275.63 143.729C276.699 145.299 275.962 146.642 274.652 147.731C274.644 147.737 274.638 147.746 274.634 147.755C274.63 147.764 274.629 147.775 274.63 147.785C274.632 147.795 274.636 147.804 274.642 147.813C274.648 147.821 274.656 147.827 274.665 147.831ZM274.894 144.793C274.636 143.644 273.03 143.421 272.127 143.791C272.101 143.802 272.079 143.821 272.063 143.845C272.047 143.869 272.039 143.896 272.039 143.925L272.012 147.144C272.012 147.169 272.022 147.194 272.04 147.212C272.058 147.23 272.082 147.24 272.107 147.24C272.803 147.233 273.63 147.316 274.199 146.932C274.88 146.471 275.112 145.758 274.894 144.793Z" fill="white"/>
<path d="M278.944 146.742L281.811 143.008C281.853 142.954 281.905 142.917 281.961 142.902C282.322 142.8 282.701 142.8 283.099 142.902C283.12 142.907 283.139 142.918 283.155 142.933C283.171 142.948 283.182 142.967 283.188 142.988C283.195 143.008 283.195 143.03 283.191 143.051C283.186 143.072 283.176 143.091 283.161 143.107C282.151 144.218 281.208 145.369 280.333 146.56C280.317 146.582 280.308 146.609 280.307 146.637C280.307 146.665 280.315 146.693 280.331 146.717L283.437 151.4C283.445 151.413 283.451 151.428 283.453 151.443C283.455 151.458 283.453 151.473 283.448 151.487C283.443 151.5 283.434 151.512 283.424 151.521C283.413 151.529 283.4 151.535 283.386 151.536L282.483 151.627C282.434 151.632 282.381 151.619 282.33 151.588C282.279 151.557 282.233 151.51 282.196 151.453L279.692 147.589C279.529 147.336 279.346 147.322 279.144 147.548C278.478 148.29 278.744 150.495 278.737 151.476C278.736 151.512 278.723 151.546 278.702 151.571C278.68 151.596 278.65 151.61 278.62 151.61L277.672 151.594C277.647 151.594 277.623 151.581 277.605 151.559C277.587 151.538 277.577 151.508 277.577 151.478V142.927C277.577 142.913 277.58 142.899 277.585 142.886C277.589 142.873 277.597 142.861 277.606 142.851C277.615 142.841 277.625 142.833 277.637 142.828C277.649 142.823 277.662 142.82 277.674 142.82L278.583 142.834C278.609 142.834 278.634 142.846 278.652 142.866C278.67 142.887 278.68 142.914 278.68 142.942L278.688 146.651C278.688 146.934 278.773 146.964 278.944 146.742Z" fill="white"/>
<path d="M288.945 143.299L285.49 143.349C285.46 143.35 285.432 143.359 285.409 143.375C285.386 143.391 285.369 143.413 285.362 143.439C285.328 143.566 285.325 143.698 285.352 143.832L285.354 146.777C285.355 146.807 285.364 146.835 285.38 146.859C285.396 146.882 285.419 146.9 285.445 146.909C285.568 146.95 285.697 146.955 285.83 146.924L288.46 146.983L288.462 147.391C288.461 147.415 288.449 147.438 288.428 147.455C288.407 147.472 288.377 147.482 288.347 147.482L285.445 147.521C285.421 147.521 285.398 147.532 285.381 147.55C285.364 147.569 285.354 147.594 285.354 147.62L285.385 150.792C285.386 150.834 285.401 150.874 285.428 150.905C285.454 150.936 285.491 150.956 285.531 150.961C286.646 151.095 287.779 151.141 288.93 151.098L288.945 151.583C287.441 151.658 285.93 151.662 284.412 151.596C284.387 151.595 284.362 151.584 284.345 151.565C284.327 151.546 284.317 151.52 284.317 151.493L284.342 142.941C284.342 142.914 284.353 142.888 284.371 142.869C284.39 142.85 284.415 142.84 284.441 142.84L288.825 142.822C288.852 142.822 288.878 142.833 288.898 142.851C288.917 142.869 288.929 142.895 288.93 142.921L288.945 143.299Z" fill="white"/>
<path d="M295.153 143.291L291.705 143.35C291.675 143.35 291.647 143.359 291.624 143.375C291.601 143.391 291.584 143.414 291.577 143.439C291.543 143.567 291.54 143.698 291.567 143.832L291.569 146.777C291.57 146.807 291.579 146.835 291.595 146.859C291.612 146.882 291.634 146.9 291.661 146.909C291.784 146.95 291.912 146.956 292.045 146.925L294.671 147C294.699 147.15 294.699 147.281 294.669 147.392C294.662 147.416 294.646 147.438 294.623 147.454C294.599 147.47 294.57 147.478 294.539 147.479L291.713 147.52C291.684 147.52 291.657 147.53 291.634 147.547C291.611 147.565 291.595 147.589 291.587 147.616C291.543 147.771 291.536 147.931 291.567 148.095L291.616 150.614C291.541 150.743 291.528 150.874 291.577 151.005C291.587 151.031 291.605 151.053 291.63 151.069C291.654 151.084 291.684 151.093 291.715 151.093L295.042 151.077C295.075 151.077 295.108 151.086 295.132 151.102C295.156 151.119 295.171 151.142 295.172 151.166L295.205 151.577C293.678 151.652 292.153 151.662 290.627 151.608C290.602 151.607 290.577 151.596 290.56 151.577C290.542 151.558 290.532 151.533 290.532 151.507L290.538 142.914C290.538 142.888 290.548 142.863 290.566 142.845C290.584 142.827 290.608 142.817 290.633 142.817H295.044C295.071 142.817 295.098 142.827 295.117 142.845C295.137 142.863 295.148 142.888 295.149 142.914L295.153 143.291Z" fill="white"/>
</svg>
