<svg width="1080" height="400" viewBox="0 0 1080 400" fill="none" xmlns="http://www.w3.org/2000/svg">
<path d="M47.5312 146.281H30.375V134.422H47.5312C50.0625 134.422 52.0938 134 53.625 133.156C55.1875 132.313 56.3281 131.156 57.0469 129.688C57.7969 128.188 58.1719 126.5 58.1719 124.625C58.1719 122.688 57.7969 120.891 57.0469 119.234C56.3281 117.547 55.1875 116.188 53.625 115.156C52.0938 114.125 50.0625 113.609 47.5312 113.609H35.9062V170H20.625V101.75H47.5312C52.9688 101.75 57.625 102.734 61.5 104.703C65.4062 106.672 68.3906 109.375 70.4531 112.813C72.5469 116.219 73.5938 120.125 73.5938 124.531C73.5938 128.938 72.5469 132.766 70.4531 136.016C68.3906 139.266 65.4062 141.797 61.5 143.609C57.625 145.391 52.9688 146.281 47.5312 146.281ZM82.875 101.75H109.078C114.297 101.75 118.812 102.531 122.625 104.094C126.469 105.656 129.422 107.969 131.484 111.031C133.547 114.094 134.578 117.875 134.578 122.375C134.578 126.125 133.969 129.313 132.75 131.938C131.531 134.563 129.812 136.734 127.594 138.453C125.406 140.172 122.844 141.563 119.906 142.625L114.938 145.344H92.625L92.5312 133.484H109.125C111.406 133.484 113.297 133.078 114.797 132.266C116.297 131.453 117.422 130.313 118.172 128.844C118.953 127.344 119.344 125.594 119.344 123.594C119.344 121.531 118.953 119.75 118.172 118.25C117.391 116.75 116.234 115.609 114.703 114.828C113.203 114.016 111.328 113.609 109.078 113.609H98.1562V170H82.875V101.75ZM120.656 170L105.328 139.672L121.453 139.625L137.016 169.297V170H120.656ZM201.844 134.375V137.422C201.844 142.609 201.125 147.266 199.688 151.391C198.281 155.516 196.266 159.031 193.641 161.938C191.047 164.844 187.953 167.078 184.359 168.641C180.797 170.172 176.844 170.938 172.5 170.938C168.156 170.938 164.188 170.172 160.594 168.641C157 167.078 153.875 164.844 151.219 161.938C148.594 159.031 146.562 155.516 145.125 151.391C143.688 147.266 142.969 142.609 142.969 137.422V134.375C142.969 129.188 143.688 124.531 145.125 120.406C146.562 116.25 148.578 112.719 151.172 109.813C153.797 106.906 156.906 104.688 160.5 103.156C164.094 101.594 168.062 100.813 172.406 100.813C176.75 100.813 180.719 101.594 184.312 103.156C187.906 104.688 191 106.906 193.594 109.813C196.219 112.719 198.25 116.25 199.688 120.406C201.125 124.531 201.844 129.188 201.844 134.375ZM186.422 137.422V134.281C186.422 130.813 186.109 127.75 185.484 125.094C184.859 122.406 183.953 120.156 182.766 118.344C181.578 116.531 180.109 115.172 178.359 114.266C176.609 113.328 174.625 112.859 172.406 112.859C170.094 112.859 168.078 113.328 166.359 114.266C164.641 115.172 163.188 116.531 162 118.344C160.844 120.156 159.953 122.406 159.328 125.094C158.734 127.75 158.438 130.813 158.438 134.281V137.422C158.438 140.859 158.734 143.922 159.328 146.609C159.953 149.266 160.859 151.516 162.047 153.359C163.234 155.203 164.688 156.594 166.406 157.531C168.156 158.469 170.188 158.938 172.5 158.938C174.719 158.938 176.688 158.469 178.406 157.531C180.156 156.594 181.625 155.203 182.812 153.359C184 151.516 184.891 149.266 185.484 146.609C186.109 143.922 186.422 140.859 186.422 137.422ZM238.641 148.813V101.75H253.828V148.813C253.828 153.375 252.797 157.313 250.734 160.625C248.703 163.906 245.938 166.453 242.438 168.266C238.969 170.047 235.047 170.938 230.672 170.938C226.172 170.938 222.172 170.188 218.672 168.688C215.172 167.156 212.422 164.828 210.422 161.703C208.453 158.547 207.469 154.531 207.469 149.656H222.75C222.75 152.063 223.047 153.969 223.641 155.375C224.266 156.75 225.172 157.719 226.359 158.281C227.547 158.844 228.984 159.125 230.672 159.125C232.297 159.125 233.703 158.734 234.891 157.953C236.078 157.141 237 155.969 237.656 154.438C238.312 152.875 238.641 151 238.641 148.813ZM311.438 158.188V170H275.109V158.188H311.438ZM280.312 101.75V170H265.031V101.75H280.312ZM306.75 129.219V140.656H275.109V129.219H306.75ZM311.484 101.75V113.609H275.109V101.75H311.484ZM358.172 147.125H373.359C373.109 151.813 371.828 155.953 369.516 159.547C367.234 163.109 364.062 165.906 360 167.938C355.938 169.938 351.109 170.938 345.516 170.938C341.047 170.938 337.047 170.172 333.516 168.641C329.984 167.109 326.984 164.922 324.516 162.078C322.078 159.203 320.203 155.75 318.891 151.719C317.609 147.656 316.969 143.078 316.969 137.984V133.813C316.969 128.719 317.641 124.141 318.984 120.078C320.328 116.016 322.25 112.547 324.75 109.672C327.25 106.797 330.25 104.594 333.75 103.063C337.25 101.531 341.156 100.766 345.469 100.766C351.281 100.766 356.188 101.813 360.188 103.906C364.188 106 367.281 108.875 369.469 112.531C371.688 116.188 373.016 120.359 373.453 125.047H358.219C358.094 122.391 357.594 120.156 356.719 118.344C355.844 116.5 354.5 115.109 352.688 114.172C350.875 113.234 348.469 112.766 345.469 112.766C343.281 112.766 341.359 113.172 339.703 113.984C338.078 114.797 336.719 116.063 335.625 117.781C334.562 119.5 333.766 121.688 333.234 124.344C332.703 126.969 332.438 130.094 332.438 133.719V137.984C332.438 141.578 332.672 144.688 333.141 147.313C333.609 149.938 334.359 152.109 335.391 153.828C336.453 155.547 337.812 156.828 339.469 157.672C341.125 158.516 343.141 158.938 345.516 158.938C348.234 158.938 350.5 158.516 352.312 157.672C354.125 156.797 355.516 155.484 356.484 153.734C357.453 151.984 358.016 149.781 358.172 147.125ZM412.219 101.75V170H396.984V101.75H412.219ZM432.984 101.75V113.609H376.641V101.75H432.984ZM456 134.938V146.375H428.719V134.938H456ZM519.375 146.281H502.219V134.422H519.375C521.906 134.422 523.938 134 525.469 133.156C527.031 132.313 528.172 131.156 528.891 129.688C529.641 128.188 530.016 126.5 530.016 124.625C530.016 122.688 529.641 120.891 528.891 119.234C528.172 117.547 527.031 116.188 525.469 115.156C523.938 114.125 521.906 113.609 519.375 113.609H507.75V170H492.469V101.75H519.375C524.812 101.75 529.469 102.734 533.344 104.703C537.25 106.672 540.234 109.375 542.297 112.813C544.391 116.219 545.438 120.125 545.438 124.531C545.438 128.938 544.391 132.766 542.297 136.016C540.234 139.266 537.25 141.797 533.344 143.609C529.469 145.391 524.812 146.281 519.375 146.281ZM575.016 114.734L557.391 170H541.078L566.344 101.75H576.656L575.016 114.734ZM589.641 170L571.969 114.734L570.141 101.75H580.594L605.953 170H589.641ZM588.891 144.594V156.406H553.312V144.594H588.891ZM611.625 101.75H637.828C643.047 101.75 647.562 102.531 651.375 104.094C655.219 105.656 658.172 107.969 660.234 111.031C662.297 114.094 663.328 117.875 663.328 122.375C663.328 126.125 662.719 129.313 661.5 131.938C660.281 134.563 658.562 136.734 656.344 138.453C654.156 140.172 651.594 141.563 648.656 142.625L643.688 145.344H621.375L621.281 133.484H637.875C640.156 133.484 642.047 133.078 643.547 132.266C645.047 131.453 646.172 130.313 646.922 128.844C647.703 127.344 648.094 125.594 648.094 123.594C648.094 121.531 647.703 119.75 646.922 118.25C646.141 116.75 644.984 115.609 643.453 114.828C641.953 114.016 640.078 113.609 637.828 113.609H626.906V170H611.625V101.75ZM649.406 170L634.078 139.672L650.203 139.625L665.766 169.297V170H649.406ZM697.969 154.859L713.156 101.75H730.172L706.781 170H695.672L697.969 154.859ZM684.141 101.75L699.281 154.859L701.672 170H690.422L667.172 101.75H684.141ZM760.641 114.734L743.016 170H726.703L751.969 101.75H762.281L760.641 114.734ZM775.266 170L757.594 114.734L755.766 101.75H766.219L791.578 170H775.266ZM774.516 144.594V156.406H738.938V144.594H774.516ZM823.312 101.75V170H808.078V101.75H823.312ZM844.078 101.75V113.609H787.734V101.75H844.078ZM867.891 101.75V170H852.656V101.75H867.891Z" fill="#9C4C03"/>
<path opacity="0.9" d="M23.5469 201.25L31.1562 201.266C32.5417 201.297 33.7812 201.557 34.875 202.047C35.9792 202.536 36.8281 203.271 37.4219 204.25C38.026 205.229 38.2656 206.469 38.1406 207.969C38.0469 209.177 37.7344 210.208 37.2031 211.062C36.6823 211.906 35.9948 212.62 35.1406 213.203C34.2969 213.786 33.3385 214.271 32.2656 214.656L31 215.219H23.7656L24.2812 212.109L29.3438 212.125C30.1771 212.125 30.9479 211.974 31.6562 211.672C32.3646 211.359 32.9531 210.911 33.4219 210.328C33.8906 209.734 34.1823 209.01 34.2969 208.156C34.401 207.365 34.3385 206.693 34.1094 206.141C33.8802 205.589 33.5052 205.167 32.9844 204.875C32.4635 204.573 31.8177 204.411 31.0469 204.391L26.8438 204.375L23.4375 224H19.5938L23.5469 201.25ZM32.2969 224L28.875 213.781L32.7031 213.766L36.375 223.781V224H32.2969ZM46.535 224.312C45.3787 224.292 44.3527 224.068 43.4569 223.641C42.5715 223.203 41.8371 222.615 41.2537 221.875C40.6704 221.125 40.2485 220.266 39.9881 219.297C39.7277 218.318 39.6392 217.276 39.7225 216.172L39.785 215.531C39.8996 214.396 40.1756 213.302 40.6131 212.25C41.0506 211.188 41.634 210.245 42.3631 209.422C43.1027 208.589 43.9725 207.932 44.9725 207.453C45.9725 206.974 47.0871 206.75 48.3162 206.781C49.4933 206.802 50.4881 207.047 51.3006 207.516C52.1131 207.984 52.759 208.609 53.2381 209.391C53.7173 210.161 54.035 211.036 54.1912 212.016C54.3579 212.995 54.384 214.01 54.2694 215.062L54.0506 216.672H41.3631L41.8006 213.969L50.7537 213.984L50.8162 213.656C50.91 213 50.8735 212.38 50.7069 211.797C50.5506 211.214 50.259 210.734 49.8319 210.359C49.4048 209.984 48.8319 209.786 48.1131 209.766C47.3319 209.745 46.66 209.906 46.0975 210.25C45.5454 210.594 45.0871 211.057 44.7225 211.641C44.3579 212.224 44.0715 212.859 43.8631 213.547C43.6652 214.224 43.5246 214.885 43.4412 215.531L43.3787 216.156C43.3162 216.771 43.3319 217.38 43.4256 217.984C43.5194 218.589 43.7017 219.141 43.9725 219.641C44.2433 220.13 44.6183 220.531 45.0975 220.844C45.5767 221.146 46.1704 221.307 46.8787 221.328C47.7642 221.349 48.5662 221.167 49.285 220.781C50.0142 220.385 50.6756 219.875 51.2694 219.25L53.0819 221.172C52.6027 221.891 52.009 222.484 51.3006 222.953C50.6027 223.422 49.8423 223.771 49.0194 224C48.2069 224.219 47.3787 224.323 46.535 224.312ZM61.4762 220.859L67.6012 207.094H71.5387L63.1794 224H60.7262L61.4762 220.859ZM60.5231 207.094L62.4606 221.25L62.2106 224H59.9137L56.82 207.094H60.5231ZM71.5894 215.828L71.6362 215.469C71.7612 214.302 72.0477 213.193 72.4956 212.141C72.9435 211.089 73.5373 210.156 74.2769 209.344C75.0269 208.521 75.9071 207.88 76.9175 207.422C77.9383 206.964 79.0737 206.75 80.3237 206.781C81.5321 206.802 82.5685 207.052 83.4331 207.531C84.3081 208.01 85.0165 208.651 85.5581 209.453C86.1102 210.245 86.4956 211.151 86.7144 212.172C86.9331 213.182 86.9904 214.24 86.8862 215.344L86.855 215.703C86.7196 216.87 86.4227 217.974 85.9644 219.016C85.5165 220.057 84.9175 220.984 84.1675 221.797C83.4279 222.599 82.5477 223.229 81.5269 223.688C80.5165 224.135 79.3915 224.344 78.1519 224.312C76.954 224.292 75.9175 224.047 75.0425 223.578C74.1779 223.099 73.4696 222.464 72.9175 221.672C72.3758 220.88 71.9956 219.984 71.7769 218.984C71.5581 217.974 71.4956 216.922 71.5894 215.828ZM75.2925 215.469L75.2612 215.828C75.2092 216.401 75.204 217.005 75.2456 217.641C75.2873 218.276 75.4123 218.87 75.6206 219.422C75.829 219.974 76.1519 220.427 76.5894 220.781C77.0269 221.135 77.6102 221.323 78.3394 221.344C79.1102 221.365 79.7821 221.208 80.355 220.875C80.9279 220.542 81.4071 220.094 81.7925 219.531C82.1779 218.969 82.4852 218.354 82.7144 217.688C82.9435 217.01 83.0946 216.349 83.1675 215.703L83.1987 215.344C83.2612 214.781 83.2717 214.182 83.23 213.547C83.1883 212.901 83.0633 212.297 82.855 211.734C82.6467 211.161 82.3237 210.698 81.8862 210.344C81.4487 209.979 80.8654 209.786 80.1362 209.766C79.355 209.745 78.6779 209.906 78.105 210.25C77.5321 210.583 77.0529 211.036 76.6675 211.609C76.2821 212.182 75.9748 212.807 75.7456 213.484C75.5269 214.161 75.3758 214.823 75.2925 215.469ZM96.7025 200L92.5306 224H88.8587L93.015 200H96.7025ZM107.269 219.828L109.472 207.094H113.159L110.222 224H106.753L107.269 219.828ZM108.3 216.5L109.519 216.453C109.394 217.474 109.165 218.464 108.831 219.422C108.498 220.37 108.045 221.219 107.472 221.969C106.899 222.719 106.185 223.307 105.331 223.734C104.477 224.161 103.472 224.359 102.316 224.328C101.388 224.297 100.607 224.115 99.9719 223.781C99.3469 223.438 98.8521 222.974 98.4875 222.391C98.1229 221.807 97.8781 221.141 97.7531 220.391C97.6385 219.641 97.6229 218.849 97.7063 218.016L99.5344 207.094H103.206L101.363 218.062C101.331 218.469 101.331 218.859 101.363 219.234C101.394 219.609 101.482 219.948 101.628 220.25C101.774 220.552 101.987 220.797 102.269 220.984C102.56 221.161 102.941 221.26 103.409 221.281C104.409 221.312 105.243 221.12 105.909 220.703C106.587 220.276 107.118 219.693 107.503 218.953C107.899 218.214 108.165 217.396 108.3 216.5ZM124.585 207.094L124.101 209.844H114.851L115.319 207.094H124.585ZM118.71 202.953H122.382L119.585 219.359C119.543 219.724 119.543 220.042 119.585 220.312C119.637 220.583 119.757 220.797 119.944 220.953C120.142 221.099 120.444 221.177 120.851 221.188C121.069 221.198 121.288 221.188 121.507 221.156C121.736 221.125 121.965 221.094 122.194 221.062L121.929 223.969C121.554 224.083 121.168 224.167 120.772 224.219C120.387 224.271 119.996 224.292 119.601 224.281C118.663 224.271 117.908 224.057 117.335 223.641C116.762 223.214 116.361 222.646 116.132 221.938C115.903 221.229 115.83 220.438 115.913 219.562L118.71 202.953ZM131.479 207.094L128.542 224H124.87L127.808 207.094H131.479ZM128.323 202.719C128.313 202.115 128.511 201.62 128.917 201.234C129.323 200.849 129.823 200.651 130.417 200.641C130.99 200.63 131.479 200.807 131.886 201.172C132.302 201.526 132.511 202 132.511 202.594C132.521 203.198 132.318 203.688 131.901 204.062C131.495 204.438 131 204.63 130.417 204.641C129.844 204.651 129.354 204.484 128.948 204.141C128.542 203.786 128.334 203.312 128.323 202.719ZM133.452 215.828L133.499 215.469C133.624 214.302 133.91 213.193 134.358 212.141C134.806 211.089 135.4 210.156 136.139 209.344C136.889 208.521 137.77 207.88 138.78 207.422C139.801 206.964 140.936 206.75 142.186 206.781C143.395 206.802 144.431 207.052 145.296 207.531C146.171 208.01 146.879 208.651 147.421 209.453C147.973 210.245 148.358 211.151 148.577 212.172C148.796 213.182 148.853 214.24 148.749 215.344L148.717 215.703C148.582 216.87 148.285 217.974 147.827 219.016C147.379 220.057 146.78 220.984 146.03 221.797C145.29 222.599 144.41 223.229 143.389 223.688C142.379 224.135 141.254 224.344 140.014 224.312C138.816 224.292 137.78 224.047 136.905 223.578C136.04 223.099 135.332 222.464 134.78 221.672C134.238 220.88 133.858 219.984 133.639 218.984C133.421 217.974 133.358 216.922 133.452 215.828ZM137.155 215.469L137.124 215.828C137.072 216.401 137.066 217.005 137.108 217.641C137.15 218.276 137.275 218.87 137.483 219.422C137.691 219.974 138.014 220.427 138.452 220.781C138.889 221.135 139.473 221.323 140.202 221.344C140.973 221.365 141.645 221.208 142.217 220.875C142.79 220.542 143.27 220.094 143.655 219.531C144.04 218.969 144.348 218.354 144.577 217.688C144.806 217.01 144.957 216.349 145.03 215.703L145.061 215.344C145.124 214.781 145.134 214.182 145.092 213.547C145.051 212.901 144.926 212.297 144.717 211.734C144.509 211.161 144.186 210.698 143.749 210.344C143.311 209.979 142.728 209.786 141.999 209.766C141.217 209.745 140.54 209.906 139.967 210.25C139.395 210.583 138.915 211.036 138.53 211.609C138.145 212.182 137.837 212.807 137.608 213.484C137.389 214.161 137.238 214.823 137.155 215.469ZM156.378 210.922L154.112 224H150.424L153.362 207.094H156.815L156.378 210.922ZM155.081 214.922L153.956 214.938C154.081 213.927 154.325 212.932 154.69 211.953C155.065 210.964 155.56 210.078 156.174 209.297C156.789 208.505 157.534 207.88 158.409 207.422C159.294 206.964 160.315 206.75 161.471 206.781C162.388 206.802 163.148 206.984 163.753 207.328C164.367 207.672 164.841 208.135 165.174 208.719C165.518 209.302 165.742 209.969 165.846 210.719C165.95 211.469 165.956 212.255 165.862 213.078L164.049 224H160.346L162.19 213.031C162.253 212.427 162.232 211.885 162.128 211.406C162.023 210.917 161.794 210.531 161.44 210.25C161.086 209.958 160.575 209.807 159.909 209.797C159.18 209.776 158.539 209.911 157.987 210.203C157.435 210.495 156.961 210.896 156.565 211.406C156.169 211.906 155.846 212.464 155.596 213.078C155.357 213.693 155.185 214.307 155.081 214.922ZM174.772 207.094L171.834 224H168.163L171.1 207.094H174.772ZM171.616 202.719C171.605 202.115 171.803 201.62 172.209 201.234C172.616 200.849 173.116 200.651 173.709 200.641C174.282 200.63 174.772 200.807 175.178 201.172C175.595 201.526 175.803 202 175.803 202.594C175.814 203.198 175.61 203.688 175.194 204.062C174.788 204.438 174.293 204.63 173.709 204.641C173.136 204.651 172.647 204.484 172.241 204.141C171.834 203.786 171.626 203.312 171.616 202.719ZM189.213 221L188.682 224H176.447L176.979 221H189.213ZM190.854 209.609L177.838 224H175.322L175.776 221.406L188.713 207.094H191.291L190.854 209.609ZM189.885 207.094L189.354 210.094H177.916L178.447 207.094H189.885ZM198.623 207.094L195.686 224H192.014L194.951 207.094H198.623ZM195.467 202.719C195.456 202.115 195.654 201.62 196.061 201.234C196.467 200.849 196.967 200.651 197.561 200.641C198.134 200.63 198.623 200.807 199.029 201.172C199.446 201.526 199.654 202 199.654 202.594C199.665 203.198 199.462 203.688 199.045 204.062C198.639 204.438 198.144 204.63 197.561 204.641C196.988 204.651 196.498 204.484 196.092 204.141C195.686 203.786 195.477 203.312 195.467 202.719ZM205.736 210.922L203.471 224H199.783L202.721 207.094H206.174L205.736 210.922ZM204.439 214.922L203.314 214.938C203.439 213.927 203.684 212.932 204.049 211.953C204.424 210.964 204.919 210.078 205.533 209.297C206.148 208.505 206.893 207.88 207.768 207.422C208.653 206.964 209.674 206.75 210.83 206.781C211.747 206.802 212.507 206.984 213.111 207.328C213.726 207.672 214.2 208.135 214.533 208.719C214.877 209.302 215.101 209.969 215.205 210.719C215.309 211.469 215.314 212.255 215.221 213.078L213.408 224H209.705L211.549 213.031C211.611 212.427 211.59 211.885 211.486 211.406C211.382 210.917 211.153 210.531 210.799 210.25C210.445 209.958 209.934 209.807 209.268 209.797C208.538 209.776 207.898 209.911 207.346 210.203C206.794 210.495 206.32 210.896 205.924 211.406C205.528 211.906 205.205 212.464 204.955 213.078C204.715 213.693 204.544 214.307 204.439 214.922ZM230.678 207.094H234.053L231.256 223.516C231.047 225.005 230.558 226.292 229.787 227.375C229.026 228.458 228.042 229.286 226.834 229.859C225.625 230.443 224.271 230.714 222.771 230.672C222.021 230.661 221.282 230.542 220.553 230.312C219.823 230.094 219.146 229.776 218.521 229.359C217.896 228.943 217.36 228.427 216.912 227.812L218.834 225.625C219.313 226.271 219.875 226.781 220.521 227.156C221.167 227.531 221.891 227.729 222.693 227.75C223.568 227.771 224.344 227.609 225.021 227.266C225.698 226.932 226.25 226.453 226.678 225.828C227.115 225.203 227.401 224.464 227.537 223.609L229.724 210.734L230.678 207.094ZM218.068 215.859L218.115 215.516C218.24 214.474 218.49 213.432 218.865 212.391C219.24 211.339 219.74 210.385 220.365 209.531C221 208.667 221.771 207.984 222.678 207.484C223.594 206.984 224.662 206.745 225.881 206.766C226.985 206.797 227.891 207.068 228.599 207.578C229.318 208.089 229.87 208.75 230.256 209.562C230.651 210.375 230.917 211.26 231.053 212.219C231.188 213.177 231.23 214.125 231.178 215.062L231.053 216.125C230.886 217.094 230.605 218.068 230.209 219.047C229.813 220.026 229.297 220.922 228.662 221.734C228.037 222.536 227.287 223.177 226.412 223.656C225.547 224.135 224.553 224.359 223.428 224.328C222.313 224.297 221.386 224.021 220.646 223.5C219.907 222.969 219.334 222.286 218.928 221.453C218.521 220.62 218.25 219.714 218.115 218.734C217.99 217.755 217.974 216.797 218.068 215.859ZM221.803 215.516L221.771 215.844C221.709 216.396 221.688 216.979 221.709 217.594C221.73 218.208 221.829 218.792 222.006 219.344C222.183 219.896 222.474 220.354 222.881 220.719C223.287 221.073 223.839 221.26 224.537 221.281C225.381 221.323 226.125 221.146 226.771 220.75C227.428 220.354 227.969 219.828 228.396 219.172C228.834 218.516 229.141 217.807 229.318 217.047L229.756 214.188C229.797 213.656 229.766 213.135 229.662 212.625C229.558 212.104 229.375 211.635 229.115 211.219C228.865 210.802 228.532 210.469 228.115 210.219C227.698 209.958 227.193 209.823 226.599 209.812C225.818 209.781 225.141 209.938 224.568 210.281C224.006 210.625 223.532 211.083 223.146 211.656C222.771 212.229 222.474 212.854 222.256 213.531C222.037 214.208 221.886 214.87 221.803 215.516ZM249.029 210.75L246.732 224H243.044L245.982 207.094H249.451L249.029 210.75ZM247.763 214.922H246.544C246.669 213.891 246.909 212.885 247.263 211.906C247.628 210.917 248.117 210.031 248.732 209.25C249.346 208.469 250.096 207.854 250.982 207.406C251.867 206.958 252.893 206.75 254.06 206.781C254.925 206.802 255.649 206.974 256.232 207.297C256.826 207.62 257.3 208.057 257.654 208.609C258.008 209.161 258.242 209.792 258.357 210.5C258.471 211.198 258.492 211.943 258.419 212.734L256.544 224H252.857L254.701 213.047C254.774 212.443 254.753 211.901 254.638 211.422C254.524 210.932 254.284 210.542 253.919 210.25C253.565 209.958 253.055 209.802 252.388 209.781C251.649 209.76 251.008 209.896 250.466 210.188C249.925 210.479 249.471 210.875 249.107 211.375C248.753 211.875 248.461 212.438 248.232 213.062C248.013 213.677 247.857 214.297 247.763 214.922ZM258.107 213.922L256.326 214.312C256.44 213.333 256.68 212.391 257.044 211.484C257.419 210.568 257.914 209.755 258.529 209.047C259.154 208.328 259.893 207.766 260.747 207.359C261.602 206.943 262.57 206.745 263.654 206.766C264.57 206.786 265.341 206.969 265.966 207.312C266.591 207.646 267.081 208.104 267.435 208.688C267.8 209.271 268.039 209.938 268.154 210.688C268.268 211.427 268.279 212.219 268.185 213.062L266.357 224H262.669L264.513 213.031C264.586 212.417 264.565 211.87 264.451 211.391C264.346 210.901 264.117 210.516 263.763 210.234C263.409 209.953 262.893 209.807 262.216 209.797C261.612 209.776 261.07 209.88 260.591 210.109C260.122 210.328 259.716 210.635 259.372 211.031C259.039 211.417 258.768 211.859 258.56 212.359C258.352 212.859 258.201 213.38 258.107 213.922ZM277.876 224.312C276.72 224.292 275.694 224.068 274.798 223.641C273.913 223.203 273.178 222.615 272.595 221.875C272.012 221.125 271.59 220.266 271.329 219.297C271.069 218.318 270.98 217.276 271.064 216.172L271.126 215.531C271.241 214.396 271.517 213.302 271.954 212.25C272.392 211.188 272.975 210.245 273.704 209.422C274.444 208.589 275.314 207.932 276.314 207.453C277.314 206.974 278.428 206.75 279.658 206.781C280.835 206.802 281.829 207.047 282.642 207.516C283.454 207.984 284.1 208.609 284.579 209.391C285.059 210.161 285.376 211.036 285.533 212.016C285.699 212.995 285.725 214.01 285.611 215.062L285.392 216.672H272.704L273.142 213.969L282.095 213.984L282.158 213.656C282.251 213 282.215 212.38 282.048 211.797C281.892 211.214 281.6 210.734 281.173 210.359C280.746 209.984 280.173 209.786 279.454 209.766C278.673 209.745 278.001 209.906 277.439 210.25C276.887 210.594 276.428 211.057 276.064 211.641C275.699 212.224 275.413 212.859 275.204 213.547C275.006 214.224 274.866 214.885 274.783 215.531L274.72 216.156C274.658 216.771 274.673 217.38 274.767 217.984C274.861 218.589 275.043 219.141 275.314 219.641C275.585 220.13 275.96 220.531 276.439 220.844C276.918 221.146 277.512 221.307 278.22 221.328C279.105 221.349 279.908 221.167 280.626 220.781C281.355 220.385 282.017 219.875 282.611 219.25L284.423 221.172C283.944 221.891 283.35 222.484 282.642 222.953C281.944 223.422 281.184 223.771 280.361 224C279.548 224.219 278.72 224.323 277.876 224.312ZM292.974 210.922L290.708 224H287.021L289.958 207.094H293.411L292.974 210.922ZM291.677 214.922L290.552 214.938C290.677 213.927 290.922 212.932 291.286 211.953C291.661 210.964 292.156 210.078 292.771 209.297C293.385 208.505 294.13 207.88 295.005 207.422C295.89 206.964 296.911 206.75 298.068 206.781C298.984 206.802 299.745 206.984 300.349 207.328C300.963 207.672 301.437 208.135 301.771 208.719C302.114 209.302 302.338 209.969 302.443 210.719C302.547 211.469 302.552 212.255 302.458 213.078L300.646 224H296.943L298.786 213.031C298.849 212.427 298.828 211.885 298.724 211.406C298.62 210.917 298.39 210.531 298.036 210.25C297.682 209.958 297.172 209.807 296.505 209.797C295.776 209.776 295.135 209.911 294.583 210.203C294.031 210.495 293.557 210.896 293.161 211.406C292.765 211.906 292.443 212.464 292.193 213.078C291.953 213.693 291.781 214.307 291.677 214.922ZM314.618 219.328C314.701 218.755 314.576 218.312 314.243 218C313.91 217.677 313.493 217.432 312.993 217.266C312.493 217.099 312.035 216.964 311.618 216.859C310.983 216.703 310.347 216.505 309.712 216.266C309.087 216.016 308.514 215.703 307.993 215.328C307.472 214.953 307.061 214.495 306.759 213.953C306.457 213.401 306.321 212.745 306.353 211.984C306.394 211.109 306.623 210.344 307.04 209.688C307.457 209.031 307.993 208.484 308.649 208.047C309.316 207.609 310.045 207.286 310.837 207.078C311.629 206.87 312.415 206.771 313.196 206.781C314.29 206.802 315.295 207.016 316.212 207.422C317.139 207.828 317.879 208.427 318.431 209.219C318.993 210.01 319.269 210.99 319.259 212.156L315.603 212.141C315.623 211.62 315.53 211.172 315.321 210.797C315.123 210.411 314.832 210.115 314.446 209.906C314.061 209.698 313.597 209.589 313.056 209.578C312.587 209.568 312.123 209.646 311.665 209.812C311.217 209.979 310.832 210.229 310.509 210.562C310.186 210.896 309.988 211.318 309.915 211.828C309.853 212.224 309.91 212.552 310.087 212.812C310.264 213.062 310.509 213.266 310.821 213.422C311.134 213.578 311.462 213.708 311.806 213.812C312.16 213.906 312.478 213.984 312.759 214.047C313.644 214.286 314.514 214.594 315.368 214.969C316.222 215.333 316.92 215.849 317.462 216.516C318.004 217.172 318.248 218.036 318.196 219.109C318.165 220.026 317.925 220.818 317.478 221.484C317.03 222.141 316.457 222.682 315.759 223.109C315.061 223.526 314.295 223.833 313.462 224.031C312.639 224.229 311.826 224.323 311.024 224.312C309.92 224.292 308.879 224.062 307.899 223.625C306.931 223.188 306.149 222.557 305.556 221.734C304.972 220.901 304.681 219.885 304.681 218.688L308.228 218.703C308.228 219.307 308.347 219.818 308.587 220.234C308.837 220.651 309.181 220.969 309.618 221.188C310.066 221.396 310.587 221.505 311.181 221.516C311.67 221.516 312.16 221.448 312.649 221.312C313.149 221.167 313.576 220.932 313.931 220.609C314.295 220.286 314.524 219.859 314.618 219.328ZM331.138 207.094L330.653 209.844H321.403L321.872 207.094H331.138ZM325.263 202.953H328.934L326.138 219.359C326.096 219.724 326.096 220.042 326.138 220.312C326.19 220.583 326.309 220.797 326.497 220.953C326.695 221.099 326.997 221.177 327.403 221.188C327.622 221.198 327.841 221.188 328.059 221.156C328.289 221.125 328.518 221.094 328.747 221.062L328.481 223.969C328.106 224.083 327.721 224.167 327.325 224.219C326.94 224.271 326.549 224.292 326.153 224.281C325.216 224.271 324.46 224.057 323.888 223.641C323.315 223.214 322.914 222.646 322.684 221.938C322.455 221.229 322.382 220.438 322.466 219.562L325.263 202.953ZM337.204 210.5L334.86 224H331.188L334.126 207.094H337.61L337.204 210.5ZM342.704 206.953L342.297 210.469C342.058 210.427 341.813 210.391 341.563 210.359C341.324 210.328 341.084 210.312 340.844 210.312C340.209 210.302 339.636 210.391 339.126 210.578C338.615 210.766 338.167 211.036 337.782 211.391C337.396 211.734 337.074 212.151 336.813 212.641C336.553 213.12 336.35 213.656 336.204 214.25L335.329 214.312C335.433 213.49 335.61 212.635 335.86 211.75C336.12 210.865 336.48 210.042 336.938 209.281C337.396 208.51 337.98 207.891 338.688 207.422C339.396 206.943 340.256 206.714 341.266 206.734C341.506 206.734 341.745 206.755 341.985 206.797C342.225 206.839 342.464 206.891 342.704 206.953ZM352.895 219.828L355.098 207.094H358.786L355.848 224H352.379L352.895 219.828ZM353.926 216.5L355.145 216.453C355.02 217.474 354.791 218.464 354.457 219.422C354.124 220.37 353.671 221.219 353.098 221.969C352.525 222.719 351.812 223.307 350.957 223.734C350.103 224.161 349.098 224.359 347.942 224.328C347.015 224.297 346.234 224.115 345.598 223.781C344.973 223.438 344.478 222.974 344.114 222.391C343.749 221.807 343.504 221.141 343.379 220.391C343.265 219.641 343.249 218.849 343.332 218.016L345.161 207.094H348.832L346.989 218.062C346.957 218.469 346.957 218.859 346.989 219.234C347.02 219.609 347.109 219.948 347.254 220.25C347.4 220.552 347.614 220.797 347.895 220.984C348.187 221.161 348.567 221.26 349.036 221.281C350.036 221.312 350.869 221.12 351.536 220.703C352.213 220.276 352.744 219.693 353.129 218.953C353.525 218.214 353.791 217.396 353.926 216.5ZM369.617 220.609L370.899 212.5C370.961 211.958 370.925 211.469 370.789 211.031C370.654 210.594 370.404 210.25 370.039 210C369.685 209.74 369.216 209.604 368.633 209.594C368.112 209.583 367.623 209.672 367.164 209.859C366.706 210.036 366.315 210.302 365.992 210.656C365.68 211.01 365.472 211.443 365.367 211.953L361.696 211.969C361.758 211.083 362.019 210.312 362.477 209.656C362.946 208.99 363.534 208.443 364.242 208.016C364.961 207.578 365.732 207.26 366.555 207.062C367.388 206.854 368.201 206.755 368.992 206.766C370.138 206.786 371.154 207.031 372.039 207.5C372.925 207.969 373.597 208.63 374.055 209.484C374.524 210.339 374.701 211.37 374.586 212.578L373.352 220.109C373.258 220.703 373.19 221.312 373.149 221.938C373.117 222.552 373.201 223.146 373.399 223.719L373.367 224L369.727 224.016C369.571 223.464 369.492 222.901 369.492 222.328C369.492 221.745 369.534 221.172 369.617 220.609ZM371.321 213.719L370.946 216.047L368.508 216.031C368.008 216.031 367.492 216.078 366.961 216.172C366.44 216.266 365.951 216.427 365.492 216.656C365.034 216.885 364.649 217.198 364.336 217.594C364.024 217.979 363.831 218.464 363.758 219.047C363.706 219.516 363.758 219.922 363.914 220.266C364.081 220.599 364.331 220.865 364.664 221.062C364.998 221.26 365.394 221.365 365.852 221.375C366.466 221.385 367.071 221.266 367.664 221.016C368.269 220.766 368.789 220.411 369.227 219.953C369.675 219.484 369.982 218.948 370.149 218.344L371.133 220.031C370.904 220.667 370.581 221.25 370.164 221.781C369.758 222.312 369.284 222.771 368.742 223.156C368.201 223.542 367.607 223.839 366.961 224.047C366.326 224.255 365.67 224.354 364.992 224.344C364.055 224.323 363.201 224.109 362.43 223.703C361.659 223.286 361.05 222.708 360.602 221.969C360.154 221.229 359.956 220.375 360.008 219.406C360.06 218.312 360.336 217.401 360.836 216.672C361.347 215.932 361.998 215.349 362.789 214.922C363.591 214.484 364.466 214.172 365.414 213.984C366.362 213.797 367.3 213.703 368.227 213.703L371.321 213.719ZM384.746 200L380.574 224H376.902L381.059 200H384.746ZM400.551 200L396.379 224H392.707L396.879 200H400.551ZM397.363 214.922H396.207C396.342 213.943 396.587 212.969 396.941 212C397.306 211.021 397.795 210.135 398.41 209.344C399.025 208.542 399.764 207.906 400.629 207.438C401.493 206.969 402.493 206.75 403.629 206.781C404.556 206.802 405.327 206.984 405.941 207.328C406.566 207.672 407.056 208.141 407.41 208.734C407.764 209.318 407.999 209.99 408.113 210.75C408.228 211.5 408.238 212.297 408.144 213.141L406.332 224H402.629L404.473 213.094C404.535 212.479 404.514 211.927 404.41 211.438C404.306 210.948 404.077 210.557 403.723 210.266C403.368 209.964 402.853 209.807 402.176 209.797C401.446 209.776 400.801 209.911 400.238 210.203C399.686 210.495 399.212 210.891 398.816 211.391C398.431 211.891 398.118 212.448 397.879 213.062C397.639 213.677 397.467 214.297 397.363 214.922ZM417.758 224.312C416.601 224.292 415.575 224.068 414.679 223.641C413.794 223.203 413.06 222.615 412.476 221.875C411.893 221.125 411.471 220.266 411.211 219.297C410.95 218.318 410.862 217.276 410.945 216.172L411.008 215.531C411.122 214.396 411.398 213.302 411.836 212.25C412.273 211.188 412.856 210.245 413.586 209.422C414.325 208.589 415.195 207.932 416.195 207.453C417.195 206.974 418.31 206.75 419.539 206.781C420.716 206.802 421.711 207.047 422.523 207.516C423.336 207.984 423.981 208.609 424.461 209.391C424.94 210.161 425.258 211.036 425.414 212.016C425.58 212.995 425.606 214.01 425.492 215.062L425.273 216.672H412.586L413.023 213.969L421.976 213.984L422.039 213.656C422.133 213 422.096 212.38 421.929 211.797C421.773 211.214 421.481 210.734 421.054 210.359C420.627 209.984 420.054 209.786 419.336 209.766C418.554 209.745 417.883 209.906 417.32 210.25C416.768 210.594 416.31 211.057 415.945 211.641C415.58 212.224 415.294 212.859 415.086 213.547C414.888 214.224 414.747 214.885 414.664 215.531L414.601 216.156C414.539 216.771 414.554 217.38 414.648 217.984C414.742 218.589 414.924 219.141 415.195 219.641C415.466 220.13 415.841 220.531 416.32 220.844C416.799 221.146 417.393 221.307 418.101 221.328C418.987 221.349 419.789 221.167 420.508 220.781C421.237 220.385 421.898 219.875 422.492 219.25L424.304 221.172C423.825 221.891 423.231 222.484 422.523 222.953C421.825 223.422 421.065 223.771 420.242 224C419.429 224.219 418.601 224.323 417.758 224.312ZM436.824 220.609L438.105 212.5C438.168 211.958 438.131 211.469 437.996 211.031C437.86 210.594 437.61 210.25 437.246 210C436.891 209.74 436.423 209.604 435.839 209.594C435.319 209.583 434.829 209.672 434.371 209.859C433.912 210.036 433.522 210.302 433.199 210.656C432.886 211.01 432.678 211.443 432.574 211.953L428.902 211.969C428.964 211.083 429.225 210.312 429.683 209.656C430.152 208.99 430.74 208.443 431.449 208.016C432.168 207.578 432.938 207.26 433.761 207.062C434.595 206.854 435.407 206.755 436.199 206.766C437.345 206.786 438.36 207.031 439.246 207.5C440.131 207.969 440.803 208.63 441.261 209.484C441.73 210.339 441.907 211.37 441.793 212.578L440.558 220.109C440.464 220.703 440.397 221.312 440.355 221.938C440.324 222.552 440.407 223.146 440.605 223.719L440.574 224L436.933 224.016C436.777 223.464 436.699 222.901 436.699 222.328C436.699 221.745 436.74 221.172 436.824 220.609ZM438.527 213.719L438.152 216.047L435.714 216.031C435.214 216.031 434.699 216.078 434.168 216.172C433.647 216.266 433.157 216.427 432.699 216.656C432.24 216.885 431.855 217.198 431.543 217.594C431.23 217.979 431.037 218.464 430.964 219.047C430.912 219.516 430.964 219.922 431.121 220.266C431.287 220.599 431.537 220.865 431.871 221.062C432.204 221.26 432.6 221.365 433.058 221.375C433.673 221.385 434.277 221.266 434.871 221.016C435.475 220.766 435.996 220.411 436.433 219.953C436.881 219.484 437.188 218.948 437.355 218.344L438.339 220.031C438.11 220.667 437.787 221.25 437.371 221.781C436.964 222.312 436.49 222.771 435.949 223.156C435.407 223.542 434.813 223.839 434.168 224.047C433.532 224.255 432.876 224.354 432.199 224.344C431.261 224.323 430.407 224.109 429.636 223.703C428.865 223.286 428.256 222.708 427.808 221.969C427.36 221.229 427.162 220.375 427.214 219.406C427.266 218.312 427.543 217.401 428.043 216.672C428.553 215.932 429.204 215.349 429.996 214.922C430.798 214.484 431.673 214.172 432.621 213.984C433.569 213.797 434.506 213.703 435.433 213.703L438.527 213.719ZM451.953 200L447.781 224H444.109L448.265 200H451.953ZM462.394 207.094L461.909 209.844H452.659L453.128 207.094H462.394ZM456.519 202.953H460.191L457.394 219.359C457.352 219.724 457.352 220.042 457.394 220.312C457.446 220.583 457.566 220.797 457.753 220.953C457.951 221.099 458.253 221.177 458.659 221.188C458.878 221.198 459.097 221.188 459.316 221.156C459.545 221.125 459.774 221.094 460.003 221.062L459.737 223.969C459.362 224.083 458.977 224.167 458.581 224.219C458.196 224.271 457.805 224.292 457.409 224.281C456.472 224.271 455.717 224.057 455.144 223.641C454.571 223.214 454.17 222.646 453.941 221.938C453.711 221.229 453.639 220.438 453.722 219.562L456.519 202.953ZM470.226 200L466.054 224H462.382L466.554 200H470.226ZM467.038 214.922H465.882C466.017 213.943 466.262 212.969 466.616 212C466.981 211.021 467.47 210.135 468.085 209.344C468.7 208.542 469.439 207.906 470.304 207.438C471.168 206.969 472.168 206.75 473.304 206.781C474.231 206.802 475.002 206.984 475.616 207.328C476.241 207.672 476.731 208.141 477.085 208.734C477.439 209.318 477.674 209.99 477.788 210.75C477.903 211.5 477.913 212.297 477.819 213.141L476.007 224H472.304L474.147 213.094C474.21 212.479 474.189 211.927 474.085 211.438C473.981 210.948 473.752 210.557 473.397 210.266C473.043 209.964 472.528 209.807 471.851 209.797C471.121 209.776 470.476 209.911 469.913 210.203C469.361 210.495 468.887 210.891 468.491 211.391C468.106 211.891 467.793 212.448 467.554 213.062C467.314 213.677 467.142 214.297 467.038 214.922Z" fill="#C37126"/>
</svg>
