<svg width="971" height="151" viewBox="0 0 971 151" fill="none" xmlns="http://www.w3.org/2000/svg">
<path d="M32.5312 65.2812H15.375V53.4219H32.5312C35.0625 53.4219 37.0938 53 38.625 52.1562C40.1875 51.3125 41.3281 50.1562 42.0469 48.6875C42.7969 47.1875 43.1719 45.5 43.1719 43.625C43.1719 41.6875 42.7969 39.8906 42.0469 38.2344C41.3281 36.5469 40.1875 35.1875 38.625 34.1562C37.0938 33.125 35.0625 32.6094 32.5312 32.6094H20.9062V89H5.625V20.75H32.5312C37.9688 20.75 42.625 21.7344 46.5 23.7031C50.4062 25.6719 53.3906 28.375 55.4531 31.8125C57.5469 35.2188 58.5938 39.125 58.5938 43.5312C58.5938 47.9375 57.5469 51.7656 55.4531 55.0156C53.3906 58.2656 50.4062 60.7969 46.5 62.6094C42.625 64.3906 37.9688 65.2812 32.5312 65.2812ZM67.875 20.75H94.0781C99.2969 20.75 103.812 21.5313 107.625 23.0938C111.469 24.6562 114.422 26.9688 116.484 30.0312C118.547 33.0938 119.578 36.875 119.578 41.375C119.578 45.125 118.969 48.3125 117.75 50.9375C116.531 53.5625 114.812 55.7344 112.594 57.4531C110.406 59.1719 107.844 60.5625 104.906 61.625L99.9375 64.3438H77.625L77.5312 52.4844H94.125C96.4062 52.4844 98.2969 52.0781 99.7969 51.2656C101.297 50.4531 102.422 49.3125 103.172 47.8438C103.953 46.3438 104.344 44.5938 104.344 42.5938C104.344 40.5312 103.953 38.75 103.172 37.25C102.391 35.75 101.234 34.6094 99.7031 33.8281C98.2031 33.0156 96.3281 32.6094 94.0781 32.6094H83.1562V89H67.875V20.75ZM105.656 89L90.3281 58.6719L106.453 58.625L122.016 88.2969V89H105.656ZM186.844 53.375V56.4219C186.844 61.6094 186.125 66.2656 184.688 70.3906C183.281 74.5156 181.266 78.0312 178.641 80.9375C176.047 83.8438 172.953 86.0781 169.359 87.6406C165.797 89.1719 161.844 89.9375 157.5 89.9375C153.156 89.9375 149.188 89.1719 145.594 87.6406C142 86.0781 138.875 83.8438 136.219 80.9375C133.594 78.0312 131.562 74.5156 130.125 70.3906C128.688 66.2656 127.969 61.6094 127.969 56.4219V53.375C127.969 48.1875 128.688 43.5312 130.125 39.4062C131.562 35.25 133.578 31.7188 136.172 28.8125C138.797 25.9062 141.906 23.6875 145.5 22.1562C149.094 20.5938 153.062 19.8125 157.406 19.8125C161.75 19.8125 165.719 20.5938 169.312 22.1562C172.906 23.6875 176 25.9062 178.594 28.8125C181.219 31.7188 183.25 35.25 184.688 39.4062C186.125 43.5312 186.844 48.1875 186.844 53.375ZM171.422 56.4219V53.2812C171.422 49.8125 171.109 46.75 170.484 44.0938C169.859 41.4062 168.953 39.1562 167.766 37.3438C166.578 35.5312 165.109 34.1719 163.359 33.2656C161.609 32.3281 159.625 31.8594 157.406 31.8594C155.094 31.8594 153.078 32.3281 151.359 33.2656C149.641 34.1719 148.188 35.5312 147 37.3438C145.844 39.1562 144.953 41.4062 144.328 44.0938C143.734 46.75 143.438 49.8125 143.438 53.2812V56.4219C143.438 59.8594 143.734 62.9219 144.328 65.6094C144.953 68.2656 145.859 70.5156 147.047 72.3594C148.234 74.2031 149.688 75.5938 151.406 76.5312C153.156 77.4688 155.188 77.9375 157.5 77.9375C159.719 77.9375 161.688 77.4688 163.406 76.5312C165.156 75.5938 166.625 74.2031 167.812 72.3594C169 70.5156 169.891 68.2656 170.484 65.6094C171.109 62.9219 171.422 59.8594 171.422 56.4219ZM223.641 67.8125V20.75H238.828V67.8125C238.828 72.375 237.797 76.3125 235.734 79.625C233.703 82.9062 230.938 85.4531 227.438 87.2656C223.969 89.0469 220.047 89.9375 215.672 89.9375C211.172 89.9375 207.172 89.1875 203.672 87.6875C200.172 86.1562 197.422 83.8281 195.422 80.7031C193.453 77.5469 192.469 73.5312 192.469 68.6562H207.75C207.75 71.0625 208.047 72.9688 208.641 74.375C209.266 75.75 210.172 76.7188 211.359 77.2812C212.547 77.8438 213.984 78.125 215.672 78.125C217.297 78.125 218.703 77.7344 219.891 76.9531C221.078 76.1406 222 74.9688 222.656 73.4375C223.312 71.875 223.641 70 223.641 67.8125ZM296.438 77.1875V89H260.109V77.1875H296.438ZM265.312 20.75V89H250.031V20.75H265.312ZM291.75 48.2188V59.6562H260.109V48.2188H291.75ZM296.484 20.75V32.6094H260.109V20.75H296.484ZM343.172 66.125H358.359C358.109 70.8125 356.828 74.9531 354.516 78.5469C352.234 82.1094 349.062 84.9062 345 86.9375C340.938 88.9375 336.109 89.9375 330.516 89.9375C326.047 89.9375 322.047 89.1719 318.516 87.6406C314.984 86.1094 311.984 83.9219 309.516 81.0781C307.078 78.2031 305.203 74.75 303.891 70.7188C302.609 66.6562 301.969 62.0781 301.969 56.9844V52.8125C301.969 47.7188 302.641 43.1406 303.984 39.0781C305.328 35.0156 307.25 31.5469 309.75 28.6719C312.25 25.7969 315.25 23.5938 318.75 22.0625C322.25 20.5312 326.156 19.7656 330.469 19.7656C336.281 19.7656 341.188 20.8125 345.188 22.9062C349.188 25 352.281 27.875 354.469 31.5312C356.688 35.1875 358.016 39.3594 358.453 44.0469H343.219C343.094 41.3906 342.594 39.1562 341.719 37.3438C340.844 35.5 339.5 34.1094 337.688 33.1719C335.875 32.2344 333.469 31.7656 330.469 31.7656C328.281 31.7656 326.359 32.1719 324.703 32.9844C323.078 33.7969 321.719 35.0625 320.625 36.7812C319.562 38.5 318.766 40.6875 318.234 43.3438C317.703 45.9688 317.438 49.0938 317.438 52.7188V56.9844C317.438 60.5781 317.672 63.6875 318.141 66.3125C318.609 68.9375 319.359 71.1094 320.391 72.8281C321.453 74.5469 322.812 75.8281 324.469 76.6719C326.125 77.5156 328.141 77.9375 330.516 77.9375C333.234 77.9375 335.5 77.5156 337.312 76.6719C339.125 75.7969 340.516 74.4844 341.484 72.7344C342.453 70.9844 343.016 68.7812 343.172 66.125ZM397.219 20.75V89H381.984V20.75H397.219ZM417.984 20.75V32.6094H361.641V20.75H417.984ZM441 53.9375V65.375H413.719V53.9375H441ZM504.375 65.2812H487.219V53.4219H504.375C506.906 53.4219 508.938 53 510.469 52.1562C512.031 51.3125 513.172 50.1562 513.891 48.6875C514.641 47.1875 515.016 45.5 515.016 43.625C515.016 41.6875 514.641 39.8906 513.891 38.2344C513.172 36.5469 512.031 35.1875 510.469 34.1562C508.938 33.125 506.906 32.6094 504.375 32.6094H492.75V89H477.469V20.75H504.375C509.812 20.75 514.469 21.7344 518.344 23.7031C522.25 25.6719 525.234 28.375 527.297 31.8125C529.391 35.2188 530.438 39.125 530.438 43.5312C530.438 47.9375 529.391 51.7656 527.297 55.0156C525.234 58.2656 522.25 60.7969 518.344 62.6094C514.469 64.3906 509.812 65.2812 504.375 65.2812ZM560.016 33.7344L542.391 89H526.078L551.344 20.75H561.656L560.016 33.7344ZM574.641 89L556.969 33.7344L555.141 20.75H565.594L590.953 89H574.641ZM573.891 63.5938V75.4062H538.312V63.5938H573.891ZM596.625 20.75H622.828C628.047 20.75 632.562 21.5313 636.375 23.0938C640.219 24.6562 643.172 26.9688 645.234 30.0312C647.297 33.0938 648.328 36.875 648.328 41.375C648.328 45.125 647.719 48.3125 646.5 50.9375C645.281 53.5625 643.562 55.7344 641.344 57.4531C639.156 59.1719 636.594 60.5625 633.656 61.625L628.688 64.3438H606.375L606.281 52.4844H622.875C625.156 52.4844 627.047 52.0781 628.547 51.2656C630.047 50.4531 631.172 49.3125 631.922 47.8438C632.703 46.3438 633.094 44.5938 633.094 42.5938C633.094 40.5312 632.703 38.75 631.922 37.25C631.141 35.75 629.984 34.6094 628.453 33.8281C626.953 33.0156 625.078 32.6094 622.828 32.6094H611.906V89H596.625V20.75ZM634.406 89L619.078 58.6719L635.203 58.625L650.766 88.2969V89H634.406ZM682.969 73.8594L698.156 20.75H715.172L691.781 89H680.672L682.969 73.8594ZM669.141 20.75L684.281 73.8594L686.672 89H675.422L652.172 20.75H669.141ZM745.641 33.7344L728.016 89H711.703L736.969 20.75H747.281L745.641 33.7344ZM760.266 89L742.594 33.7344L740.766 20.75H751.219L776.578 89H760.266ZM759.516 63.5938V75.4062H723.938V63.5938H759.516ZM808.312 20.75V89H793.078V20.75H808.312ZM829.078 20.75V32.6094H772.734V20.75H829.078ZM852.891 20.75V89H837.656V20.75H852.891Z" fill="#9C4C03"/>
<path opacity="0.9" d="M8.54688 120.25L16.1562 120.266C17.5417 120.297 18.7812 120.557 19.875 121.047C20.9792 121.536 21.8281 122.271 22.4219 123.25C23.026 124.229 23.2656 125.469 23.1406 126.969C23.0469 128.177 22.7344 129.208 22.2031 130.062C21.6823 130.906 20.9948 131.62 20.1406 132.203C19.2969 132.786 18.3385 133.271 17.2656 133.656L16 134.219H8.76562L9.28125 131.109L14.3438 131.125C15.1771 131.125 15.9479 130.974 16.6562 130.672C17.3646 130.359 17.9531 129.911 18.4219 129.328C18.8906 128.734 19.1823 128.01 19.2969 127.156C19.401 126.365 19.3385 125.693 19.1094 125.141C18.8802 124.589 18.5052 124.167 17.9844 123.875C17.4635 123.573 16.8177 123.411 16.0469 123.391L11.8438 123.375L8.4375 143H4.59375L8.54688 120.25ZM17.2969 143L13.875 132.781L17.7031 132.766L21.375 142.781V143H17.2969ZM31.535 143.312C30.3787 143.292 29.3527 143.068 28.4569 142.641C27.5715 142.203 26.8371 141.615 26.2537 140.875C25.6704 140.125 25.2485 139.266 24.9881 138.297C24.7277 137.318 24.6392 136.276 24.7225 135.172L24.785 134.531C24.8996 133.396 25.1756 132.302 25.6131 131.25C26.0506 130.188 26.634 129.245 27.3631 128.422C28.1027 127.589 28.9725 126.932 29.9725 126.453C30.9725 125.974 32.0871 125.75 33.3162 125.781C34.4933 125.802 35.4881 126.047 36.3006 126.516C37.1131 126.984 37.759 127.609 38.2381 128.391C38.7173 129.161 39.035 130.036 39.1912 131.016C39.3579 131.995 39.384 133.01 39.2694 134.062L39.0506 135.672H26.3631L26.8006 132.969L35.7537 132.984L35.8162 132.656C35.91 132 35.8735 131.38 35.7069 130.797C35.5506 130.214 35.259 129.734 34.8319 129.359C34.4048 128.984 33.8319 128.786 33.1131 128.766C32.3319 128.745 31.66 128.906 31.0975 129.25C30.5454 129.594 30.0871 130.057 29.7225 130.641C29.3579 131.224 29.0715 131.859 28.8631 132.547C28.6652 133.224 28.5246 133.885 28.4412 134.531L28.3787 135.156C28.3162 135.771 28.3319 136.38 28.4256 136.984C28.5194 137.589 28.7017 138.141 28.9725 138.641C29.2433 139.13 29.6183 139.531 30.0975 139.844C30.5767 140.146 31.1704 140.307 31.8787 140.328C32.7642 140.349 33.5662 140.167 34.285 139.781C35.0142 139.385 35.6756 138.875 36.2694 138.25L38.0819 140.172C37.6027 140.891 37.009 141.484 36.3006 141.953C35.6027 142.422 34.8423 142.771 34.0194 143C33.2069 143.219 32.3787 143.323 31.535 143.312ZM46.4762 139.859L52.6012 126.094H56.5387L48.1794 143H45.7262L46.4762 139.859ZM45.5231 126.094L47.4606 140.25L47.2106 143H44.9137L41.82 126.094H45.5231ZM56.5894 134.828L56.6362 134.469C56.7612 133.302 57.0477 132.193 57.4956 131.141C57.9435 130.089 58.5373 129.156 59.2769 128.344C60.0269 127.521 60.9071 126.88 61.9175 126.422C62.9383 125.964 64.0737 125.75 65.3237 125.781C66.5321 125.802 67.5685 126.052 68.4331 126.531C69.3081 127.01 70.0165 127.651 70.5581 128.453C71.1102 129.245 71.4956 130.151 71.7144 131.172C71.9331 132.182 71.9904 133.24 71.8862 134.344L71.855 134.703C71.7196 135.87 71.4227 136.974 70.9644 138.016C70.5165 139.057 69.9175 139.984 69.1675 140.797C68.4279 141.599 67.5477 142.229 66.5269 142.688C65.5165 143.135 64.3915 143.344 63.1519 143.312C61.954 143.292 60.9175 143.047 60.0425 142.578C59.1779 142.099 58.4696 141.464 57.9175 140.672C57.3758 139.88 56.9956 138.984 56.7769 137.984C56.5581 136.974 56.4956 135.922 56.5894 134.828ZM60.2925 134.469L60.2612 134.828C60.2092 135.401 60.204 136.005 60.2456 136.641C60.2873 137.276 60.4123 137.87 60.6206 138.422C60.829 138.974 61.1519 139.427 61.5894 139.781C62.0269 140.135 62.6102 140.323 63.3394 140.344C64.1102 140.365 64.7821 140.208 65.355 139.875C65.9279 139.542 66.4071 139.094 66.7925 138.531C67.1779 137.969 67.4852 137.354 67.7144 136.688C67.9435 136.01 68.0946 135.349 68.1675 134.703L68.1987 134.344C68.2612 133.781 68.2717 133.182 68.23 132.547C68.1883 131.901 68.0633 131.297 67.855 130.734C67.6467 130.161 67.3237 129.698 66.8862 129.344C66.4487 128.979 65.8654 128.786 65.1362 128.766C64.355 128.745 63.6779 128.906 63.105 129.25C62.5321 129.583 62.0529 130.036 61.6675 130.609C61.2821 131.182 60.9748 131.807 60.7456 132.484C60.5269 133.161 60.3758 133.823 60.2925 134.469ZM81.7025 119L77.5306 143H73.8587L78.015 119H81.7025ZM92.2688 138.828L94.4719 126.094H98.1594L95.2219 143H91.7531L92.2688 138.828ZM93.3 135.5L94.5188 135.453C94.3938 136.474 94.1646 137.464 93.8313 138.422C93.4979 139.37 93.0448 140.219 92.4719 140.969C91.899 141.719 91.1854 142.307 90.3313 142.734C89.4771 143.161 88.4719 143.359 87.3156 143.328C86.3885 143.297 85.6073 143.115 84.9719 142.781C84.3469 142.438 83.8521 141.974 83.4875 141.391C83.1229 140.807 82.8781 140.141 82.7531 139.391C82.6385 138.641 82.6229 137.849 82.7063 137.016L84.5344 126.094H88.2063L86.3625 137.062C86.3313 137.469 86.3313 137.859 86.3625 138.234C86.3938 138.609 86.4823 138.948 86.6281 139.25C86.774 139.552 86.9875 139.797 87.2688 139.984C87.5604 140.161 87.9406 140.26 88.4094 140.281C89.4094 140.312 90.2427 140.12 90.9094 139.703C91.5865 139.276 92.1177 138.693 92.5031 137.953C92.899 137.214 93.1646 136.396 93.3 135.5ZM109.585 126.094L109.101 128.844H99.8506L100.319 126.094H109.585ZM103.71 121.953H107.382L104.585 138.359C104.543 138.724 104.543 139.042 104.585 139.312C104.637 139.583 104.757 139.797 104.944 139.953C105.142 140.099 105.444 140.177 105.851 140.188C106.069 140.198 106.288 140.188 106.507 140.156C106.736 140.125 106.965 140.094 107.194 140.062L106.929 142.969C106.554 143.083 106.168 143.167 105.772 143.219C105.387 143.271 104.996 143.292 104.601 143.281C103.663 143.271 102.908 143.057 102.335 142.641C101.762 142.214 101.361 141.646 101.132 140.938C100.903 140.229 100.83 139.438 100.913 138.562L103.71 121.953ZM116.479 126.094L113.542 143H109.87L112.808 126.094H116.479ZM113.323 121.719C113.313 121.115 113.511 120.62 113.917 120.234C114.323 119.849 114.823 119.651 115.417 119.641C115.99 119.63 116.479 119.807 116.886 120.172C117.302 120.526 117.511 121 117.511 121.594C117.521 122.198 117.318 122.688 116.901 123.062C116.495 123.438 116 123.63 115.417 123.641C114.844 123.651 114.354 123.484 113.948 123.141C113.542 122.786 113.334 122.312 113.323 121.719ZM118.452 134.828L118.499 134.469C118.624 133.302 118.91 132.193 119.358 131.141C119.806 130.089 120.4 129.156 121.139 128.344C121.889 127.521 122.77 126.88 123.78 126.422C124.801 125.964 125.936 125.75 127.186 125.781C128.395 125.802 129.431 126.052 130.296 126.531C131.171 127.01 131.879 127.651 132.421 128.453C132.973 129.245 133.358 130.151 133.577 131.172C133.796 132.182 133.853 133.24 133.749 134.344L133.717 134.703C133.582 135.87 133.285 136.974 132.827 138.016C132.379 139.057 131.78 139.984 131.03 140.797C130.29 141.599 129.41 142.229 128.389 142.688C127.379 143.135 126.254 143.344 125.014 143.312C123.816 143.292 122.78 143.047 121.905 142.578C121.04 142.099 120.332 141.464 119.78 140.672C119.238 139.88 118.858 138.984 118.639 137.984C118.421 136.974 118.358 135.922 118.452 134.828ZM122.155 134.469L122.124 134.828C122.072 135.401 122.066 136.005 122.108 136.641C122.15 137.276 122.275 137.87 122.483 138.422C122.691 138.974 123.014 139.427 123.452 139.781C123.889 140.135 124.473 140.323 125.202 140.344C125.973 140.365 126.645 140.208 127.217 139.875C127.79 139.542 128.27 139.094 128.655 138.531C129.04 137.969 129.348 137.354 129.577 136.688C129.806 136.01 129.957 135.349 130.03 134.703L130.061 134.344C130.124 133.781 130.134 133.182 130.092 132.547C130.051 131.901 129.926 131.297 129.717 130.734C129.509 130.161 129.186 129.698 128.749 129.344C128.311 128.979 127.728 128.786 126.999 128.766C126.217 128.745 125.54 128.906 124.967 129.25C124.395 129.583 123.915 130.036 123.53 130.609C123.145 131.182 122.837 131.807 122.608 132.484C122.389 133.161 122.238 133.823 122.155 134.469ZM141.378 129.922L139.112 143H135.424L138.362 126.094H141.815L141.378 129.922ZM140.081 133.922L138.956 133.938C139.081 132.927 139.325 131.932 139.69 130.953C140.065 129.964 140.56 129.078 141.174 128.297C141.789 127.505 142.534 126.88 143.409 126.422C144.294 125.964 145.315 125.75 146.471 125.781C147.388 125.802 148.148 125.984 148.753 126.328C149.367 126.672 149.841 127.135 150.174 127.719C150.518 128.302 150.742 128.969 150.846 129.719C150.95 130.469 150.956 131.255 150.862 132.078L149.049 143H145.346L147.19 132.031C147.253 131.427 147.232 130.885 147.128 130.406C147.023 129.917 146.794 129.531 146.44 129.25C146.086 128.958 145.575 128.807 144.909 128.797C144.18 128.776 143.539 128.911 142.987 129.203C142.435 129.495 141.961 129.896 141.565 130.406C141.169 130.906 140.846 131.464 140.596 132.078C140.357 132.693 140.185 133.307 140.081 133.922ZM159.772 126.094L156.834 143H153.163L156.1 126.094H159.772ZM156.616 121.719C156.605 121.115 156.803 120.62 157.209 120.234C157.616 119.849 158.116 119.651 158.709 119.641C159.282 119.63 159.772 119.807 160.178 120.172C160.595 120.526 160.803 121 160.803 121.594C160.814 122.198 160.61 122.688 160.194 123.062C159.788 123.438 159.293 123.63 158.709 123.641C158.136 123.651 157.647 123.484 157.241 123.141C156.834 122.786 156.626 122.312 156.616 121.719ZM174.213 140L173.682 143H161.447L161.979 140H174.213ZM175.854 128.609L162.838 143H160.322L160.776 140.406L173.713 126.094H176.291L175.854 128.609ZM174.885 126.094L174.354 129.094H162.916L163.447 126.094H174.885ZM183.623 126.094L180.686 143H177.014L179.951 126.094H183.623ZM180.467 121.719C180.456 121.115 180.654 120.62 181.061 120.234C181.467 119.849 181.967 119.651 182.561 119.641C183.134 119.63 183.623 119.807 184.029 120.172C184.446 120.526 184.654 121 184.654 121.594C184.665 122.198 184.462 122.688 184.045 123.062C183.639 123.438 183.144 123.63 182.561 123.641C181.988 123.651 181.498 123.484 181.092 123.141C180.686 122.786 180.477 122.312 180.467 121.719ZM190.736 129.922L188.471 143H184.783L187.721 126.094H191.174L190.736 129.922ZM189.439 133.922L188.314 133.938C188.439 132.927 188.684 131.932 189.049 130.953C189.424 129.964 189.919 129.078 190.533 128.297C191.148 127.505 191.893 126.88 192.768 126.422C193.653 125.964 194.674 125.75 195.83 125.781C196.747 125.802 197.507 125.984 198.111 126.328C198.726 126.672 199.2 127.135 199.533 127.719C199.877 128.302 200.101 128.969 200.205 129.719C200.309 130.469 200.314 131.255 200.221 132.078L198.408 143H194.705L196.549 132.031C196.611 131.427 196.59 130.885 196.486 130.406C196.382 129.917 196.153 129.531 195.799 129.25C195.445 128.958 194.934 128.807 194.268 128.797C193.538 128.776 192.898 128.911 192.346 129.203C191.794 129.495 191.32 129.896 190.924 130.406C190.528 130.906 190.205 131.464 189.955 132.078C189.715 132.693 189.544 133.307 189.439 133.922ZM215.678 126.094H219.053L216.256 142.516C216.047 144.005 215.558 145.292 214.787 146.375C214.026 147.458 213.042 148.286 211.834 148.859C210.625 149.443 209.271 149.714 207.771 149.672C207.021 149.661 206.282 149.542 205.553 149.312C204.823 149.094 204.146 148.776 203.521 148.359C202.896 147.943 202.36 147.427 201.912 146.812L203.834 144.625C204.313 145.271 204.875 145.781 205.521 146.156C206.167 146.531 206.891 146.729 207.693 146.75C208.568 146.771 209.344 146.609 210.021 146.266C210.698 145.932 211.25 145.453 211.678 144.828C212.115 144.203 212.401 143.464 212.537 142.609L214.724 129.734L215.678 126.094ZM203.068 134.859L203.115 134.516C203.24 133.474 203.49 132.432 203.865 131.391C204.24 130.339 204.74 129.385 205.365 128.531C206 127.667 206.771 126.984 207.678 126.484C208.594 125.984 209.662 125.745 210.881 125.766C211.985 125.797 212.891 126.068 213.599 126.578C214.318 127.089 214.87 127.75 215.256 128.562C215.651 129.375 215.917 130.26 216.053 131.219C216.188 132.177 216.23 133.125 216.178 134.062L216.053 135.125C215.886 136.094 215.605 137.068 215.209 138.047C214.813 139.026 214.297 139.922 213.662 140.734C213.037 141.536 212.287 142.177 211.412 142.656C210.547 143.135 209.553 143.359 208.428 143.328C207.313 143.297 206.386 143.021 205.646 142.5C204.907 141.969 204.334 141.286 203.928 140.453C203.521 139.62 203.25 138.714 203.115 137.734C202.99 136.755 202.974 135.797 203.068 134.859ZM206.803 134.516L206.771 134.844C206.709 135.396 206.688 135.979 206.709 136.594C206.73 137.208 206.829 137.792 207.006 138.344C207.183 138.896 207.474 139.354 207.881 139.719C208.287 140.073 208.839 140.26 209.537 140.281C210.381 140.323 211.125 140.146 211.771 139.75C212.428 139.354 212.969 138.828 213.396 138.172C213.834 137.516 214.141 136.807 214.318 136.047L214.756 133.188C214.797 132.656 214.766 132.135 214.662 131.625C214.558 131.104 214.375 130.635 214.115 130.219C213.865 129.802 213.532 129.469 213.115 129.219C212.698 128.958 212.193 128.823 211.599 128.812C210.818 128.781 210.141 128.938 209.568 129.281C209.006 129.625 208.532 130.083 208.146 130.656C207.771 131.229 207.474 131.854 207.256 132.531C207.037 133.208 206.886 133.87 206.803 134.516ZM234.029 129.75L231.732 143H228.044L230.982 126.094H234.451L234.029 129.75ZM232.763 133.922H231.544C231.669 132.891 231.909 131.885 232.263 130.906C232.628 129.917 233.117 129.031 233.732 128.25C234.346 127.469 235.096 126.854 235.982 126.406C236.867 125.958 237.893 125.75 239.06 125.781C239.925 125.802 240.649 125.974 241.232 126.297C241.826 126.62 242.3 127.057 242.654 127.609C243.008 128.161 243.242 128.792 243.357 129.5C243.471 130.198 243.492 130.943 243.419 131.734L241.544 143H237.857L239.701 132.047C239.774 131.443 239.753 130.901 239.638 130.422C239.524 129.932 239.284 129.542 238.919 129.25C238.565 128.958 238.055 128.802 237.388 128.781C236.649 128.76 236.008 128.896 235.466 129.188C234.925 129.479 234.471 129.875 234.107 130.375C233.753 130.875 233.461 131.438 233.232 132.062C233.013 132.677 232.857 133.297 232.763 133.922ZM243.107 132.922L241.326 133.312C241.44 132.333 241.68 131.391 242.044 130.484C242.419 129.568 242.914 128.755 243.529 128.047C244.154 127.328 244.893 126.766 245.747 126.359C246.602 125.943 247.57 125.745 248.654 125.766C249.57 125.786 250.341 125.969 250.966 126.312C251.591 126.646 252.081 127.104 252.435 127.688C252.8 128.271 253.039 128.938 253.154 129.688C253.268 130.427 253.279 131.219 253.185 132.062L251.357 143H247.669L249.513 132.031C249.586 131.417 249.565 130.87 249.451 130.391C249.346 129.901 249.117 129.516 248.763 129.234C248.409 128.953 247.893 128.807 247.216 128.797C246.612 128.776 246.07 128.88 245.591 129.109C245.122 129.328 244.716 129.635 244.372 130.031C244.039 130.417 243.768 130.859 243.56 131.359C243.352 131.859 243.201 132.38 243.107 132.922ZM262.876 143.312C261.72 143.292 260.694 143.068 259.798 142.641C258.913 142.203 258.178 141.615 257.595 140.875C257.012 140.125 256.59 139.266 256.329 138.297C256.069 137.318 255.98 136.276 256.064 135.172L256.126 134.531C256.241 133.396 256.517 132.302 256.954 131.25C257.392 130.188 257.975 129.245 258.704 128.422C259.444 127.589 260.314 126.932 261.314 126.453C262.314 125.974 263.428 125.75 264.658 125.781C265.835 125.802 266.829 126.047 267.642 126.516C268.454 126.984 269.1 127.609 269.579 128.391C270.059 129.161 270.376 130.036 270.533 131.016C270.699 131.995 270.725 133.01 270.611 134.062L270.392 135.672H257.704L258.142 132.969L267.095 132.984L267.158 132.656C267.251 132 267.215 131.38 267.048 130.797C266.892 130.214 266.6 129.734 266.173 129.359C265.746 128.984 265.173 128.786 264.454 128.766C263.673 128.745 263.001 128.906 262.439 129.25C261.887 129.594 261.428 130.057 261.064 130.641C260.699 131.224 260.413 131.859 260.204 132.547C260.006 133.224 259.866 133.885 259.783 134.531L259.72 135.156C259.658 135.771 259.673 136.38 259.767 136.984C259.861 137.589 260.043 138.141 260.314 138.641C260.585 139.13 260.96 139.531 261.439 139.844C261.918 140.146 262.512 140.307 263.22 140.328C264.105 140.349 264.908 140.167 265.626 139.781C266.355 139.385 267.017 138.875 267.611 138.25L269.423 140.172C268.944 140.891 268.35 141.484 267.642 141.953C266.944 142.422 266.184 142.771 265.361 143C264.548 143.219 263.72 143.323 262.876 143.312ZM277.974 129.922L275.708 143H272.021L274.958 126.094H278.411L277.974 129.922ZM276.677 133.922L275.552 133.938C275.677 132.927 275.922 131.932 276.286 130.953C276.661 129.964 277.156 129.078 277.771 128.297C278.385 127.505 279.13 126.88 280.005 126.422C280.89 125.964 281.911 125.75 283.068 125.781C283.984 125.802 284.745 125.984 285.349 126.328C285.963 126.672 286.437 127.135 286.771 127.719C287.114 128.302 287.338 128.969 287.443 129.719C287.547 130.469 287.552 131.255 287.458 132.078L285.646 143H281.943L283.786 132.031C283.849 131.427 283.828 130.885 283.724 130.406C283.62 129.917 283.39 129.531 283.036 129.25C282.682 128.958 282.172 128.807 281.505 128.797C280.776 128.776 280.135 128.911 279.583 129.203C279.031 129.495 278.557 129.896 278.161 130.406C277.765 130.906 277.443 131.464 277.193 132.078C276.953 132.693 276.781 133.307 276.677 133.922ZM299.618 138.328C299.701 137.755 299.576 137.312 299.243 137C298.91 136.677 298.493 136.432 297.993 136.266C297.493 136.099 297.035 135.964 296.618 135.859C295.983 135.703 295.347 135.505 294.712 135.266C294.087 135.016 293.514 134.703 292.993 134.328C292.472 133.953 292.061 133.495 291.759 132.953C291.457 132.401 291.321 131.745 291.353 130.984C291.394 130.109 291.623 129.344 292.04 128.688C292.457 128.031 292.993 127.484 293.649 127.047C294.316 126.609 295.045 126.286 295.837 126.078C296.629 125.87 297.415 125.771 298.196 125.781C299.29 125.802 300.295 126.016 301.212 126.422C302.139 126.828 302.879 127.427 303.431 128.219C303.993 129.01 304.269 129.99 304.259 131.156L300.603 131.141C300.623 130.62 300.53 130.172 300.321 129.797C300.123 129.411 299.832 129.115 299.446 128.906C299.061 128.698 298.597 128.589 298.056 128.578C297.587 128.568 297.123 128.646 296.665 128.812C296.217 128.979 295.832 129.229 295.509 129.562C295.186 129.896 294.988 130.318 294.915 130.828C294.853 131.224 294.91 131.552 295.087 131.812C295.264 132.062 295.509 132.266 295.821 132.422C296.134 132.578 296.462 132.708 296.806 132.812C297.16 132.906 297.478 132.984 297.759 133.047C298.644 133.286 299.514 133.594 300.368 133.969C301.222 134.333 301.92 134.849 302.462 135.516C303.004 136.172 303.248 137.036 303.196 138.109C303.165 139.026 302.925 139.818 302.478 140.484C302.03 141.141 301.457 141.682 300.759 142.109C300.061 142.526 299.295 142.833 298.462 143.031C297.639 143.229 296.826 143.323 296.024 143.312C294.92 143.292 293.879 143.062 292.899 142.625C291.931 142.188 291.149 141.557 290.556 140.734C289.972 139.901 289.681 138.885 289.681 137.688L293.228 137.703C293.228 138.307 293.347 138.818 293.587 139.234C293.837 139.651 294.181 139.969 294.618 140.188C295.066 140.396 295.587 140.505 296.181 140.516C296.67 140.516 297.16 140.448 297.649 140.312C298.149 140.167 298.576 139.932 298.931 139.609C299.295 139.286 299.524 138.859 299.618 138.328ZM316.138 126.094L315.653 128.844H306.403L306.872 126.094H316.138ZM310.263 121.953H313.934L311.138 138.359C311.096 138.724 311.096 139.042 311.138 139.312C311.19 139.583 311.309 139.797 311.497 139.953C311.695 140.099 311.997 140.177 312.403 140.188C312.622 140.198 312.841 140.188 313.059 140.156C313.289 140.125 313.518 140.094 313.747 140.062L313.481 142.969C313.106 143.083 312.721 143.167 312.325 143.219C311.94 143.271 311.549 143.292 311.153 143.281C310.216 143.271 309.46 143.057 308.888 142.641C308.315 142.214 307.914 141.646 307.684 140.938C307.455 140.229 307.382 139.438 307.466 138.562L310.263 121.953ZM322.204 129.5L319.86 143H316.188L319.126 126.094H322.61L322.204 129.5ZM327.704 125.953L327.297 129.469C327.058 129.427 326.813 129.391 326.563 129.359C326.324 129.328 326.084 129.312 325.844 129.312C325.209 129.302 324.636 129.391 324.126 129.578C323.615 129.766 323.167 130.036 322.782 130.391C322.396 130.734 322.074 131.151 321.813 131.641C321.553 132.12 321.35 132.656 321.204 133.25L320.329 133.312C320.433 132.49 320.61 131.635 320.86 130.75C321.12 129.865 321.48 129.042 321.938 128.281C322.396 127.51 322.98 126.891 323.688 126.422C324.396 125.943 325.256 125.714 326.266 125.734C326.506 125.734 326.745 125.755 326.985 125.797C327.225 125.839 327.464 125.891 327.704 125.953ZM337.895 138.828L340.098 126.094H343.786L340.848 143H337.379L337.895 138.828ZM338.926 135.5L340.145 135.453C340.02 136.474 339.791 137.464 339.457 138.422C339.124 139.37 338.671 140.219 338.098 140.969C337.525 141.719 336.812 142.307 335.957 142.734C335.103 143.161 334.098 143.359 332.942 143.328C332.015 143.297 331.234 143.115 330.598 142.781C329.973 142.438 329.478 141.974 329.114 141.391C328.749 140.807 328.504 140.141 328.379 139.391C328.265 138.641 328.249 137.849 328.332 137.016L330.161 126.094H333.832L331.989 137.062C331.957 137.469 331.957 137.859 331.989 138.234C332.02 138.609 332.109 138.948 332.254 139.25C332.4 139.552 332.614 139.797 332.895 139.984C333.187 140.161 333.567 140.26 334.036 140.281C335.036 140.312 335.869 140.12 336.536 139.703C337.213 139.276 337.744 138.693 338.129 137.953C338.525 137.214 338.791 136.396 338.926 135.5ZM354.617 139.609L355.899 131.5C355.961 130.958 355.925 130.469 355.789 130.031C355.654 129.594 355.404 129.25 355.039 129C354.685 128.74 354.216 128.604 353.633 128.594C353.112 128.583 352.623 128.672 352.164 128.859C351.706 129.036 351.315 129.302 350.992 129.656C350.68 130.01 350.472 130.443 350.367 130.953L346.696 130.969C346.758 130.083 347.019 129.312 347.477 128.656C347.946 127.99 348.534 127.443 349.242 127.016C349.961 126.578 350.732 126.26 351.555 126.062C352.388 125.854 353.201 125.755 353.992 125.766C355.138 125.786 356.154 126.031 357.039 126.5C357.925 126.969 358.597 127.63 359.055 128.484C359.524 129.339 359.701 130.37 359.586 131.578L358.352 139.109C358.258 139.703 358.19 140.312 358.149 140.938C358.117 141.552 358.201 142.146 358.399 142.719L358.367 143L354.727 143.016C354.571 142.464 354.492 141.901 354.492 141.328C354.492 140.745 354.534 140.172 354.617 139.609ZM356.321 132.719L355.946 135.047L353.508 135.031C353.008 135.031 352.492 135.078 351.961 135.172C351.44 135.266 350.951 135.427 350.492 135.656C350.034 135.885 349.649 136.198 349.336 136.594C349.024 136.979 348.831 137.464 348.758 138.047C348.706 138.516 348.758 138.922 348.914 139.266C349.081 139.599 349.331 139.865 349.664 140.062C349.998 140.26 350.394 140.365 350.852 140.375C351.466 140.385 352.071 140.266 352.664 140.016C353.269 139.766 353.789 139.411 354.227 138.953C354.675 138.484 354.982 137.948 355.149 137.344L356.133 139.031C355.904 139.667 355.581 140.25 355.164 140.781C354.758 141.312 354.284 141.771 353.742 142.156C353.201 142.542 352.607 142.839 351.961 143.047C351.326 143.255 350.67 143.354 349.992 143.344C349.055 143.323 348.201 143.109 347.43 142.703C346.659 142.286 346.05 141.708 345.602 140.969C345.154 140.229 344.956 139.375 345.008 138.406C345.06 137.312 345.336 136.401 345.836 135.672C346.347 134.932 346.998 134.349 347.789 133.922C348.591 133.484 349.466 133.172 350.414 132.984C351.362 132.797 352.3 132.703 353.227 132.703L356.321 132.719ZM369.746 119L365.574 143H361.902L366.059 119H369.746ZM385.551 119L381.379 143H377.707L381.879 119H385.551ZM382.363 133.922H381.207C381.342 132.943 381.587 131.969 381.941 131C382.306 130.021 382.795 129.135 383.41 128.344C384.025 127.542 384.764 126.906 385.629 126.438C386.493 125.969 387.493 125.75 388.629 125.781C389.556 125.802 390.327 125.984 390.941 126.328C391.566 126.672 392.056 127.141 392.41 127.734C392.764 128.318 392.999 128.99 393.113 129.75C393.228 130.5 393.238 131.297 393.144 132.141L391.332 143H387.629L389.473 132.094C389.535 131.479 389.514 130.927 389.41 130.438C389.306 129.948 389.077 129.557 388.723 129.266C388.368 128.964 387.853 128.807 387.176 128.797C386.446 128.776 385.801 128.911 385.238 129.203C384.686 129.495 384.212 129.891 383.816 130.391C383.431 130.891 383.118 131.448 382.879 132.062C382.639 132.677 382.467 133.297 382.363 133.922ZM402.758 143.312C401.601 143.292 400.575 143.068 399.679 142.641C398.794 142.203 398.06 141.615 397.476 140.875C396.893 140.125 396.471 139.266 396.211 138.297C395.95 137.318 395.862 136.276 395.945 135.172L396.008 134.531C396.122 133.396 396.398 132.302 396.836 131.25C397.273 130.188 397.856 129.245 398.586 128.422C399.325 127.589 400.195 126.932 401.195 126.453C402.195 125.974 403.31 125.75 404.539 125.781C405.716 125.802 406.711 126.047 407.523 126.516C408.336 126.984 408.981 127.609 409.461 128.391C409.94 129.161 410.258 130.036 410.414 131.016C410.58 131.995 410.606 133.01 410.492 134.062L410.273 135.672H397.586L398.023 132.969L406.976 132.984L407.039 132.656C407.133 132 407.096 131.38 406.929 130.797C406.773 130.214 406.481 129.734 406.054 129.359C405.627 128.984 405.054 128.786 404.336 128.766C403.554 128.745 402.883 128.906 402.32 129.25C401.768 129.594 401.31 130.057 400.945 130.641C400.58 131.224 400.294 131.859 400.086 132.547C399.888 133.224 399.747 133.885 399.664 134.531L399.601 135.156C399.539 135.771 399.554 136.38 399.648 136.984C399.742 137.589 399.924 138.141 400.195 138.641C400.466 139.13 400.841 139.531 401.32 139.844C401.799 140.146 402.393 140.307 403.101 140.328C403.987 140.349 404.789 140.167 405.508 139.781C406.237 139.385 406.898 138.875 407.492 138.25L409.304 140.172C408.825 140.891 408.231 141.484 407.523 141.953C406.825 142.422 406.065 142.771 405.242 143C404.429 143.219 403.601 143.323 402.758 143.312ZM421.824 139.609L423.105 131.5C423.168 130.958 423.131 130.469 422.996 130.031C422.86 129.594 422.61 129.25 422.246 129C421.891 128.74 421.423 128.604 420.839 128.594C420.319 128.583 419.829 128.672 419.371 128.859C418.912 129.036 418.522 129.302 418.199 129.656C417.886 130.01 417.678 130.443 417.574 130.953L413.902 130.969C413.964 130.083 414.225 129.312 414.683 128.656C415.152 127.99 415.74 127.443 416.449 127.016C417.168 126.578 417.938 126.26 418.761 126.062C419.595 125.854 420.407 125.755 421.199 125.766C422.345 125.786 423.36 126.031 424.246 126.5C425.131 126.969 425.803 127.63 426.261 128.484C426.73 129.339 426.907 130.37 426.793 131.578L425.558 139.109C425.464 139.703 425.397 140.312 425.355 140.938C425.324 141.552 425.407 142.146 425.605 142.719L425.574 143L421.933 143.016C421.777 142.464 421.699 141.901 421.699 141.328C421.699 140.745 421.74 140.172 421.824 139.609ZM423.527 132.719L423.152 135.047L420.714 135.031C420.214 135.031 419.699 135.078 419.168 135.172C418.647 135.266 418.157 135.427 417.699 135.656C417.24 135.885 416.855 136.198 416.543 136.594C416.23 136.979 416.037 137.464 415.964 138.047C415.912 138.516 415.964 138.922 416.121 139.266C416.287 139.599 416.537 139.865 416.871 140.062C417.204 140.26 417.6 140.365 418.058 140.375C418.673 140.385 419.277 140.266 419.871 140.016C420.475 139.766 420.996 139.411 421.433 138.953C421.881 138.484 422.188 137.948 422.355 137.344L423.339 139.031C423.11 139.667 422.787 140.25 422.371 140.781C421.964 141.312 421.49 141.771 420.949 142.156C420.407 142.542 419.813 142.839 419.168 143.047C418.532 143.255 417.876 143.354 417.199 143.344C416.261 143.323 415.407 143.109 414.636 142.703C413.865 142.286 413.256 141.708 412.808 140.969C412.36 140.229 412.162 139.375 412.214 138.406C412.266 137.312 412.543 136.401 413.043 135.672C413.553 134.932 414.204 134.349 414.996 133.922C415.798 133.484 416.673 133.172 417.621 132.984C418.569 132.797 419.506 132.703 420.433 132.703L423.527 132.719ZM436.953 119L432.781 143H429.109L433.265 119H436.953ZM447.394 126.094L446.909 128.844H437.659L438.128 126.094H447.394ZM441.519 121.953H445.191L442.394 138.359C442.352 138.724 442.352 139.042 442.394 139.312C442.446 139.583 442.566 139.797 442.753 139.953C442.951 140.099 443.253 140.177 443.659 140.188C443.878 140.198 444.097 140.188 444.316 140.156C444.545 140.125 444.774 140.094 445.003 140.062L444.737 142.969C444.362 143.083 443.977 143.167 443.581 143.219C443.196 143.271 442.805 143.292 442.409 143.281C441.472 143.271 440.717 143.057 440.144 142.641C439.571 142.214 439.17 141.646 438.941 140.938C438.711 140.229 438.639 139.438 438.722 138.562L441.519 121.953ZM455.226 119L451.054 143H447.382L451.554 119H455.226ZM452.038 133.922H450.882C451.017 132.943 451.262 131.969 451.616 131C451.981 130.021 452.47 129.135 453.085 128.344C453.7 127.542 454.439 126.906 455.304 126.438C456.168 125.969 457.168 125.75 458.304 125.781C459.231 125.802 460.002 125.984 460.616 126.328C461.241 126.672 461.731 127.141 462.085 127.734C462.439 128.318 462.674 128.99 462.788 129.75C462.903 130.5 462.913 131.297 462.819 132.141L461.007 143H457.304L459.147 132.094C459.21 131.479 459.189 130.927 459.085 130.438C458.981 129.948 458.752 129.557 458.397 129.266C458.043 128.964 457.528 128.807 456.851 128.797C456.121 128.776 455.476 128.911 454.913 129.203C454.361 129.495 453.887 129.891 453.491 130.391C453.106 130.891 452.793 131.448 452.554 132.062C452.314 132.677 452.142 133.297 452.038 133.922Z" fill="#C37126"/>
</svg>
